<svg
 xmlns="http://www.w3.org/2000/svg"
 xmlns:xlink="http://www.w3.org/1999/xlink"
 width="104px" height="146px">
<path fill-rule="evenodd"  fill="rgb(28, 63, 149)"
 d="M51.882,22.052 C68.393,22.052 81.347,35.283 81.347,51.425 C81.347,67.884 68.393,80.797 51.882,80.797 C35.696,80.797 22.417,67.884 22.417,51.425 C22.417,35.289 35.690,22.052 51.882,22.052 ZM51.882,0.107 C80.374,0.107 103.686,23.022 103.686,51.425 C103.686,79.503 77.460,122.112 57.062,143.411 C54.148,146.315 49.617,146.315 47.022,143.411 C26.624,122.106 0.398,79.503 0.398,51.425 C0.398,23.022 23.385,0.107 51.877,0.107 L51.882,0.107 Z"/>
</svg>
