<svg xmlns="http://www.w3.org/2000/svg" viewBox="0 0 475.25 492.94"><path d="M308.39 337.61a.23.23 0 0 0-.1.07v-.05z" fill="#fff"/><path d="M346.78 298.33a4.49 4.49 0 0 1-3.52-7.29c11.93-15.1 20.18-28.56 22.64-36.94a3.82 3.82 0 0 0-1.11-4 3.92 3.92 0 0 0-4.12-.76c-12.64 5-27.85 21-38.19 32.61a4.5 4.5 0 0 1-6.72-6c10.95-12.3 27.18-29.32 41.61-35a12.92 12.92 0 0 1 17.16 15.65c-2.8 9.58-11.4 23.79-24.21 40a4.52 4.52 0 0 1-3.54 1.73zM219.34 175.75a66.39 66.39 0 0 1-31.55-7.5c-17-9.12-28.7-26.07-34.82-50.38l-1.06-4.23 4.19-1.19c24.09-6.88 44.43-5.12 60.45 5.24 25.33 16.37 30.24 48 30.43 49.38l.54 3.66L244 172a80.87 80.87 0 0 1-24.66 3.75zM162.87 120c5.69 19.45 15.49 33 29.17 40.36 17.6 9.44 37.18 6.21 45.23 4.22-2.05-8.35-8.56-28.32-25.66-39.33-12.81-8.25-29.19-10.05-48.74-5.25z" fill="#364e3b"/><path d="M249 171.55l-.86-3.58c-.59-2.47-14-61.15 18.93-109.55C288.47 27.05 324.28 7.61 373.53.61l4.32-.61.75 4.3c8.4 48.22 1.12 87.4-21.6 116.46-34.21 43.7-91.7 49.81-102.88 50.59l-1.39.08zM370.45 10.18c-44.36 7.11-76.6 25-95.86 53.24-26.18 38.36-20.68 85.26-18.39 98.71 13.4-1.36 63.94-8.93 93.68-46.92 20.45-26.1 27.36-61.42 20.57-105.03z" fill="#364e3b"/><path d="M247 239.91a4.51 4.51 0 0 1-4.44-3.83c-.19-1.28-4.66-31.86 4.91-71.07 11.5-47.2 38.88-86.6 79.17-113.92a4.5 4.5 0 0 1 5.06 7.45c-39 26.42-64.36 63-75.48 108.6-9.13 37.39-4.8 67.3-4.76 67.59a4.5 4.5 0 0 1-3.78 5.12 3.91 3.91 0 0 1-.68.06z" fill="#364e3b"/><path d="M308.29 313.86a4.5 4.5 0 0 1-2.9-7.94 27.35 27.35 0 0 0 6-7.12 27.69 27.69 0 0 0-29.93-41 4.52 4.52 0 0 1-4.7-1.88 36.35 36.35 0 0 0-29.82-16h-.28a36.31 36.31 0 0 0-30.09 16 4.52 4.52 0 0 1-4.7 1.88 27.66 27.66 0 0 0-33.43 23 4.5 4.5 0 0 1-8.91-1.28 36.65 36.65 0 0 1 41.33-31.07 45.26 45.26 0 0 1 35.8-17.54h.34a45.35 45.35 0 0 1 35.49 17.54 36.69 36.69 0 0 1 28.74 64.35 4.48 4.48 0 0 1-2.94 1.06zM307 345.38l-2.81-5.73 4-2-3.17-3.11a4.8 4.8 0 0 1 1.31-1l2 4 3.09-3.08.84 1.16-3.91 2 3.91-2 .06.09-3.94 1.92 2 4a4 4 0 0 0 1.12-.81zm15.24-23.86a4.5 4.5 0 0 1-2.81-8c4.28-3.41 10.41-9.41 17.51-16.36 2.16-2.11 4.4-4.3 6.71-6.54 19.87-19.26 40.65-37.76 58-42.74a13.5 13.5 0 0 1 16.27 18c-2.39 6-7.08 13.37-14 22a4.5 4.5 0 0 1-7-5.6c6.25-7.86 10.62-14.69 12.65-19.76a4.39 4.39 0 0 0-.83-4.66 4.47 4.47 0 0 0-4.6-1.31c-15.46 4.45-36.07 23-54.18 40.55-2.31 2.23-4.54 4.42-6.68 6.51-7.28 7.12-13.56 13.27-18.19 17a4.49 4.49 0 0 1-2.85.91z" fill="#364e3b"/><path d="M324.81 324.78a4.5 4.5 0 0 1-.32-9c15-1.08 26.55-3.55 33.32-7.16 4.77-2.54 12.34-7.91 21.1-14.12 5.76-4.08 12.29-8.71 19-13.2 23.64-15.86 39.81-23.62 52.45-25.18a13.5 13.5 0 0 1 13.27 20.29c-7 11.73-26.25 29-51.46 46.11a4.5 4.5 0 0 1-5.06-7.45c23.82-16.19 42.52-32.77 48.79-43.27a4.5 4.5 0 0 0-4.44-6.74c-14.47 1.77-34.63 14.38-48.53 23.71-6.59 4.43-13.08 9-18.8 13.08-9 6.38-16.79 11.9-22.07 14.71-8 4.26-20.4 7-36.91 8.2z" fill="#364e3b"/><path d="M82.72 492.94a4.51 4.51 0 0 1-3.49-7.35c2.34-2.86 57.66-70.1 90-77.87 15.55-3.73 43.71-3.87 73.53-4 31.13-.15 63.32-.31 80.33-4.72 26.38-6.84 111.86-58.76 141.43-78.26a3.74 3.74 0 0 0 1.68-3.49 3.54 3.54 0 0 0-2.11-3c-5.63-2.47-19.49-4-32.69.44-5.37 1.79-11.36 4.43-18.31 7.49l-1.7.75c-14.18 6.26-35.62 15.71-64.42 21.45a280.94 280.94 0 0 1-32.67 4.47c-4.8.38-9.7.65-14.56.81-10 .32-20.49.19-31.19-.4-7.8-.43-16-1.13-24.28-2.07a4.57 4.57 0 0 1 .42-9.11c8.36-.23 15.47-.46 21.73-.72 20.16-.85 32.35-2.07 40.74-4.09H307.47c12.87-2.61 13.48-8.74 13.51-9.43v-.38a1.94 1.94 0 0 0-.27-1.11 1.09 1.09 0 0 0-.08-.15 7.68 7.68 0 0 0-1.49-1.79c-2.38-2.19-6.6-4.47-12.54-6.77-3.27-1.27-7-2.53-11.47-3.87-12.35-3.7-27.45-7.07-42.05-10.34-10.36-2.31-20.15-4.5-29-6.8-20.7-5.35-36.64-7.85-50.16-7.89a87.14 87.14 0 0 0-36.83 7.64c-11.94 5.34-41.93 32.57-68.38 56.58C43.2 372.07 19.07 394 6.72 401a4.5 4.5 0 0 1-4.44-7.83c11.48-6.51 36.36-29.1 60.41-50.94 29.57-26.85 57.5-52.2 70.75-58.13a95.15 95.15 0 0 1 40.56-8.44c14.3 0 30.94 2.64 52.39 8.18 8.74 2.26 18.45 4.43 28.74 6.73 14.76 3.3 30 6.71 42.67 10.5 4.68 1.41 8.65 2.74 12.14 4.09 7.1 2.76 12.13 5.56 15.38 8.55a16.17 16.17 0 0 1 3.28 4.07c.07.11.17.29.27.49a11.08 11.08 0 0 1 1.17 5.91c-.13 2.78-1.52 10.62-12.58 15.37a268.71 268.71 0 0 0 27.82-4c27.84-5.55 47.9-14.39 62.55-20.85l1.7-.75c7.15-3.15 13.33-5.88 19.09-7.8 14.72-4.91 30.84-3.79 39.15-.14a12.41 12.41 0 0 1 7.46 10.48 12.75 12.75 0 0 1-5.69 11.75c-23.21 15.28-114.49 71.76-144.15 79.45-18.1 4.69-50.86 4.86-82.55 5-28 .14-56.94.28-71.47 3.77-12 2.87-30.41 16.61-53.34 39.73-17.64 17.81-31.69 34.92-31.83 35.1a4.51 4.51 0 0 1-3.48 1.65zm162.13-145.87zm0 0zm.11 0z" fill="#364e3b"/></svg>