<svg xmlns="http://www.w3.org/2000/svg" viewBox="0 0 388.56 388.52"><path d="M193.22 332.35c-77 0-139.69-62.66-139.69-139.69S116.2 53 193.22 53s139.69 62.66 139.69 139.68-62.66 139.67-139.69 139.67zm0-270.37C121.16 62 62.53 120.6 62.53 192.66a130.69 130.69 0 0 0 261.38 0C323.91 120.6 265.28 62 193.22 62z" fill="#364e3b"/><path d="M119.29 276.77l-53.64-31.29 4.54-7.77 40.1 23.39v-28.76l-5.87-25.76L78.28 197l-.28-2.87c0-.27-.61-6.56-.91-13.06-.55-12.17-.09-16.51 3.91-17.89 3.07-1.34 19.08-12.29 20.87-15.79 1.6-3.15 5.7-20.65 8.27-32.83l-8.51-23.06 8.45-3.11 9.37 25.49-.26 1.26c-1.06 5.1-6.51 30.83-9.33 36.34-2.9 5.69-17.76 15.8-23.8 19.16-.34 3.34 0 11.93.67 19.83l25.38 9.35 7.18 31.5zm-35-105.25l-.41.17zm-3.26-8.37zm138.5 140.1v-31.47l-35.15-18.58-13.06-24.49 4.38-30.86h48.39l11.13-10.22-2.1-6.87-22.58-4-25.48 8.57-8.6-40.88L196 140.9l15.39-2.09v-14.23L232 94.91l3.37 1.43c9.1 3.86 20.31 7.86 24.31 8.4 2-3.59 5.62-15.3 8-25.19l8.75 2.14c-7 28.8-11 30.67-12.71 31.48-1.46.68-5.21 2.45-28.51-7.13l-14.79 21.36v19.26l-23.08 3.15-10.17 1.84 4.61 21.91 18.07-6.07 30.27 5.37 5.37 17.57-17.9 16.42h-44.07l-2.87 20.22L191 246.53l37.51 19.83v25.28l18.82-4.85 15-35-13-38.09 20.46-29.29 40 1.87 13.34-10.45 5.55 7.09-16 12.51-38.35-1.8-15 21.48 12.64 37-18.1 42.23z" fill="#364e3b"/><path d="M194 388.52A194.46 194.46 0 0 1 7.21 246.27a192.25 192.25 0 0 1 8.11-127.39 4.5 4.5 0 0 1 8.29 3.49A185.21 185.21 0 0 0 244 372.66a185.11 185.11 0 0 0 82.85-49 4.5 4.5 0 1 1 6.44 6.28A195.16 195.16 0 0 1 194 388.52zm169.6-104.17a4.51 4.51 0 0 1-4-6.53 184.72 184.72 0 0 0 13.15-133.22C345.39 46.21 243.08-11.57 144.69 15.79a184.2 184.2 0 0 0-92 59.1 4.5 4.5 0 1 1-6.89-5.79 193.23 193.23 0 0 1 96.51-62C245.46-21.57 352.73 39 381.43 142.19a193.68 193.68 0 0 1-13.81 139.69 4.48 4.48 0 0 1-4.02 2.47z" fill="#364e3b"/><path d="M67.92 81.29l-37.78 20.3 1.24-42.86zm244.29 233.2L353 301.32l-8.94 41.94z" fill="#364e3b"/></svg>