<svg xmlns="http://www.w3.org/2000/svg" viewBox="0 0 352.25 397.6"><path d="M120 106.11a145.19 145.19 0 0 1-26.63-2.25l-3.28-.66-.31-3.32c-.19-2-4.17-48.22 28.52-77.4 25-22.3 64-28 116.08-17.07l4.28.9-.78 4.3c-6.12 33.78-21.32 59.13-45.19 75.33-24.36 16.52-52.58 20.17-72.69 20.17zM98.57 95.59c12.36 1.74 55.53 5.7 89.1-17.13 20.74-14.11 34.35-36 40.49-65.13-46.85-9.14-81.77-3.83-103.83 15.82-24.47 21.79-25.96 55.63-25.76 66.44z" fill="#364e3b"/><path d="M83 166.39a4.5 4.5 0 0 1-4.47-4c-.12-1.13-2.69-28 9.49-58.09 11.28-27.84 37.82-63.58 100.22-75.68a4.5 4.5 0 0 1 1.71 8.84c-46.78 9.03-78.22 32.54-93.46 69.85a126.49 126.49 0 0 0-9 54.13 4.5 4.5 0 0 1-4 4.93zm-11.87-59.71c-9.36 0-31.3-1.8-48.19-17.19-14-12.76-21.1-31.72-21.1-56.34v-4.36l4.36-.13c24.59-.77 43.55 5.78 56.34 19.48 20.21 21.67 17.29 53 17.16 54.35l-.37 3.68-3.69.34c-.28.03-1.91.17-4.51.17zm4.09-4.68zm0 0zM10.93 37.6c.78 19.8 6.85 35 18.07 45.24C43.42 96 62.72 97.61 70.89 97.67c0-8.49-1.41-28.93-15-43.44C45.72 43.35 30.6 37.76 10.93 37.6z" fill="#364e3b"/><path d="M347.75 397.6H4.5a4.49 4.49 0 0 1-4.5-4.5V288a4.49 4.49 0 0 1 2.33-3.94L59 252.83v-90.94a4.5 4.5 0 0 1 4.5-4.5h42.82a4.5 4.5 0 0 1 4.5 4.5v62.36l72.64-40.05a4.5 4.5 0 0 1 6.67 3.94v37.07l74.38-41a4.5 4.5 0 0 1 6.67 3.94v37.07l74.38-41a4.5 4.5 0 0 1 6.67 3.94v205a4.49 4.49 0 0 1-4.48 4.44zM9 388.6h334.25V195.76l-74.38 41a4.49 4.49 0 0 1-6.67-3.94v-37.06l-74.38 41a4.49 4.49 0 0 1-6.67-3.94v-37.06l-72.63 40.05a4.5 4.5 0 0 1-6.68-3.94v-65.48H68v89.09a4.49 4.49 0 0 1-2.33 3.94L9 290.68z" fill="#364e3b"/><path d="M184.77 328.79a4.5 4.5 0 0 1-4.5-4.5v-42.83a4.5 4.5 0 0 1 9 0v42.83a4.49 4.49 0 0 1-4.5 4.5zm50.35 0a4.5 4.5 0 0 1-4.5-4.5v-42.83a4.5 4.5 0 1 1 9 0v42.83a4.49 4.49 0 0 1-4.5 4.5zm46.97 0a4.5 4.5 0 0 1-4.5-4.5v-42.83a4.5 4.5 0 0 1 9 0v42.83a4.49 4.49 0 0 1-4.5 4.5z" fill="#364e3b"/></svg>