<svg xmlns="http://www.w3.org/2000/svg" viewBox="0 0 1529.88 330"><defs><clipPath id="a"><path fill="none" d="M0 0H1529.88V330H0z"/></clipPath></defs><path fill="#0054a6" d="M384.28 100.05L375.59 110.41 375.59 144.64 351.88 144.64 351.88 33.25 375.59 33.25 375.59 83.02 415 33.25 444.23 33.25 399.98 85.52 447.24 144.64 418.01 144.64 384.28 100.05 384.28 100.05z"/><path d="M457.58 124.6V33.25h21.21v85.68c0 5 2.68 8.85 7.35 8.85 3.18 0 6.18-1.17 7.18-2.34l4.51 16c-3.17 2.84-8.85 5.18-17.53 5.18-14.87 0-22.72-7.68-22.72-22.05zm52.27-72.81l22.38-24h19.54l-27 24.05zM507.35 64h21.21v80.66h-21.21V64zm142.29 29.71c0-7.52-3.34-12.86-12-12.86-7.51 0-13.69 5-16.7 9.35v54.44h-21.41V93.71c0-7.52-3.34-12.86-12-12.86-7.35 0-13.53 5-16.7 9.52v54.27H549.6V64h21.21v10.5c3.34-4.84 14-12.52 26.39-12.52 11.85 0 19.37 5.51 22.38 14.69C624.25 69.32 634.94 62 647.3 62c14.86 0 23.7 7.82 23.7 24.36v58.28h-21.36V93.71zm97.69-3.51C743.65 84.86 736.14 81 729 81c-12 0-20.38 9.36-20.38 23.39 0 13.86 8.35 23.38 20.38 23.38 7.18 0 14.69-3.85 18.37-9.19V90.2zm0 44.26a31.65 31.65 0 0 1-24.89 12.19c-20.37 0-35.74-15.37-35.74-42.25 0-26.4 15.2-42.4 35.74-42.4a31.08 31.08 0 0 1 24.89 12.35V64h21.37v80.66h-21.37v-10.2zm44.58-15.2c5.85 5.51 17.87 11 27.89 11 9.19 0 13.53-3.17 13.53-8.18 0-5.68-7-7.68-16.2-9.52-13.86-2.67-31.73-6-31.73-25.22 0-13.51 11.86-25.34 33.07-25.34 13.69 0 24.55 4.67 32.4 11l-8.35 14.53c-4.85-5.18-14-9.35-23.89-9.35-7.68 0-12.69 2.83-12.69 7.51 0 5 6.35 6.85 15.37 8.69 13.86 2.67 32.4 6.34 32.4 26.38 0 14.86-12.53 25.89-34.91 25.89-14 0-27.55-4.68-36.07-12.53l9.18-14.86zm94.19-22.55h39.75C925.35 89 920 78.84 906 78.84c-13.19 0-18.87 9.86-19.87 17.87zM906 62c24 0 40.42 18 40.42 44.42v4.68h-60c1.34 10.18 9.52 18.7 23.22 18.7 7.51 0 16.37-3 21.54-8l9.36 13.7c-8.19 7.51-20.71 11.19-33.24 11.19-24.55 0-43.09-16.54-43.09-42.42C864.22 80.85 881.42 62 906 62zm155.79 31.71c0-7.52-3.34-12.86-12-12.86-7.51 0-13.69 5-16.7 9.35v54.44h-21.37V93.71c0-7.52-3.35-12.86-12-12.86-7.35 0-13.53 5-16.7 9.52v54.27h-21.27V64H983v10.5c3.3-4.84 14-12.5 26.35-12.5 11.86 0 19.37 5.51 22.38 14.69 4.67-7.35 15.36-14.69 27.72-14.69 14.86 0 23.71 7.84 23.71 24.38v58.28h-21.37V93.71zM1104 124.6V33.25h21.21v85.68c0 5 2.67 8.85 7.35 8.85 3.17 0 6.18-1.17 7.18-2.34l4.51 16c-3.17 2.84-8.85 5.18-17.53 5.18-14.87 0-22.72-7.68-22.72-22.05zm66.5-27.89h39.75c-.51-7.68-5.85-17.87-19.88-17.87-13.19 0-18.87 9.86-19.87 17.87zM1190.37 62c24.05 0 40.42 18 40.42 44.42v4.68h-60c1.34 10.18 9.52 18.7 23.22 18.7 7.51 0 16.36-3 21.54-8l9.35 13.7c-8.18 7.51-20.71 11.19-33.23 11.19-24.55 0-43.09-16.54-43.09-42.42 0-23.38 17.2-42.25 41.75-42.25zm111.06 28c-3.51-5.34-11.19-9.18-18.21-9.18-12 0-20.37 8.35-20.37 22.21s8.35 22.21 20.37 22.21c7 0 14.7-4 18.21-9.18V90zM1254 150c6.51 7.18 15 10 25.21 10s22.22-4.51 22.22-20.38v-8.18c-6.35 8-15 12.69-24.89 12.69-20.21 0-35.57-14.19-35.57-41.08 0-26.39 15.2-41.08 35.57-41.08 9.69 0 18.37 4.17 24.89 12.35V64h21.37v75.15c0 30.73-23.71 38.25-43.59 38.25-13.86 0-24.71-3.17-34.73-12L1254 150zm106.54-53.29h39.75c-.5-7.68-5.85-17.87-19.88-17.87-13.19 0-18.87 9.86-19.87 17.87zM1380.41 62c24 0 40.42 18 40.42 44.42v4.68h-59.95c1.33 10.18 9.51 18.7 23.21 18.7 7.51 0 16.37-3 21.54-8l9.36 13.7c-8.19 7.51-20.71 11.19-33.24 11.19-24.55 0-43.09-16.54-43.09-42.42 0-23.38 17.2-42.25 41.75-42.25z" fill="#0054a6"/><g clip-path="url(#a)"><path d="M1438.36 119.26c5.85 5.51 17.87 11 27.89 11 9.19 0 13.53-3.17 13.53-8.18 0-5.68-7-7.68-16.2-9.52-13.86-2.67-31.73-6-31.73-25.22 0-13.53 11.86-25.38 33.07-25.38 13.69 0 24.55 4.67 32.4 11L1489 87.53c-4.84-5.18-14-9.35-23.88-9.35-7.68 0-12.69 2.83-12.69 7.51 0 5 6.35 6.85 15.37 8.69 13.86 2.67 32.39 6.34 32.39 26.38 0 14.86-12.52 25.89-34.9 25.89-14 0-27.56-4.68-36.07-12.53l9.18-14.86zM84.08 232.17a106.86 106.86 0 0 1-47.39-88.58c0-59.08 48.53-107.15 108.19-107.15a108.84 108.84 0 0 1 24 2.69L183.7 5.27A146.15 146.15 0 0 0 144.88 0C64.93 0-.12 64.42-.12 143.59c0 51.73 27.78 97.16 69.34 122.43l14.86-33.85z" fill="#0054a6"/></g><path d="M210.76 143.59c0 36-29.49 65.25-65.88 65.25S79 179.63 79 143.59s29.5-65.24 65.88-65.24 65.88 29.21 65.88 65.24" fill="#00c0f3"/><path d="M147.58 287.11c78.7-1.43 142.3-65.24 142.3-143.52 0-51.73-27.78-97.16-69.34-122.43L205.67 55a106.86 106.86 0 0 1 47.41 88.58c0 59.08-48.54 107.15-108.2 107.15a109.28 109.28 0 0 1-24-2.68L84.94 330h43.81l18.83-42.89zM365.71 250h12.12l21.74-55.36h-11l-16.77 44.81-16.8-44.81h-11L365.71 250zm61.17-46.14l13.7-12h-8.31l-11.61 12zM433.6 250h8.72v-40.09h-8.72v5.56a15.94 15.94 0 0 0-12.86-6.55c-10.38 0-17.85 8.13-17.85 21.08 0 13.19 7.55 21 17.85 21a16.24 16.24 0 0 0 12.86-6.48V250zm0-12a13.11 13.11 0 0 1-10.38 5.31c-6.89 0-11.28-5.56-11.28-13.28s4.39-13.28 11.28-13.28a13.15 13.15 0 0 1 10.38 5.39V238zm30.3 13c4 0 6.56-1.08 8.12-2.58l-2.02-6.56a5.4 5.4 0 0 1-3.83 1.42c-2.48 0-3.81-2-3.81-4.73v-43.91h-8.76v46.06c0 6.64 3.49 10.3 10.3 10.3zm23.65 0c4 0 6.57-1.08 8.13-2.58l-2.06-6.56a5.43 5.43 0 0 1-3.83 1.42c-2.49 0-3.81-2-3.81-4.73v-43.91h-8.72v46.06c0 6.64 3.48 10.3 10.29 10.3zm41.58-1h8.72v-40.09h-8.72v5.56a15.93 15.93 0 0 0-12.86-6.55c-10.37 0-17.84 8.13-17.84 21.08 0 13.19 7.54 21 17.84 21a16.24 16.24 0 0 0 12.86-6.48V250zm0-12a13.09 13.09 0 0 1-10.37 5.31c-6.89 0-11.29-5.56-11.29-13.28s4.4-13.28 11.29-13.28a13.13 13.13 0 0 1 10.37 5.39V238zm30.3 13c4 0 6.56-1.08 8.13-2.58l-2.07-6.56a5.39 5.39 0 0 1-3.82 1.42c-2.49 0-3.82-2-3.82-4.73v-43.91h-8.72v46.06c0 6.64 3.49 10.3 10.3 10.3zm41.57-1h8.72v-40.09H601v5.56a15.94 15.94 0 0 0-12.86-6.55c-10.38 0-17.84 8.13-17.84 21.08 0 13.19 7.54 21 17.84 21a16.24 16.24 0 0 0 12.86-6.48V250zm0-12a13.11 13.11 0 0 1-10.38 5.31c-6.89 0-11.28-5.56-11.28-13.28s4.39-13.28 11.28-13.28a13.15 13.15 0 0 1 10.38 5.36V238zm32 13c4.08 0 6.64-1.08 8.22-2.58l-2.06-6.56a5.65 5.65 0 0 1-3.91 1.42c-2.48 0-3.81-2-3.81-4.73v-21h8.13v-7.64h-8.13V199h-8.72v11h-6.64v7.64h6.64v23.06c0 6.64 3.57 10.3 10.28 10.3zm-263.84 77.69a17.32 17.32 0 0 0 14.66-7.53l-4.05-2.22a12.75 12.75 0 0 1-10.61 5.53c-8.14 0-14.47-6.44-14.47-15.45s6.33-15.44 14.47-15.44a12.92 12.92 0 0 1 10.61 5.51l4-2.21a17.07 17.07 0 0 0-14.59-7.52c-10.76 0-19.37 8-19.37 19.66s8.61 19.67 19.37 19.67zm26.63 0a6.88 6.88 0 0 0 5.07-1.77l-1.26-3.2a3.88 3.88 0 0 1-2.84 1.14c-1.88 0-2.8-1.47-2.8-3.53V290h-4.27v32.27c0 4.09 2.05 6.44 6.1 6.44zm11.29-32.83a2.92 2.92 0 0 0 2.9-2.92 2.88 2.88 0 0 0-5.76 0 2.91 2.91 0 0 0 2.86 2.92zM405 328h4.26v-27.53H405V328zm46 0h4.28v-19.89c0-5.53-2.67-8.33-7.68-8.33a11.57 11.57 0 0 0-9.24 5.14c-.81-2.86-3.2-5.14-7.42-5.14a11.91 11.91 0 0 0-8.89 4.67v-4h-4.27V328h4.27v-20.12c1.48-2.22 4.45-4.27 7.23-4.27 3.6 0 5.08 2.22 5.08 5.69V328h4.28v-20.17a9.6 9.6 0 0 1 7.3-4.22c3.53 0 5.06 2.22 5.06 5.69V328zm32.78 0h4.28v-27.53h-4.28v4.15a11.52 11.52 0 0 0-9.28-4.84c-7.25 0-12.27 5.7-12.27 14.49 0 9 5.08 14.42 12.27 14.42a11.57 11.57 0 0 0 9.28-4.8V328zm0-7.47a10.25 10.25 0 0 1-8.27 4.33c-5.51 0-8.83-4.5-8.83-10.59s3.32-10.66 8.83-10.66a10.34 10.34 0 0 1 8.27 4.44v12.48zm19.79 8.16a7 7 0 0 0 5.12-1.77l-1.25-3.2a4.1 4.1 0 0 1-2.9 1.14c-1.89 0-2.8-1.47-2.8-3.53v-17.1h5.58v-3.76h-5.58v-7.53h-4.28v7.53h-4.56v3.76h4.56v18c0 4.09 2.06 6.44 6.11 6.44zm8.19-14.49c0 8.61 5.88 14.49 14 14.49a15 15 0 0 0 10.94-4.22l-2-2.8a12.09 12.09 0 0 1-8.5 3.49c-5.93 0-9.57-4.35-9.91-9.54h22.28v-1.07c0-8.27-4.91-14.77-13.22-14.77-7.87 0-13.58 6.44-13.58 14.42zm13.52-10.89c6.26 0 9 5.08 9.06 9.19h-18.05c.22-4.22 3.12-9.19 9-9.19zM545.65 328h4.71v-15.11h10.55c7.53 0 11.92-5.23 11.92-11.45S568.55 290 560.91 290h-15.26v38zm22.28-26.56c0 4.28-3.08 7.23-7.58 7.23h-10V294.2h10c4.5 0 7.58 3 7.58 7.24zM598.87 328h4.28v-27.53h-4.28v4.15a11.52 11.52 0 0 0-9.28-4.84c-7.25 0-12.27 5.7-12.27 14.49 0 9 5.08 14.42 12.27 14.42a11.57 11.57 0 0 0 9.28-4.8V328zm0-7.47a10.23 10.23 0 0 1-8.27 4.33c-5.51 0-8.82-4.5-8.82-10.59s3.31-10.66 8.82-10.66a10.32 10.32 0 0 1 8.27 4.44v12.48zm12.84 7.47H616v-19.5a10.08 10.08 0 0 1 7.47-4.39 7.88 7.88 0 0 1 1.72.17v-4.37a11.72 11.72 0 0 0-9.19 5v-4.45h-4.26V328zm25.76.69a7 7 0 0 0 5.13-1.77l-1.25-3.2a4.11 4.11 0 0 1-2.91 1.14c-1.89 0-2.8-1.47-2.8-3.53v-17.1h5.58v-3.76h-5.58v-7.53h-4.28v7.53h-4.56v3.76h4.56v18c0 4.09 2.06 6.44 6.11 6.44zm28.38-.69h4.27v-19.33c0-6-3-8.89-8.77-8.89a13.66 13.66 0 0 0-9.81 4.67v-4h-4.26V328h4.26v-20.12a10.66 10.66 0 0 1 8.16-4.27c3.7 0 6.15 1.53 6.15 6.37v18zm11.22-13.8c0 8.61 5.88 14.49 14 14.49a15 15 0 0 0 10.93-4.22l-2-2.8a12.06 12.06 0 0 1-8.5 3.49c-5.92 0-9.56-4.35-9.9-9.54h22.28v-1.07c0-8.27-4.91-14.77-13.22-14.77-7.87 0-13.58 6.44-13.58 14.42zm13.52-10.89c6.26 0 9 5.08 9.06 9.19h-18.06c.22-4.22 3.12-9.19 9-9.19zM710.77 328H715v-19.5a10.07 10.07 0 0 1 7.47-4.39 7.88 7.88 0 0 1 1.72.17v-4.37a11.72 11.72 0 0 0-9.19 5v-4.45h-4.27V328zm18-2.56a3.14 3.14 0 1 0 3.14-3.14 3.16 3.16 0 0 0-3.14 3.14zm12.36-11.24c0 8.21 5.54 14.49 13.75 14.49a11.78 11.78 0 0 0 10.08-4.8l-2.84-2.61a8.33 8.33 0 0 1-7 3.58c-5.87 0-9.51-4.55-9.51-10.66s3.64-10.59 9.51-10.59a8.18 8.18 0 0 1 7 3.58l2.84-2.61a11.76 11.76 0 0 0-10.08-4.8c-8.21 0-13.75 6.28-13.75 14.42zm41.84 14.49c8.39 0 13.63-6.5 13.63-14.49s-5.24-14.42-13.63-14.42-13.62 6.44-13.62 14.42 5.25 14.49 13.62 14.49zm0-3.83c-5.86 0-9.17-5-9.17-10.66s3.31-10.59 9.17-10.59 9.13 5 9.13 10.59-3.25 10.66-9.13 10.66zm53.76 3.14H841v-19.89c0-5.53-2.67-8.33-7.69-8.33a11.57 11.57 0 0 0-9.23 5.14c-.81-2.86-3.2-5.14-7.42-5.14a11.91 11.91 0 0 0-8.89 4.67v-4h-4.27V328h4.27v-20.12c1.48-2.22 4.45-4.27 7.23-4.27 3.6 0 5.08 2.22 5.08 5.69V328h4.28v-20.17a9.6 9.6 0 0 1 7.3-4.22c3.53 0 5.06 2.22 5.06 5.69V328zm8.56 1.14h3.36l13.51-40.3h-3.36l-13.51 40.3zm27-1.14H877v-38h-4.15l-9.52 9.8 2.85 2.91 6.09-6.44V328zm13-5.42c2.84 3.76 7 6.11 13.39 6.11 7.64 0 13.51-4.8 13.51-12.55S906.39 304 900.06 304a12.85 12.85 0 0 0-8.89 3.42V294.2h18.53V290h-23.27v20.5l3.49 1.2a11.89 11.89 0 0 1 8.78-3.59c5.13 0 8.72 3.19 8.72 8.2 0 4.63-3.59 8.16-8.78 8.16a12.52 12.52 0 0 1-10.49-5l-2.9 3.13zM935 328h4.74v-9.64h5.36v-4.16h-5.36V290h-6.5l-16.3 24.46v3.92H935V328zm0-33.62v19.82h-13.33L935 294.38zM949.82 309c0 9.23 4.11 19.67 14.54 19.67S978.9 318.25 978.9 309s-4.17-19.61-14.54-19.61-14.54 10.34-14.54 19.61zm24.18 0c0 7.57-2.43 15.45-9.68 15.45s-9.69-7.88-9.69-15.45 2.45-15.4 9.69-15.4S974 301.44 974 309zm27.65 19h4.74v-9.64h5.36v-4.16h-5.36V290h-6.5l-16.3 24.46v3.92h18.06V328zm0-33.62v19.82h-13.29l13.33-19.82zm13.62 21.71H1029v-3.76h-13.69v3.76zm18.52 11.91h26.11v-4.22h-18.64c10.59-8.37 18.46-15.45 18.46-23.2 0-7.58-6.43-11.17-12.76-11.17-5.36 0-10.33 2.17-13.24 6l2.91 3a12.73 12.73 0 0 1 10.33-4.8c3.92 0 7.92 2.11 7.92 7 0 6.56-7.41 12.89-21.09 23.65V328zm33.34-19c0 9.23 4.11 19.67 14.53 19.67s14.55-10.44 14.55-19.67-4.17-19.61-14.55-19.61-14.53 10.32-14.53 19.61zm24.22 0c0 7.57-2.44 15.45-9.69 15.45S1072 316.59 1072 309s2.46-15.4 9.69-15.4 9.69 7.82 9.69 15.4zm17.9 19h4.75v-38h-4.15l-9.52 9.8 2.84 2.91 6.1-6.44V328zm19.32 0h4.74v-38h-4.16l-9.52 9.8 2.85 2.91 6.09-6.44V328zm10.89-11.91h13.69v-3.76h-13.69v3.76zM1165 328h4.74v-38h-4.16l-9.51 9.8 2.84 2.91 6.09-6.44V328zm12.09-19c0 9.23 4.11 19.67 14.53 19.67s14.55-10.44 14.55-19.67-4.17-19.61-14.55-19.61-14.53 10.32-14.53 19.61zm24.22 0c0 7.57-2.44 15.45-9.69 15.45s-9.68-7.88-9.68-15.45 2.45-15.4 9.68-15.4 9.69 7.82 9.69 15.4zm10.67 0c0 9.23 4.11 19.67 14.53 19.67S1241 318.25 1241 309s-4.17-19.61-14.54-19.61S1212 299.73 1212 309zm24.22 0c0 7.57-2.44 15.45-9.69 15.45s-9.69-7.88-9.69-15.45 2.45-15.4 9.69-15.4 9.69 7.82 9.69 15.4zm17.9 19h4.73v-38h-4.16l-9.51 9.8 2.84 2.91 6.1-6.44V328z" fill="#0054a6"/></svg>