<svg xmlns="http://www.w3.org/2000/svg" width="114.69" height="250"><defs><style>.cls-1{fill:#ed1c24;fill-rule:evenodd}</style></defs><path id="box" class="cls-1" d="M1812.28 2198.73l-81.88 8.48v-189.88l83.32-3.1zm-93.69-210.3l31.92-.89-1.71 8.61a1.782 1.782 0 0 0 .33 1.41c.1.14 8.57 10.99 21.61 10.99a26.121 26.121 0 0 0 12.04-3.08 1.8 1.8 0 0 0 .94-1.25l3.15-16.9v-.01a7.252 7.252 0 0 0 .09-.8l11.28-.32 14.25 24.54-82.75 3.08zm8.26 216.4l-20.69-21.14v-173.57l20.69 6.8v187.91zm-11.11-214.09l9.65 21.97-18.43-6.05zm66.48 2.31l-1.8 9.66c-14.86 7.04-25.56-3.91-27.96-6.69l1.6-8.1c2.72 3.11 7.46 5.66 13.26 6.74a29.276 29.276 0 0 0 5.4.51 20.276 20.276 0 0 0 9.5-2.12zm-9.51-1.42a25.7 25.7 0 0 1-4.75-.45c-6.14-1.14-12.46-4.88-12.82-8.75l.41-2.04c1.28-2.36 5.28-3.92 10.31-3.92a25.7 25.7 0 0 1 4.75.45c6.68 1.24 13.58 5.55 12.78 9.76-.53 2.9-4.93 4.95-10.68 4.95zm-55.03-20.51a4.531 4.531 0 0 1 1.26-3.44 7.135 7.135 0 0 1 4.59-1.57h.11c.6-.01 59.93-1.61 68.38-1.62h.01a4.9 4.9 0 0 1 3.7 1.3 5.9 5.9 0 0 1 1.32 3.91v.16l.4 12.82-11.09.31c-1.88-4.36-7.62-8.18-15.08-9.57a30.231 30.231 0 0 0-5.4-.5c-6.49 0-11.58 2.3-13.48 5.88-.03.05-.06.12-.09.16s-.05.08-.07.13a.417.417 0 0 0-.02.06 6.392 6.392 0 0 0-.52 1.62 7.956 7.956 0 0 0-.11 1.36l-.35 1.83-33.53.96zm99.6 41.26v-.05a1.583 1.583 0 0 0-.05-.38 2.308 2.308 0 0 0-.18-.42l-.08-.14a.01.01 0 0 0-.01-.01l-15.94-27.45-.43-14.08a9.449 9.449 0 0 0-2.26-6.43 8.308 8.308 0 0 0-6.29-2.42h-.01c-8.4.01-66.5 1.56-68.42 1.62a10.629 10.629 0 0 0-7.1 2.54 7.976 7.976 0 0 0-2.35 6.01v15.17l-11.31 20.53a.035.035 0 0 1-.01.02.257.257 0 0 0-.05.12 2.5 2.5 0 0 0-.09.25.585.585 0 0 0-.02.13.783.783 0 0 0-.04.26c0 .03-.01.05-.01.07v176.74a1.756 1.756 0 0 0 .51 1.24l24.24 24.76a.108.108 0 0 1 .04.05l.04.03a.444.444 0 0 0 .11.08.508.508 0 0 0 .13.09 1.29 1.29 0 0 0 .16.09.914.914 0 0 0 .14.07.83.83 0 0 0 .21.06.358.358 0 0 1 .11.04 1.953 1.953 0 0 0 .34.03 1.148 1.148 0 0 0 .18-.01l85.42-8.84a1.765 1.765 0 0 0 1.59-1.74l1.48-187.93a.215.215 0 0 1-.05-.1zm-45.41 58.09c-9.06 0-17.18-2.68-21.91-7.27a12.129 12.129 0 0 1-4.03-8.73c0-9.31 11.9-16.93 27.09-17.34 9.52-.26 18.21 2.45 23.16 7.26a12.108 12.108 0 0 1 4.03 8.72c0 9.32-11.9 16.94-27.09 17.34-.42.02-.84.02-1.25.02zm2.36-29.83c-.37 0-.74.01-1.11.02-12.82.34-23.65 6.67-23.65 13.81a8.655 8.655 0 0 0 2.96 6.19c4.21 4.1 12.12 6.44 20.59 6.27 12.82-.35 23.65-6.68 23.65-13.82a8.689 8.689 0 0 0-2.96-6.19c-4.03-3.91-11.42-6.28-19.48-6.28z" transform="translate(-1702.62 -1961)"/></svg>