<svg height="170" viewBox="0 0 145.34 170" width="145.34" xmlns="http://www.w3.org/2000/svg"><path d="m3343.99 2171.49a27.594 27.594 0 0 1 -15.87-4.95c-9.43-6.47-36.63-33.96-40.83-65.29-2.12-15.79 2.03-29.91 12.31-41.96.08-.08 13.73-13.99 30.57-13.99a28.613 28.613 0 0 1 3.08.16c8.02.82 10.68 1.91 12.83 2.79 2.29.94 4.08 1.66 13.35 1.69 9.27-.03 11.05-.75 13.31-1.67 2.16-.89 4.82-1.98 12.86-2.81a28.613 28.613 0 0 1 3.08-.16c16.74 0 30.32 13.72 30.45 13.86a51.919 51.919 0 0 1 12.43 42.1c-4.21 31.36-31.4 58.82-40.83 65.27a27.573 27.573 0 0 1 -15.86 4.96 34.08 34.08 0 0 1 -14.78-3.56l-.66-.33-.66.33a33.965 33.965 0 0 1 -14.78 3.56zm15.44-8.47a2.1 2.1 0 0 1 1.07.29 30.384 30.384 0 0 0 14.36 3.92 23.4 23.4 0 0 0 13.42-4.2c8.65-5.93 35.05-32.77 39.02-62.34a47.606 47.606 0 0 0 -11.33-38.66l-.44-.52h-.1c-2.58-2.36-13.82-11.96-26.71-11.96a26.073 26.073 0 0 0 -2.67.14c-7.44.78-9.68 1.69-11.65 2.5-3 1.23-5.5 1.98-14.97 2.01-9.48-.03-11.99-.78-14.99-2.01-1.96-.81-4.19-1.72-11.63-2.5-.9-.08-1.78-.13-2.65-.13h-.01c-14.06 0-26.01 11.26-27.33 12.55-9.46 11.09-13.22 24.03-11.27 38.58 3.95 29.51 30.35 56.39 39 62.34a23.487 23.487 0 0 0 13.44 4.2 30.564 30.564 0 0 0 14.35-3.91 2.106 2.106 0 0 1 1.09-.3zm.01-110.9a1.615 1.615 0 0 1 -.31-.02 2.14 2.14 0 0 1 -1.83-2.42c3.88-26.22-14.14-43.74-14.9-44.47a2.131 2.131 0 0 1 -.13-3.03 2.154 2.154 0 0 1 3.04-.12c.84.78 20.53 19.3 16.25 48.23a2.167 2.167 0 0 1 -2.12 1.83zm20.01-11.81c-6.35 0-13.19-1.66-20.34-4.94a2.128 2.128 0 0 1 -1.24-1.79 25.749 25.749 0 0 1 7.1-18.02c6.76-7.16 17.6-10.78 32.21-10.78a115.5 115.5 0 0 1 18.09 1.56 2.119 2.119 0 0 1 1.81 2.1c-.22 2.66-11.05 31.87-37.63 31.87zm17.64-31.27c-13.33 0-23.08 3.17-29 9.43a22.168 22.168 0 0 0 -5.81 12.49l-.13 1.11 1.04.42a43.038 43.038 0 0 0 16.25 3.56c18.8 0 28.48-16.84 31.76-24.09l.83-1.81-1.99-.25a106.225 106.225 0 0 0 -12.95-.86z" fill="#ed1c24" fill-rule="evenodd" transform="translate(-3286.75 -2001.5)"/></svg>