<svg xmlns="http://www.w3.org/2000/svg" viewBox="0 0 618.91 249.22"><path d="M174.38 85.5s73.79 4.06 60.32 83.44c-7.31 43.08-59 66.37-93.62 43.87-42.09-27.37-29-77.17-29-77.17s27.81-1.17 46.22-19.58 16.08-30.56 16.08-30.56z" fill="#ed1c24" fill-rule="evenodd"/><path d="M96.84 0C95.7 7.1 90.57 11.06 89 17.66c-1.14 4.8 2.21 9.65 2.62 13.08.74 6.13.29 14.86 3.93 20.28 2.13 3.19 5.87 3.51 7.19 7.85H97.5c-.67-.53-.18-.23-1.31-.65C88.91 51.61 80.53 20 89.65 9.16 92.48 5.8 91.28.5 96.84 0zm20.28 2c-.45 3.71-1.89 6.84-2.62 9.81-.91 3.74.08 10.89.29 16.47.28 7.41.07 13.41 1 18.2h-2v-1.35a24.63 24.63 0 0 1-3.7-12.24c.08-9.09-2.06-13.54.08-18.69 1.86-4.46 2.23-7.56 3.62-12.89h1.31c.76.49.67.39 2.02.69zM67.41 5.89c1.61.84.44-.28 1.3 1.31 4.93 6.35-1 13.49-2.61 18.31-1 3.19-.58 9.05-.65 11.78-.15 5 3.3 12.64 2 15-.67.53-.18.23-1.31.65-1.14-3.16-3.14-6.07-3.97-9.77l.66-21.58-.66-8.51c.83-3.14 3.62-4.78 5.24-7.19zM140 28.13l.66-5.24c-2.8-1.7-9.68-4.8-11.12-7.85-.79-1.38-.32-1.45 0-3.27 2-.58 1.93-1 4.58-1.3 10.16 5.14 6.55 5.72 9 7.1 1.4.78 3.52-.15 4.72.09.06 2.79.74 6.12 2.62 7.2 2.05 1.37 5.24 1.22 7.19 2.61 2.81 2 3.66 6.69 6.55 8.51 10.32 6.51 12.17 12.88 16.35 19.07a33.36 33.36 0 0 1 5.34 11.1c1.68 5.58 1.22 9.59 1.2 17.58a10.4 10.4 0 0 1-3.27.65c-1.64-1-5.52-1.3-7.2-2a83.91 83.91 0 0 1-3.9-12.38c-.84-3.29.17-6.49-1.31-9.16l-4.58-3.92-5.23-10.48c-.88-1.21-3-1.53-3.93-2.61l-2.61-8.51-5.23-2c-1.83-1.2-3.75-4.24-5.24-5.89a13.89 13.89 0 0 1-4.59.7zm89.63 91.57c8.26 1 14.29 9.85 16.35 17 0 1.53.69 3.51.69 5 .65 2 2.61 3.45 3.24 5.43v11.11c0 15.47-2.69 28.32-18.32 28.13l-.66-2c-1.68-2.13-2-6.06-2-9.81 10.24-5.82 14.71-12.38 10.47-26.82-1.12-3.82-.81-7.35-2.62-10.47-3.13-5.38-10.57-11.46-7.15-17.57z" fill="#004a2a" fill-rule="evenodd"/><path d="M216.54 107.27c-2.71-3.6-8.62-5.26-11.81-8.54-1.51-1.55-7.13-8.73-13.73-11.08-8.59-3.05-18.39-2.12-28.12-2-9 19.67-22.25 31.24-45.14 37.28-5.66 1.5-16.7 5.2-24.2 2.62q-.64 6.54-1.31 13.08c-2.13-.45-4.74-1.56-6.54-2-4.17-.93-8.68 1.58-13.08 0-1.4-.5-2.83-2.8-3.93-3.27h-5.85c-1.61-.45-4.28-2.18-5.89-2.62l-11.12-.65c-8.34-2.39-17.71-10-20.28-18.32s.71-18.21 2.62-24.2q.66-5.88 1.31-11.77A187.93 187.93 0 0 1 39.94 51c1.75-3.49 10.53-16.7 6.54-22.89l-.66-2c-9 1.64-6.63 7.13-10.46 13.09l-6.55 5.23c-1.48 2.79 1.27 4.84 0 8.5-.36 1.07-2.08 1.79-2.61 2.62l-3.27 9.81c-.22.44-1.75 1.39-2 2l-.66 7.85c-1.07 2.54-5.38 4.57-5.23 7.85.77 17-3.43 18.24-4.58 19.63.7-.85 1.21 12.87 4.58 17 .81 1.36 3.24 2 4.58 2.62-1.3 3.82.33 5.53 2.8 7.92 4.3 4.78 4.05 4.2 8.32 5.16 2.88.65 4.84 4.88 7.85 5.89h10.5c.55.17 2.07 1.78 2.62 2h9.16c4.42 1.37 7.19 3.43 14.39 3.27v.66h.65c-.08 4.26 1.78 9 0 13.08-2.62 6.05-14.44 12.61-21.43 14.54s-18.38-.32-23.7-1.46c-3.47-.74-8.74.65-10.58.39-4.37-.64-15.27-4.14-15.59-3-3.79 1.42-4.82 6.87-4.61 12.39a19.6 19.6 0 0 1 2.61 3.93c11.34 4.36 44.49-3.38 54.29-6.54 5.31-1.73 12.28-1.52 16.35-4.59a6.87 6.87 0 0 1 3.93 1.31c.48 2.52-.83 16.55.65 21.59.32 1.08-1.25 4.42-.65 6.54.8 2.81 4 5.48 4.58 8.5.39 2.23-1.56 4.22-2 5.89q.31 10.47.65 20.93c-7.89-.1-23.72-2.05-28.13 2a3 3 0 0 0-.65 2.62c.46 2.44 1 2.31 2 3.93 6.21-.12 10.72-3.52 17.66-2 3 .67 10.88 2.85 14.39.65l2-.65c.53-2.38 1.41-6 2-8.51 1.87-8.54-2.84-21.82 1.31-28.13.21-.65.43-1.3.65-2a107.73 107.73 0 0 1 23.55-2.61c2.33 2.2 5.35 5.39 7.85 7.19 2.7 1.95 6.65 2.5 8.5 5.23 2.06 3.05 1.21 7.26 2.62 11.12 1.66 4.6 6.1 10.54 2 15.7 2.4 6.48 20.52.78 28.13 2.62 3.47.84 7.66 1 9.81-.65l1.31-.66c0-4.13-.57-5-2-7.2-5.24.21-17.59 3.92-21.58 1.31-7.71-.4-5.47-10-8.51-15v-3.27c7.19-1.55 16.28.72 24.86-1.31 15.85-3.75 30.15-8.51 39.9-18.31h.66c1.36 5.81 3.78 10.29 3.92 17.65h.65v.66c3.89-.34 4.19-1.7 6.54-3.27.07-19.21-4.21-32.51-15-40.56-4.1-3-9.51-4.91-13.08-8.5H191c1.47-4.23 5.31-4.14 8.51-6.54a10.4 10.4 0 0 1 3.27.65c1.05 1.23-1 1.3-2 2 .21.65.43 1.3.65 2 1.13.42.64.13 1.31.65 7.18-.57 4.13-7.85 2-11.12-13.28-2.75-25.46 6.55-30.74 14.39-2.07 3.07-5.68 11.63-2 16.36 1 2.72 2.81 3.41 4.57 5.23 6.13-1.16 4.59-10.7 6.54-15.7a13.12 13.12 0 0 1 5.24-1.31c5.25 5.74 10.78 11.57 16.35 17-.56 3.1-2.33 2.71-3.27 4.58l.66 2.61c-2.22 5.22-9 6.26-13.74 9.16-2.67 1.64-5.4 4.8-8.5 5.89a90 90 0 0 1-10.47 2c-1.09-.2-4.43-1-6.54-.42-14.56 4.29-29.84-3.71-39.25-10.7-6.83-5.07-17.37-21.22-20.28-30.09l-3.27-17c-.08-5.17-1.68-16.62.66-20.27 3.06-1.92 9-.68 12.42-2 4.71-1.76 10.43-4.25 15.7-6.54 17.39-7.53 29.46-19.45 39.25-34.66 26.25-5.09 51.48 24.31 57.56 42.51 4 11.82-4.32 32-8.5 39.9 1 2 2.73 2.71 3.92 4.58l2-.65c1.88-4.67 1.79-10.4 3.28-15.7 1-3.67 2.31-7.73 3.23-11.08 4.75-17.33-6.38-38.38-13.02-47.22zM30.12 180.54c-3.36.08-9.6.76-11.77-.66-.5-.7-.41-.61-.66-2a120.55 120.55 0 0 1 13.09.65z" fill="#004a2a" fill-rule="evenodd"/><path d="M121.7 60.83h3.92a34.35 34.35 0 0 1 4.58 15.7c-2.11 1.24-2.85 1.9-6.54 2-2.3-3.62-2.93-7.47-4.58-15.7.92-1.54 1.41-1.03 2.62-2zM62.17 68c5.49 1.86 8 9.35 7.85 17a11.49 11.49 0 0 1-6.54 2c-2.76-4.49-4.32-8.74-4.58-17a19.66 19.66 0 0 0 3.27-2zm83.73 13.76c1.93.57 2.48.9 3.27 2.62 2 3.35-5.17 16.34-7.19 18.32-1.19 1.15-3.15 1-4.58 2-2.45 1.64-5.44 5.26-8.12 6.54-8.24 3.92-29 9-40.29 6.54-6.37-1.36-11.12 1.77-17 0-2.09-.63-4.38-3-6.54-3.27-8.45-1-22.22-2-24.86-9.16 1.33-.72 3-2.18 4.58-2.61 3.7 0 6.72.23 10.43.23 3-1 7.49-3.89 11.15-4.81h6.54c3.37-.86 6-2 11.12-2h10.47c5.37-1.27 12.4-.94 18.31-2.61 3-.84 6.86-3 9.82-3.93l11.12-.62c3.81-1.06 9.24-4.59 11.77-7.24z" fill="#004a2a" fill-rule="evenodd"/><path fill="#ed1c24" d="M455.8 93.43L455 94.41 445.41 105.91 444.1 107.3 439.62 112.26 438.42 113.67 434.6 119.05 433.39 120.57 429.26 125.56 427.94 127.08 423.69 132.06 422.38 133.46 418.01 138.43 417.46 139.31 416.53 148.73 416.37 155.05 416.07 156.9 414.99 163.14 414.8 165 414.79 169.93 414.74 171.56 414.3 172.46 413.79 172.88 412.72 173.01 405.05 172.25 391.49 170.44 391.06 170.05 390.94 168.86 392.35 154.56 392.42 152.69 392.57 146.36 392.64 144.49 393.73 138.26 393.6 137.19 392.86 136.29 390.27 130.41 389.39 128.67 386.18 123.07 385.3 121.34 382.48 115.43 381.71 113.71 374.79 100.58 374.01 98.86 371.07 93.05 370.3 91.33 367.48 85.42 367.23 84.33 367.4 83.76 368.15 83.37 383.73 84.91 385.58 85.21 392.29 86.22 393.55 86.47 393.99 86.86 396.78 93.01 397.56 94.61 400.54 100.19 401.32 101.79 403.81 107.44 404.7 109.17 407.35 114.48 408.06 115.6 408.73 115.91 409.62 115.17 413.08 109.88 414.28 108.47 418.39 103.71 419.58 102.3 423.03 97.12 424.12 95.59 427.9 90.56 428.95 89.49 429.9 89.35 431.17 89.59 436.95 90.51 438.81 90.69 445.59 91.01 447.45 91.2 454.03 92.32 455.4 92.69 455.96 92.97 455.8 93.43z"/><path fill="#ed1c24" d="M512.97 187.97L512.66 189.78 511.56 195.86 511.33 196.98 510.79 197.73 510.17 198.13 495.25 197.01 493.43 196.81 487.46 195.72 485.63 195.65 479.68 195.48 477.85 195.4 470.01 194.57 464.16 193.49 462.34 193.3 452.51 192.83 448.68 192.2 447.34 191.83 446.6 191.18 446.35 190.34 446.25 189.07 446.3 186.44 446.38 184.61 446.67 182.92 446.85 181.21 447.94 175.24 448.13 173.42 448.88 167.42 448.96 165.59 449.26 159.53 449.34 157.71 450.21 151.59 451.23 141.94 452.32 135.97 452.4 134.14 452.7 128.09 452.77 126.26 453.06 123.53 453.65 120.15 453.83 118.45 454.8 112.58 455.08 111 455.51 110.13 456.13 109.73 457.05 109.72 458.55 109.64 465.88 110.88 472.82 111.5 474.64 111.69 481.41 112.86 483.22 113.06 490.08 113.32 491.9 113.52 507.32 115.38 509.26 115.47 513.16 115.53 516 115.83 517.55 116.34 518.18 116.98 518.32 117.8 518.39 119.3 518.07 122.37 517.54 125.18 517.34 127.11 517.15 129.97 517.08 131.68 516.79 133.37 516.42 134.71 515.88 135.46 515.26 135.85 513.88 135.93 512.97 135.84 511.14 135.76 500.49 134.4 498.67 134.21 492.86 133.83 491.04 133.63 485.16 132.78 480.08 131.9 478.38 131.72 477.46 131.74 476.3 131.85 475.67 132.36 475.49 133.02 475.13 134.25 474.61 136.95 474.42 138.77 474.33 140.71 474.31 141.97 474.45 142.79 474.85 143.41 476.06 143.88 479.67 144.49 483.33 144.65 494.12 145.79 506.91 146.45 510.4 147.05 511.63 147.41 512.25 148.05 512.52 148.76 512.5 150.03 512.52 151.98 512.43 153.92 512.04 157.67 511.99 160.31 511.4 163.69 511.03 165.03 510.49 165.78 509.64 166.26 508.48 166.37 506.21 166.13 501.16 165.02 499.35 164.71 490.21 164.32 482.96 163.33 481.15 163.13 476.64 162.31 474.7 162.22 473.32 162.19 472.72 162.47 472.29 163.23 472 164.92 471.36 167.72 471.05 169.53 470.79 172.03 470.78 173.18 471.04 174.01 471.45 174.51 472.68 174.75 478.9 175.64 480.72 175.84 486.9 176.03 494.92 177.34 496.74 177.53 504.85 177.93 506.55 178.11 508.24 178.4 512.28 179.29 512.92 179.7 513.31 180.43 513.29 181.69 512.97 187.97z"/><path d="M618.44 180.25l.47 1.57-.69 1.31-1.21.68-1.46.35-1.59.13h-4.35l-5.12.42-7 1-1.52-.34-.76-.85-.67-1.21-4.31-9.27-.9-1.07-1-.14h-1.43l-6.9.17-1.82.15-8.55.48-6.84.45-1.71.14-1.7.25-5.23.43-1.46.35-.87.64-.57 1.43-2 7.95-.53 1.88-1.13 1.58-1.65.82h-1.83l-6.63.2-1.82.15-7 1-1.47.23-1.42-.57-1-1.17V188l.16-.93.53-1.88 1.3-3.66.54-1.76 2.33-6.61.55-1.65 2.43-6.62.54-1.76 2.12-6.36.54-1.76 2.55-6.63.55-1.65 3.33-9.67 2.62-7.09.65-1.89 2.08-5.32.65-1.89 1.73-5.41.54-1.77 1.67-4.83.47-1.3 1.08-.78 1.68-.48 5.21-.66 8.88-.73 5.24-.32 2 .19 1.32.81.69 1.43 2 4.31.83 1.65 3.28 5.11.81 1.54 3 5.37.81 1.54 2.53 5.63.81 1.54 3 5.26.81 1.53 3 5.37.82 1.54 2.74 5.5.82 1.54 4.1 6.77 3.17 5.12.93 1.53 3.66 6.92zm-40.65-29l-.58-1.44-3.14-7.53-.71-1.66-2.83-6.53-.69-1.43-1.2-.71-1.51-.22-1.22.45-1 1.23-2.44 8-.54 1.77-2.33 7.87-.2 1.73.45 1.34 1.3.46 1.61.1 7.17-.59 5.38-.1 1.44-.57.84-1zm-207.62 6.6l-1.67-7-1-5-2.66-11.13-1.37-7.81-.6-2-.34-.92-.76-1.57-.4-.65-1-.28-1.86.07-1 .11-1.87.57-4.59 1.76-1.9.46-9.61 1.67-7.62 2.2-5.44 1.3-2 .6-2.87 1.07-1.37.57-.45.74V134l.59 2.48.66 1.72 1.09 3.5.59 3 .57 1.86.35.92.57 1.37.62.47.77.07 4.19-.25 1.93-.34 2.72-.65 1.87-.57 2.64-1 1.86-.57 2.84-.68 1.36-.07.65.6.48 2 1.09 3.49.42 1.78.14 1.1.31 1.3-.19.79-1 1.12-1.58 1.25-1.72 1.16-6 3.07-1.69.78-1.84.69-1.9.46-2 .36-2.07.24h-3.75l-1.94-.29-2.69-.74-1.82-.81-2.61-1.51-1.61-1.1-1.93-1.79-1.22-1.46-1.87-2.56-1-1.76-1.25-2.58-.8-1.81-.92-2.78-.48-2-.37-2-.1-2-.13-3.72v-1.89l.14-2 .29-1.94.55-1.89.7-1.79.81-1.83 1-1.61 1.25-1.55 1.28-1.44 3.16-2.6 1.78-.92 3-1 1.86-.57.83-.2 5.65-1 2.1-.13h2.13l2.06.26 2.09.38 1.89.55 1.81.63 1.79.69 1.5.52.92-.34.6-.65.77-.94 1.08-1.26 1.14-1.52 1.68-2.4L350 106l.87-1.59.7-1.8.45-1.23.16-.91-.2-.83-.91-.66-.85-.42-1.53-.64-.73-.45-1.53-.64-1.5-.51-.68-.22-1.79-.69-2-.64-4.78-1.12-1.92-.16-2.8-.21h-1.89l-2.72.15h-1.74l-2.81.3-1.8.27-2.67.39-1.86.57-2.67.89-1.8.65-1.69.78-3.31 1.29-4.21 1.76-1.79.93-1.87 1.07-1.81 1.31-1.52 1.49-3.37 3.19-1.2 1.29-1.13 1.39-1.26 1.55-1.84 2.53a7 7 0 0 1 3.18 2.79 6.74 6.74 0 0 1 0 7.23 7.42 7.42 0 0 1-3.57 13.56c.16.21.31.43.46.66a7.44 7.44 0 0 1-2.48 10.22 7.53 7.53 0 0 1-3.53 1.08l.34 1.42.54 1.74.69 1.84 1.1 2.49.69 1.84.84 1.93.81 1.81 1.07 1.87 1.05 1.75 1.25 1.58 1.28 1.7 4.24 4.62 1.46 1.4 1.73 1.47 1.52 1.13 2.35 1.45 1.59.87 1.67.73 1.71.84 1.79.7 1.68.72 2.68.74 1.74.46 2.56.26 1.92.17h1.89l4.43.19 1.89.05 2-.1 2-.22 2.78-.41 3.73-.64 1.75-.55 4.59-1.72L345 182l1.61-.64 2.63-1 1.7-.78 1.81-.81 1.66-.9 2.53-1.48 1.51-1 1.61-1.14 2.08-1.75 1.32-1.31.71-.67 1.29-1.44.54-.88 1.11-1.64 1.53-2.5.69-1.79.58-1.77.43-1.35z" fill="#ed1c24"/><path d="M291.13 73.17c11.57 1.54 19.7 12.16 19.7 12.16s-10.83 9.8-22.41 8.27S269 79.77 269 79.77s10.61-8.13 22.18-6.6" fill="#004a2a"/></svg>