<svg xmlns="http://www.w3.org/2000/svg" viewBox="0 0 64.78 56.69"><path d="M16.43 55.1c2.44 2.35 8.34 2.23 10.9-1.25a8.35 8.35 0 0 0-.65-10.57c-2.44-2.75-6.14-5.59-6.8-8.69s.35-5.87 2.09-8.89 4.83-7.13 2.76-11-7.84-5.31-13.17-2.7-7.51 5.9-7.67 9.55 2.51 10 5.19 14.29S12 43.81 12.84 47s.87 5.48 3.59 8.11M1.11 12.87c1-.33 2.14.51 2.6 1.89s.06 2.75-.91 3.08S.66 17.32.19 16s0-2.75.92-3.08m3.32-5.3c1.1-.3 2.33.72 2.75 2.27s-.13 3-1.23 3.35S3.62 12.52 3.2 11s.13-3.05 1.23-3.35m4.86-3.91c1.26-.22 2.52 1 2.83 2.81s-.46 3.38-1.71 3.6-2.53-1-2.83-2.81S8 4 9.29 3.74m6.06-1.97C16.7 1.6 18 3 18.24 4.91s-.66 3.6-2 3.77-2.65-1.23-2.89-3.14.65-3.54 2-3.77M23.05 0c1.87 0 3.38 2.15 3.37 4.78S24.89 9.55 23 9.54s-3.35-2.14-3.35-4.78S21.18 0 23.05 0m25.3 55.1c-2.44 2.35-8.34 2.23-10.9-1.25a8.34 8.34 0 0 1 .65-10.57c2.44-2.75 6.14-5.59 6.8-8.69s-.35-5.87-2.09-8.89-4.83-7.13-2.76-11 7.84-5.31 13.17-2.7 7.51 5.93 7.67 9.58-2.51 10-5.19 14.29-2.91 8-3.76 11.15-.87 5.48-3.59 8.11m15.32-42.26c-1-.33-2.14.51-2.6 1.89s-.07 2.75.93 3.08 2.14-.52 2.61-1.89 0-2.75-.92-3.08m-3.34-5.25c-1.1-.3-2.33.72-2.75 2.27s.13 3 1.23 3.35 2.33-.72 2.75-2.27-.13-3.05-1.23-3.35m-4.86-3.88c-1.26-.22-2.53 1-2.83 2.81s.46 3.38 1.71 3.6 2.52-1 2.83-2.81-.46-3.34-1.71-3.6m-6.06-1.97C48.08 1.6 46.79 3 46.54 4.91s.66 3.6 2 3.77 2.65-1.23 2.89-3.14-.66-3.59-2-3.77M41.73 0c-1.87 0-3.38 2.15-3.37 4.78s1.53 4.77 3.4 4.76 3.37-2.14 3.36-4.78S43.6 0 41.73 0" fill="#29703d"/></svg>
