<svg xmlns="http://www.w3.org/2000/svg" viewBox="0 0 50.13 65.2"><path d="M23.89,23.72a22.89,22.89,0,0,0-3.34-11.11,2.83,2.83,0,0,1,2.64-2c1,.7,2.06,4.69,2.26,8.35,1.13-1,1.93-1.59,2.27-1.95s.76-1.1.86-3.55,0-5.38,4.68-9.48A17.08,17.08,0,0,1,50.13,1c-1.29,2.71-1.9,3.5-2.64,6.49S45.4,13.25,42,16.7s-8.16,2.54-10.33,1.81-2.94-.77-3.37-.34-1.73,1.59-2.63,2.43c.07,1.15.05,2.24,0,3.25.94-.22,6-3.21,10.11-3.21,1.42,0,14.31,1.34,14.31,18.06,0,13.88-8.89,26.5-15.35,26.5-5.26,0-7-1.38-9.33-1.38S20.34,65.2,15.6,65.2C10.23,65.2,0,52.32,0,39.41,0,24.7,10.75,20.56,14.52,20.56s7.5,3.16,9.37,3.16" fill="#29703d"/></svg>
