<svg viewBox="0 0 59.51 56.69" xmlns="http://www.w3.org/2000/svg"><g fill="#29703d"><path d="m48.94 32.7v-10.33h-8.86v10.33h-10.33v8.86h10.33v10.33h8.86v-10.33h10.33v-8.86z"/><path d="m29.75 48.66c-14.64-10.88-22.45-20.66-23.24-29.26v-2.84c.64-6.81 4.82-9.68 7.49-9.94.74-.07 1.43-.11 2.07-.11 3.87 0 5.48 1.18 8.68 5l5 5.95 5-5.95c3.19-3.81 4.81-5 8.68-5 .63 0 1.32 0 2.06.11 2.69.26 6.88 3.13 7.52 9.94v2.84a1 1 0 0 0 0 .16l.35 6.64h4.72a25 25 0 0 0 1.46-6.52v-3.41c-.86-10.22-7.6-15.56-13.42-16.13-1-.09-1.86-.14-2.7-.14-6.74 0-10 2.91-13.67 7.32-3.7-4.41-6.93-7.32-13.66-7.32-.85 0-1.74.05-2.7.14-5.83.57-12.57 5.91-13.39 16.13v3.41c.76 9.79 8.15 21.86 29.75 37 2.47-1.73 4.74-3.42 6.84-5.07v-4.4h-4.94c-.63.48-1.25 1-1.9 1.44"/></g></svg>
