<svg xmlns="http://www.w3.org/2000/svg" viewBox="0 0 425.2 283.46"><path d="M146.05 220.6v6.4c0 .53-.35.8-.87.94v.43h5.57V228a1 1 0 0 1-.82-.94V211.9a1 1 0 0 1 .82-.94v-.43h-5.57v.47c.52.13.87.4.87.94v5.76h-10.34v-5.8c0-.54.35-.81.86-.94v-.43H131v.47a1 1 0 0 1 .82.94V227a1 1 0 0 1-.82.94v.43h5.56V228c-.51-.14-.86-.41-.86-.94v-6.46zm26.22-10.07H167v.47a1 1 0 0 1 .82 1v9.3c0 3.53-1.69 4.44-5.08 4.44-1.48 0-3.21-.21-4.28-1.34a4 4 0 0 1-.81-2.94V212a1 1 0 0 1 .83-1v-.43h-5.57v.43a1 1 0 0 1 .83 1v10c0 5.77 3.91 6.81 8.83 6.81s8.84-1.07 8.84-6.81v-10a1 1 0 0 1 .86-1v-.43zm6.54 5.63l10 10.35c.27.26.64.58.64 1a.57.57 0 0 1-.52.48v.43h5.59V228c-.49-.14-.83-.41-.83-.94V211.9a.94.94 0 0 1 .83-.94v-.43h-5.25v.47c.51.13.86.4.86.94v10.61l-9.86-10.26a1 1 0 0 1-.35-.71c0-.34.27-.5.56-.58v-.43h-6.07v.43a1 1 0 0 1 .83.94V227c0 .53-.35.8-.83.94v.43h5.24V228a1 1 0 0 1-.82-.94v-10.9zM213 222v2.43a11.2 11.2 0 0 1-5.49 1.26c-3.75 0-6.83-2.2-6.83-6.19a6.26 6.26 0 0 1 6.56-6.2c1.63 0 5.88.57 6 2.53l.37.18 2.09-4.28-.37-.19a.94.94 0 0 1-.63.3 5 5 0 0 1-1.7-.51 15.59 15.59 0 0 0-5.82-1.07c-5.61 0-10.48 3.21-10.48 9.24s4.89 9.24 10.57 9.24a19.76 19.76 0 0 0 9.77-2.89v-.35c-.48-.14-.83-.4-.83-.94v-3.67a1 1 0 0 1 .83-1v-.4h-8.46c-.56 0-.8-.36-.94-.86h-.43v4.18h.43c.14-.51.38-.85.94-.85zm22.12-16.16h-3.86v.35c.19 0 .39.08.39.29a17.74 17.74 0 0 0-.73 2.28.59.59 0 0 1-.62.49v.34h2.63v-.34c-.19 0-.32-.09-.32-.27a.27.27 0 0 1 .07-.17l1.77-2.25a.81.81 0 0 1 .67-.37v-.35zm-1.39 18l1.23 2.51a1.73 1.73 0 0 1 .25.89c0 .46-.46.67-.86.72v.43h6.55V228c-.88-.16-1.23-.85-1.6-1.61l-6.83-13.77a2.63 2.63 0 0 1-.24-.86c0-.42.4-.67.78-.77v-.43h-6.32v.44a.94.94 0 0 1 .75.91 2.15 2.15 0 0 1-.32 1l-6.56 13.74c-.34.73-.59 1.21-1.41 1.37v.43H225V228c-.37-.11-.85-.32-.85-.8a2.28 2.28 0 0 1 .23-.81l1.21-2.51zm-1.12-2.44h-5.83l2.93-6.38 2.9 6.38zm15.16-.29h4.79l3.58 5.25c.22.3.62.76.62 1.13 0 .29-.4.43-.65.45v.43h6.46V228c-1.15-.07-1.8-1.2-2.38-2.06l-3.48-5c2.81-.43 4.84-1.92 4.84-5 0-4.68-3.5-5.44-7.33-5.44h-11.17v.5c.49.13.84.4.84.94V227c0 .53-.35.8-.84.94v.43h5.57V228c-.5-.14-.85-.41-.85-.94v-5.92zm0-2.94v-4.69h6c1.77 0 3.86 0 3.86 2.36s-2.14 2.33-3.86 2.33zm22.52 9.83c-.51-.14-.86-.41-.86-.94V211.9c0-.54.35-.81.86-.94v-.43h-5.57v.47a.94.94 0 0 1 .83.94V227c0 .53-.34.8-.83.94v.43h5.57V228zm16.71-4.15l1.23 2.51a1.73 1.73 0 0 1 .25.89.87.87 0 0 1-.86.72v.43h6.55v-.4c-.88-.16-1.23-.85-1.6-1.61l-6.82-13.77a2.25 2.25 0 0 1-.26-.86c0-.42.41-.67.79-.77v-.43H280v.44a.94.94 0 0 1 .75.91 2.15 2.15 0 0 1-.32 1l-6.56 13.74c-.35.73-.59 1.21-1.43 1.37v.43h5.9V228c-.37-.11-.86-.32-.86-.8a2.3 2.3 0 0 1 .24-.81l1.21-2.51zm-1.12-2.44h-5.84L283 215l2.9 6.38zM91.46 187.56a5.1 5.1 0 0 0 3.17-4.9c0-5-4-6.15-8.1-6.15H70.87v.56a1.24 1.24 0 0 1 1.13 1.21v19.64c0 .69-.46 1-1.08 1.22v.55h15.8c4.37 0 8.72-1.63 8.72-6.7a5.55 5.55 0 0 0-3.93-5.43zM77 185.72v-5.38h8.89c2 0 3.72.34 3.72 2.71s-1.78 2.67-3.72 2.67zm0 10.15v-6.32h8.6c2.21 0 4.65.38 4.65 3.16s-2.4 3.16-4.65 3.16zm28.39 3.27c-.66-.18-1.11-.53-1.11-1.22v-19.64c0-.69.45-1 1.11-1.21v-.56h-7.22v.56a1.24 1.24 0 0 1 1.08 1.21v19.64c0 .69-.46 1-1.08 1.22v.55h7.22v-.55zm29.38-11.02a11.89 11.89 0 0 0-6.28-10.53 15.33 15.33 0 0 0-7-1.46c-7.19 0-13.3 4.31-13.3 12a11.91 11.91 0 0 0 6.32 10.54 15.13 15.13 0 0 0 7 1.45c7.15 0 13.3-4.38 13.3-12zm-5.18 0a8.13 8.13 0 1 1-8.12-8 7.82 7.82 0 0 1 8.12 8zm17.59.76l6.84 8.38c.28.35.79.77.79 1.29s-.58.52-.89.59v.55H163v-.55c-1.45-.21-2.28-1.43-3.19-2.47l-8.92-10.74 7.88-6.36c1-.83 2.36-2.3 3.65-2.5v-.56h-9.52v.56c.42.07 1 .2 1 .73 0 .34-.42.63-.66.79l-9.55 7.79v-8.1c0-.69.45-1 1.11-1.21v-.56h-7.22v.56a1.23 1.23 0 0 1 1.07 1.21v19.64a1.24 1.24 0 0 1-1.07 1.22v.55h7.22v-.55c-.66-.18-1.11-.53-1.11-1.22v-6.22l3.51-2.82zm45.18-.76a11.9 11.9 0 0 0-6.29-10.53 15.26 15.26 0 0 0-7-1.46c-7.19 0-13.3 4.31-13.3 12a11.91 11.91 0 0 0 6.32 10.54 15.13 15.13 0 0 0 7 1.45c7.15 0 13.3-4.38 13.3-12zm-5.18 0a8.12 8.12 0 1 1-8.12-8 7.82 7.82 0 0 1 8.12 8zm13.69-4.31l13 13.42c.35.34.84.76.84 1.25a.8.8 0 0 1-.7.63v.55h7.25v-.55a1.24 1.24 0 0 1-1.07-1.22v-19.61a1.23 1.23 0 0 1 1.07-1.21v-.56h-6.8v.56c.66.17 1.11.52 1.11 1.21V192l-12.78-13.3a1.29 1.29 0 0 1-.45-.91c0-.45.35-.65.73-.76v-.56h-7.89v.56c.63.17 1.08.52 1.08 1.21v19.64c0 .69-.45 1-1.08 1.22v.55H202v-.55c-.62-.18-1.08-.53-1.08-1.22v-14.07zm37.13-3.47h7.19c.73 0 1.05.45 1.22 1.07h.59v-6h-.55c-.17.61-.49 1.07-1.22 1.07h-19.45c-.73 0-1-.46-1.21-1.07H224v6h.56c.17-.62.48-1.07 1.21-1.07H233v17.58a1.24 1.24 0 0 1-1.07 1.22v.55h7.19v-.55c-.63-.18-1.08-.48-1.08-1.22v-17.58zm17.86 9.9h6.22l4.65 6.81c.28.38.8 1 .8 1.46 0 .38-.52.55-.84.59v.55h8.37v-.55c-1.49-.1-2.32-1.57-3.09-2.68l-4.51-6.42c3.64-.55 6.29-2.5 6.29-6.46 0-6.09-4.55-7.06-9.52-7.06h-14.49v.56c.63.17 1.09.52 1.09 1.21v19.64c0 .69-.46 1-1.09 1.22v.55H257v-.55c-.67-.18-1.12-.53-1.12-1.22v-7.68zm0-3.83v-6.07h7.85c2.29 0 5 0 5 3s-2.78 3-5 3zm48.59 1.71a11.9 11.9 0 0 0-6.29-10.53 15.24 15.24 0 0 0-7-1.46c-7.19 0-13.3 4.31-13.3 12a11.9 11.9 0 0 0 6.31 10.54 15.2 15.2 0 0 0 7 1.45c7.16 0 13.3-4.38 13.3-12zm-5.18 0a8.13 8.13 0 1 1-8.12-8 7.82 7.82 0 0 1 8.12 8zm14.08 7.75v-17.59c0-.73.45-1 1.11-1.21v-.56h-7.22v.56c.62.17 1.07.48 1.07 1.21v19.64a1.24 1.24 0 0 1-1.07 1.22v.55h20.38a1.24 1.24 0 0 1 1.21 1.08h.56v-6h-.56c-.17.66-.52 1.11-1.21 1.11zm24.94 0v-17.59c0-.73.45-1 1.11-1.21v-.56h-7.22v.56c.61.17 1.07.48 1.07 1.21v19.64a1.25 1.25 0 0 1-1.07 1.22v.55h20.38a1.24 1.24 0 0 1 1.21 1.08h.56v-6h-.56c-.17.66-.52 1.11-1.21 1.11z" fill="#008643"/><path d="M143.59 141.54c12.77-4.44 13.67-11.2 17.58-12 1-.18 1.45.76 2.23 1.26a6.08 6.08 0 0 1 1.27 2c.3 1.75-2.34 3.29-3.45 4.57-2.23 2.63-6 4.19-11 5.78-4.81 1.55-8.14-1.15-6.66-1.67zm20.54 18.33c1.14-4.94-1.71-4.51 2.4-8.54 2.27-2.2 4.75-5 8.52-5 1.22 8.51-.3 13.41-10.92 13.5zM213.8 14.43c1.07.85 1.7.86 2.09 2.38.78 3.08 0 6.88.3 10.43s2.44 10.72 1.48 14.59c-.24 1-1.3 1-2.08 1.49a6.22 6.22 0 0 1-2.38.3c-1.7-.47-2-3.52-2.68-5.06-1.43-3.14-3.63-7-3-12.22a20.12 20.12 0 0 1 6.24-11.91zm32.44 8.34c1.74 6.72.73 30.12-7.74 28.59-1-.2-2.17-2.12-2.68-3-5.26-9 6.57-22 10.42-25.61zm-74.39 1.79c4 3.13 6.72 4.69 8.63 10.12 1 3 2.49 6.41.89 9.83-8.22-2.51-13.92-10.28-9.52-19.95zm-15.77 26.5a25.63 25.63 0 0 1 12.5 8 21.94 21.94 0 0 1 2.67 3.58c-5.53 5.05-18-3.69-15.17-11.62zm124.08.6c1.7-.17.08 2.42-.3 3-3.74 5.56-11.49 14.42-20.23 12.8-.23-2.91 1-4.29 3.27-6.25a26.73 26.73 0 0 1 4.76-3.28c1.17-.68 12.2-6.23 12.5-6.25zm-136 27.4c9.33-2 12.91 6.58 4.47 8.63-8.18 2-10.2-7.44-4.47-8.63zm134.5 8.63c3.93-.4 4.77 1.5 6.25 3.58.39.54 2.13 3.65 2.68 3.87s-1.76 2.34-1.79 2.38c-4.72 4.43-11.8 3.72-14.58-2.38-.81-1.79-.21-2.5.9-3.87a9.46 9.46 0 0 1 6.54-3.58zm-22.43 22.1c-1.42-.69-2.63-3-2.63-3-3.6-20.65-15.4-46.17-42.77-46.5-2.28 0-3.66-.78-5.65-.59-6.08.55-14 4.78-18.45 7.74-8.45 5.53-14.34 14.18-17.85 24.72a34.53 34.53 0 0 0-1.79 6.55 6.53 6.53 0 0 0-1.49.3c-3.85-28.44 19.81-46.52 43.4-49.44 26-3.23 47.06 20.72 50 41.1 1.24 8.65-2.79 19.12-2.79 19.12z" fill="#d71920" fill-rule="evenodd"/><path d="M244.11 105.65c1.47.65 3.92 3 5.5 3.38a33.89 33.89 0 0 0 4.33 2.79c2.83 2.06 5.7 5.05 8.88 5.72s10.3-1.32 12.58-1.85c4.75-1.14 9.37-1.5 14.28-2.69 2.17-.52 3.55-2 5.95-2.68-.17 3-.67 6.65-2.08 9.24-2.7 4.94-6.11 9.78-8.93 14.59-3.66 6.25-7.82 13-13.39 17.28-2.65 2-6.28 2.63-9.22 4.46-4.21 2.62-8 6.19-12.8 8.34-11.38 5.1-20.31 8.42-35.41 4.77-26.61-6.47-33.78-22.62-46.11-42.89-1.75-2.86-4.74-5-6.55-7.74-1.16-1.72-1.75-3.8-3-5.37-2.46.65-4.82 1.87-7.14 2.09-4.13.38-9.71-1.21-13.39-.89s-7.14 1.49-11.9 1.49l-.3-2.38c3-4.9 7.43-6.27 14.29-7.45 5.22-.91 11.5-.75 15.17 1.49 1.14.7 2 2.49 3.27 3 2.3.89 6.05-.81 8.63.6 7.07 3.87 10.41 11.88 14.58 18.77s11.57 17.55 17.85 22c29.73 21.16 70.2-5.31 83.32-26.2v-1.79c-2.72.87-5.3 2-8 2.68-4.93 1.29-9 3.5-14 3.87-3.42.25-12-.4-14.29.3-.69.19-.26 1.34-.3 1.49 2.07 1.41 16.25 12.1 8.33 12.8a26.73 26.73 0 0 1-5.06 0 13.28 13.28 0 0 1-4.76-2.08 26.87 26.87 0 0 1-2.38-1.49c-2.18-1.62-5-4.16-5.94-6.85-.64-1.73 0-3.93-1.5-4.76-2.34-1.35-6-1.05-8.63-1.79-3.58-1-13-5.85-15.77-6s.54 3.79.9 4.47a145.15 145.15 0 0 0 9.22 15.19c1.24 1.81 9.44 12.17-.89 8-8-3.2-18-18.72-15.18-30.08a68.79 68.79 0 0 1-5.35-4.47c6.8 1.74 11.43 5.88 18.74 7.15 3.9.67 7.43-.34 11-.6 8.56-.64 17.25-1.48 25.59-1.48v-.6c.28.24-.24-.64-.6-.89a50.11 50.11 0 0 0-8.32-4.77c-3.82-1.91-10-6.86-16.37-5.36-1.25.29-2.07 2-3.27 2.38a47.14 47.14 0 0 1-15.16 2.16c-2.3-5.08 5.41-7 10.12-8-1.28-1.17.23-.81-2.08-1.79-6.73-2.84-19.33-3.69-28-2.09-4.15.77-9.44 3-12.49.9 2-3.57 4.61-4.34 8.92-5.66 22.53-6.92 40.71 2 57.09 9.32z" fill="#008643"/><path d="M236.28 240.28c-1.38 1.16-1.39 1.86-3.86 2.28-5 .86-11.14 0-16.89.32-6 .3-17.36 2.68-23.64 1.63-1.55-.26-1.6-1.42-2.41-2.28 0 0-.81-1.76-.48-2.6.75-1.86 5.7-2.16 8.21-2.93 5.07-1.57 11.4-4 19.77-3.25a39.38 39.38 0 0 1 19.3 6.83z" fill="#d71920" fill-rule="evenodd"/></svg>