<svg enable-background="new 0 0 591 590.989" height="590.989" viewBox="0 0 591 590.989" width="591" xmlns="http://www.w3.org/2000/svg"><path d="m591 295.509c0-163.249-132.343-295.509-295.541-295.509-163.137 0-295.459 132.26-295.459 295.509 0 163.179 132.322 295.48 295.459 295.48 163.198 0 295.541-132.301 295.541-295.48z" fill="#01b5e2"/><g fill="#fff"><path d="m238.502 360.428h-20.238c-2.903 0-4.512-1.281-4.512-3.93v-69.5c0-11.594-6.28-20.249-19.973-20.249-12.664 0-20.278 9.185-20.278 20.779v68.687c0 2.932-1.568 4.213-4.195 4.213h-20.553c-2.881 0-4.195-1.281-4.195-3.93.275-43.164.275-78.957 0-159.492 0-2.901 1.314-4.194 3.93-4.194h20.503c2.412 0 4.286 1.293 4.286 4.194v49.72c0 2.363 1.516 3.168 4.459 1.293 6.321-4.195 15.534-6.29 22.599-6.29 29.247 0 42.402 18.954 42.402 45.269v69.217c0 2.932-1.589 4.213-4.235 4.213z"/><path d="m357.975 319.341c0 23.72-15.535 43.186-43.673 43.186-9.456 0-17.377-3.115-21.032-5.803-3.186-2.098-4.478-1.304-4.478.773v46.095c0 2.851-1.854 4.195-4.237 4.195h-20.238c-2.9 0-4.457-1.345-4.457-3.931v-156.06c0-2.414 1.557-3.972 4.184-3.972h19.78c2.289 0 3.898 1.558 3.898 3.707v2.097c0 1.068.753 2.667 2.892 1.068 5.823-4.234 13.956-8.429 25.501-8.429 28.444 0 41.86 19.485 41.86 45.261zm-28.668-31.549c0-11.583-7.126-20.238-20.258-20.238-11.859 0-20.574 8.92-20.257 19.974v29.737c0 11.321 7.889 20.502 19.992 20.502 14.477 0 20.523-8.958 20.523-20.502z"/><path d="m414.557 361.773c-18.183 0-37.605-5.864-46.606-23.782-1.017-2.057-1.303-4.418 1.08-5.761l14.722-8.062c2.889-1.648 4.234-1.387 6.046.975 7.105 8.961 15.271 13.154 25.531 13.154 7.106 0 15.495-3.93 15.495-11.014 0-6.109-4.399-9.001-12.338-11.852-4.969-1.871-12.095-3.694-18.651-5.792-17.164-5.793-29.197-14.975-29.197-32.364 0-23.413 19.954-35.547 42.309-35.547 13.195 0 29.461 3.928 40.538 14.221 1.852 1.833 1.099 4.195-.285 6.29l-8.43 12.36c-.752.804-1.812 1.334-2.829 1.334-1.853 0-4.764-2.312-8.206-3.962-7.879-3.654-14.965-6.025-21.846-6.025-7.595 0-13.641 3.666-13.641 10.262 0 4.764 3.949 8.154 12.338 11.054 20.543 6.557 48.701 13.153 48.701 39.183 0 22.683-19.75 35.328-44.731 35.328z"/></g></svg>