<svg xmlns="http://www.w3.org/2000/svg" width="55" height="29" viewBox="0 0 102 84" class="logo"><g fill="none" fill-rule="evenodd"><path fill="#D58737" d="M74.279 17.78c5.38-1.894 5.847-4.21 5.847-4.21s.17-1.842-.084-2.724c-.632-2.195-3.008-4.57-3.13-3.892-.193 1.079-7.426 4.95-13.109 3.953-.44-.078-2.756 4.073-3.032 5.089-.275 1.016 6.668 4.191 13.508 1.783m20.924 51.917s-1.352-1.726-6.955-.667c-7.123 1.347-11.555 7.58-10.81 8.322.746.74 4.82 3.175 5.163 2.887 4.424-3.717 12.617-3.993 13.323-3.155.704.838-.721-7.387-.721-7.387m-8.92-4.842c.646.092.846-2.404.5-4.484-.233-1.401-.988-2.651-.988-2.651s-.278-2.23-7.186-.918c-7.122 1.353-11.556 7.58-10.81 8.321.745.741 3.034 9.018 3.304 8.66 3.583-4.766 10.608-9.573 15.18-8.928m-8.335-36.518s.2-.94-.178-1.993c-.74-2.052-2.387-4.878-2.955-4.433-3.637 2.854-11.614 2.508-17.092.179-.412-.176 1.227 7.848.951 8.863-.276 1.017 6.666 4.185 13.508 1.784 6.637-2.33 5.766-4.4 5.766-4.4"></path><path fill="#F6BE56" d="M80.024 43.541C76.73 31.211 67.312 22.59 57.345 21.75a45.403 45.403 0 0 0-1.682 28.627c2.583 9.674 8.087 17.777 15.298 23.61 8.405-5.644 12.393-17.973 9.063-30.445M90.53 64.548a54.578 54.578 0 0 1-4.87-7.192c.616 4.717-4.854 15.168-10.54 19.621a45.44 45.44 0 0 0 6.878 3.597c.956-.4 4.304-2.113 6.933-7.389 1.412-2.83 1.957-6.88 1.599-8.637m11.162 11.9c-.44-1.648-1.533-2.902-2.885-3.739-.052-.045-.052-.045-.083-.064a44.367 44.367 0 0 1-3.731-3.214c.12.733.535 4.163-1.412 7.916-1.395 2.687-4.24 4.647-5.76 5.207a44.774 44.774 0 0 0 7.496 1.321v-.03a5.835 5.835 0 0 0 2.221-.157c3.137-.843 4.997-4.085 4.154-7.24M78.023 28.752a54.152 54.152 0 0 1 .632-8.557c-.723-1.756-3.089-4.744-5.582-6.396-4.69-3.107-8.326-3.066-9.536-2.938a45.667 45.667 0 0 0-4.028 6.24c7 1.103 16.523 7.08 18.514 11.651m-2.998-20.89c3.477 2.222 4.792 5.11 5.081 5.844a46.26 46.26 0 0 1 2.035-5.579.568.568 0 0 1-.033-.007 5.643 5.643 0 0 0 .32-3.814c-.804-3.008-3.88-4.796-6.87-3.991-.454.121-.88.297-1.273.517l-.007-.023a44.79 44.79 0 0 0-6.763 5.53c1.415-.354 4.85-.178 7.51 1.523"></path><path fill="#343534" d="M.06 28.213h3.146v12.278l5.57-6.457h3.578l-6.031 6.834 6.435 8.282H9.035l-5.83-7.934v7.934H.06V28.213M16.077 49.15h3.146V34.034h-3.146V49.15zm1.559-20.821a1.95 1.95 0 0 1 1.963 1.97c0 1.1-.866 1.968-1.963 1.968a1.95 1.95 0 0 1-1.963-1.969c0-1.1.866-1.97 1.963-1.97zM24.764 36.64H23.12v-2.606h1.645v-.666c0-3.852 2.454-5.126 5.137-5.126.607 0 1.126.058 1.126.058v2.693s-.404-.058-.75-.058c-1.53 0-2.367.782-2.367 2.49v.609h2.915v2.606H27.91v12.51h-3.146V36.64M34.577 49.15h3.146V28.213h-3.146zM42.687 49.15h3.145V34.034h-3.145V49.15zm1.558-20.821a1.95 1.95 0 0 1 1.963 1.97c0 1.1-.866 1.968-1.963 1.968a1.95 1.95 0 0 1-1.962-1.969c0-1.1.866-1.97 1.962-1.97z"></path><path fill="#777776" d="M25.462 63.954c0-.645.435-1.099 1.043-1.099.609 0 1.026.454 1.026 1.1 0 .628-.4 1.099-1.043 1.099-.609 0-1.026-.471-1.026-1.1M29.252 52.474h1.53v5.27h.035c.244-.437.626-.821 1.096-1.083a3.141 3.141 0 0 1 1.565-.436c1.13 0 2.939.698 2.939 3.612v5.025h-1.53v-4.85c0-1.362-.505-2.513-1.948-2.513-.991 0-1.774.698-2.052 1.535-.087.21-.104.436-.104.733v5.095h-1.53V52.474M45.771 62.559c0 .872.018 1.64.07 2.303h-1.356l-.087-1.379h-.035c-.4.68-1.287 1.57-2.782 1.57-1.322 0-2.904-.732-2.904-3.698v-4.938h1.53v4.676c0 1.605.487 2.687 1.878 2.687 1.026 0 1.739-.715 2.017-1.396.087-.227.14-.506.14-.785v-5.182h1.53v6.142"></path></g></svg>
