<svg id="logo-tesco" xmlns="http://www.w3.org/2000/svg" viewBox="0 0 200 53.29"><defs><style>.logo-tesco-1{fill:#0054a4;stroke-miterlimit:11.47;stroke-width:0.08px;}.logo-tesco-1,.logo-tesco-2{stroke:#fff;}.logo-tesco-2{fill:#f02e25;stroke-miterlimit:3.86;stroke-width:0.03px;}</style></defs><title>Artboard 1</title><path class="logo-tesco-1" d="M15.27,44.11A12.81,12.81,0,0,0,6.46,48S2.66,51.8.08,53.11c-.11.06-.11.19,0,.19H23.42c4.6,0,6.77-1.56,9.5-4,0,0,4-3.7,6.71-4.89.27-.1.21-.28,0-.28H15.27Zm40,0A12.81,12.81,0,0,0,46.48,48s-3.81,3.77-6.38,5.08c-.11.06-.11.19,0,.19H63.48c4.6,0,6.77-1.56,9.5-4,0,0,3.93-3.7,6.66-4.89.28-.1.25-.28,0-.28H55.28Zm40.06,0A12.81,12.81,0,0,0,86.54,48s-3.81,3.77-6.38,5.08c-.11.06-.11.19,0,.19h23.34c4.6,0,6.72-1.56,9.46-4,0,0,4-3.7,6.71-4.89.28-.1.26-.28,0-.28H95.35Zm40,0A12.7,12.7,0,0,0,126.61,48s-3.85,3.77-6.43,5.08c-.11.06-.11.19.05.19h23.34c4.6,0,6.77-1.56,9.5-4,0,0,4-3.7,6.71-4.89.28-.1.21-.28,0-.28H135.37Zm40.06,0A12.81,12.81,0,0,0,166.62,48s-3.81,3.77-6.38,5.08c-.11.06-.11.19,0,.19h23.34c4.6,0,6.77-1.56,9.5-4,0,0,3.94-3.7,6.66-4.89.27-.1.26-.28,0-.28H175.43Z"/><path class="logo-tesco-2" d="M96.79-.19C88.28-.19,80,2.34,80,10.81c0,14.66,25.58,6.91,25.58,15.89,0,2.92-4.54,4.1-8.2,4.1-6.58,0-11.11-1-16.86-4.43v7.36c4.29,1.41,10.12,2.1,16.44,2.1,8.83,0,17.1-2.28,17.1-10.95,0-15.31-25.58-8.43-25.58-15.93,0-3,4.1-4.05,7.69-4.05,6,0,12.54,1.76,16.12,5.08V2.14A56.41,56.41,0,0,0,96.79-.19ZM142-.1c-15.36,0-25.53,7.38-25.53,18.63,0,10.33,9.33,17.24,23.29,17.24A54.63,54.63,0,0,0,153,34V25.34a15.27,15.27,0,0,1-11.55,4.94c-8.24,0-13.88-5.14-13.88-12.53s5.85-12.62,14-12.62a15,15,0,0,1,10.9,4.43V.83A54.41,54.41,0,0,0,142-.1Zm35.82,0c-13.24,0-22.59,7.62-22.59,18.35,0,10.53,8.4,17.52,20.92,17.52,13.29,0,22.45-7.43,22.45-18.22C198.59,7,190.26-.1,177.81-.1ZM1.38,1V9.22C4.26,7,10.28,6.15,16.85,6.1V28.6c0,3.27-.29,4.2-1.68,5.92h13c-1.46-1.71-1.68-2.64-1.68-5.92V5.91C32.19,6,39,7,41.87,9.22V1H1.38Zm44,0C46.72,2.69,47,3.67,47,6.94V28.6c0,3.27-.24,4.25-1.54,5.92h31.4V26.37c-4.31,3.07-12.51,3.08-15.84,3H56.45V20H59.8a37.46,37.46,0,0,1,8.76,1V14a35.06,35.06,0,0,1-8.76,1H56.45V6.1H61c4.08,0,11.17.84,13.84,3.07V1H45.36ZM176.92,5c6.93,0,11.51,5.74,11.51,12.81s-4.57,12.81-11.51,12.81-11.56-5.74-11.56-12.81S169.88,5,176.92,5Z"/></svg>
