<svg id="logo-auchan" xmlns="http://www.w3.org/2000/svg" viewBox="0 0 578.19 127.02"><defs><style>.logo-auchan-1{fill:#ed1c24;}.logo-auchan-2{fill:#009d57;}.logo-auchan-3{fill:#fff;}</style></defs><title>Artboard 1</title><path class="logo-auchan-1" d="M86.61,95.88l-3.49-12.2a31.24,31.24,0,0,1,9-4.88H49.75C66.35,58.51,81.31,49.6,98,41.73a14.9,14.9,0,0,1-.16-2.92c0-7,5.44-15.93,18.31-15.93h.1a25,25,0,0,1,8.91,1.53c4.73,1.89,6.44,5,7.35,5.89a14.29,14.29,0,0,0,3.92,2.88,26.29,26.29,0,0,1-5.67,3.22c-.44.16-.66.31-.66.46s.22.3.66.47a25.77,25.77,0,0,1,5.79,3.79c-3.07,2.16-4.05,5.85-4.37,7.43s-2.84,12.1-3.39,14.14a46.58,46.58,0,0,1-25.84,29.25l-1,.43A46.31,46.31,0,0,1,93.26,95a44.94,44.94,0,0,1-6.66.87Zm30.81-65.94a6.45,6.45,0,1,0,2,.31,6.38,6.38,0,0,0-2-.31"/><path class="logo-auchan-2" d="M117.42,42.85a6.45,6.45,0,1,1,0-12.91,6.34,6.34,0,0,1,2,.31l-2.92,6.24c-.21.49-.12.78.21.78a1.07,1.07,0,0,0,.46-.13l6.28-3.1a6.46,6.46,0,0,1-6,8.81"/><path class="logo-auchan-1" d="M54.39,58.28H23L43,0h60.46l6.11,18c-11.94,1.39-21,8.2-21.78,20.36C86.3,39,83.17,40.62,82,41.27L72.54,10.53,58.76,55c-1.88,1.24-3.35,2.44-4.37,3.25M36.65,125.49H0l15.14-44H27.39a32.68,32.68,0,0,0-4.59,9.36H47.51L36.65,125.49"/><path class="logo-auchan-2" d="M112,125.49h-9.5L93.27,95a46.43,46.43,0,0,0,8.66-2.66L112,125.5"/><path class="logo-auchan-1" d="M146.6,125.49h-32l-9.38-31.62a49.62,49.62,0,0,0,22.91-22.39l18.44,54"/><path class="logo-auchan-2" d="M136.53,41.12a25.77,25.77,0,0,0-5.79-3.79c-.44-.16-.66-.31-.66-.47s.22-.3.66-.46a26.25,26.25,0,0,0,5.67-3.22,9.7,9.7,0,0,0,3.73.54,31,31,0,0,1,11.48,2.35c.88.33.89.62,0,.94-8.18,3.74-11.33,1.36-15.09,4.11m-41,84.38H85.87L74.81,88.14H26.62a30.5,30.5,0,0,1,6.53-9.49H1.67a9.69,9.69,0,0,1,10-8.63L12,69.7l-.32-.33A9.55,9.55,0,0,1,1.74,61H55.35c10-8.22,25.92-16.71,35.06-20.85-.75-10.27,7.91-19.49,22.23-19.58h.14c7.16,0,13.78,3.83,15.81,5.77a15,15,0,0,0-3.46-1.88,25,25,0,0,0-8.91-1.53h-.1c-12.87,0-18.31,8.89-18.31,15.93A14.91,14.91,0,0,0,98,41.73C81.31,49.6,66.35,58.52,49.75,78.8h42.4a31.22,31.22,0,0,0-9,4.88l3.49,12.2,8.93,29.61"/><path class="logo-auchan-3" d="M116.68,37.27c-.32,0-.42-.29-.2-.78l2.92-6.24a6.45,6.45,0,0,1,4,3.79l-6.28,3.1a1.1,1.1,0,0,1-.46.13"/><path class="logo-auchan-1" d="M578.18,125.5H547.72l-.09-39.08c0-13.3-4-18.07-11.28-18.07-9.53,0-14.43,7.21-14.43,22.4l0,34.75H492c.93-23.26,0-58.18-.71-79.72h27a50.31,50.31,0,0,1,.6,8.41v3c3.57-4.92,14-13.19,26.7-13.19H547c13.36.67,23,7.09,27.25,15.89,2.39,5,3.1,12.53,3.27,18.14V99.62c0,14.13.69,25.82.69,25.82M176.51,127q-1,0-2-.07c-16.87-1.24-30.16-8.8-30.16-33.74l.07-47.4h30.09v39.1c0,13.3,3.63,18.06,10.92,18.06,9.54,0,14.14-8.72,14.14-22.4V45.8H229.2c-.92,23.26,0,58.18.72,79.71h-27c-1.5-2.46-1.35-10.11-1.35-10.11C197.2,120.24,187.62,127,176.49,127m255.07-.74H430c-13.46,0-28.38-8.26-28.06-25.58.42-22.64,23.72-26.2,42.31-26.2,5.77,0,9.77.14,9.77.14-.59-11.23-11.37-11.73-19-11.73C424.89,62.9,411.8,70,411.8,70V50.39c2.4-1.78,15.76-6.76,30.75-6.76A58.9,58.9,0,0,1,454,44.71C473,48.5,477.47,59.39,479.61,64s2,21,2,21.34c0,26.53.73,40.18.73,40.18H456.46a59.74,59.74,0,0,1-.58-10.06c-8.11,10.16-21.15,10.8-24.3,10.8Zm15.7-35.72c-7.24,0-17.3,1.72-16.88,9.38.28,5.11,4.4,7.75,9.13,7.75,6.74,0,14.72-5.34,14.65-16.46a27.43,27.43,0,0,0-6.9-.67m-50.92,35H366.2v-39c0-13.3-4.68-17.93-11-17.93-9.54,0-14.45,7.07-14.45,22.27v34.69H311.19v-103H341V53.87c4.77-4.22,13.18-9.74,23.43-9.74h1.43c13.35.67,30.43,6.83,30.43,35.59V125.5m-114.75.82c-21,0-46.37-9-46.37-41.25,0-31.74,24.27-41.1,44.8-41.1,10.08,0,19.27,2.26,24.23,5.23l-2,22.48c-4.06-3.26-10.28-5.17-16.46-5.17-10.23,0-20.35,5.21-20.35,18.13,0,14.32,10.86,19.51,21.66,19.51,6.61,0,13.19-1.95,17.24-4.93l.78,22.61c-4.83,2.51-13.69,4.49-23.52,4.49"/></svg>
