<svg id="logo-spar" xmlns="http://www.w3.org/2000/svg" version="1.0" viewBox="0 0 1049.528 196.654">
  <path d="M17.79 20.865l810.157-.008v154.838l-810.157.008V20.865" fill="#ec1b24"/>
  <path d="M593.7 48.704c6.971 0 11.295 2.571 17.815 10.897l48.478 69.369c2.578 3.635 2.326 9.42-2.12 13.177-3.941 3.329-10.912 3.635-14.693-1.362l-11.6-16.055h-76.356l-11.586 16.353c-4.086 4.852-9.09 4.852-13.629 1.822-4.721-3.145-5.915-9.237-3.03-13.484l48.93-69.82c6.213-8.632 11.126-10.897 17.791-10.897zm2.9 25.674c-1.278-1.875-1.752-2.051-3.114-2.051-1.523 0-2.12.757-3.153 2.143-1.668 2.226-21.105 30.877-21.327 30.877h49.09c-.092 0-18.787-26.96-21.496-30.97M263.04 48.819h69.836c17.325 0 18.917 19.942 18.917 19.942h-85.92c-4.256 0-8.204 3.214-8.204 8.8 0 6.375 4.844 9.405 7.897 9.405h60.722c12.03 0 29.148 10.017 29.148 27.319 0 22.46-19.889 30.441-26.814 30.441h-71.045c-21.113 0-19.942-20.126-19.942-20.126h88.048c3.52 0 8.709-3.49 8.709-8.708 0-4.982-4.554-8.8-7.898-8.8H266.99c-16.88 0-29.959-12.535-29.959-29.53 0-19.124 16.415-28.743 26.01-28.743M710.674 48.689h72.117c10.927 0 27.877 8.93 27.877 30.288v1.362c0 11.371-7.124 21.358-17.118 26.202 0 0 .72 1.094 16.208 22.107 2.004 2.717 2.12 9.244-2.273 13.178-4.186 3.757-11.173 4.232-14.693.153-4.92-5.694-10.606-13.178-26.21-33.013H738.4c-8.027 0-18.932-6.366-18.932-20.447h60.898c3.306-.137 8.609-3.306 8.609-9.527 0-5.755-5.097-9.695-8.64-9.695H713.07l.053 63.752c.008 6.963-5.326 11.654-11.08 11.654-5.456 0-10.905-4.844-10.905-11.356V68.378c0-10.912 11.51-19.69 19.536-19.69M413.448 48.85h72.116c10.928 0 27.878 8.937 27.878 30.287V80.5c0 11.379-7.117 21.357-17.118 26.201 0 0-5.173 1.668-10.017 2.28h-45.302c-8.028 0-18.328-6.512-18.328-20.6h60.293c3.306-.137 8.778-3.007 8.778-9.228 0-5.755-5.097-9.696-8.64-9.696l-67.25-.008.04 63.76c.007 6.964-5.327 11.655-11.082 11.655-5.456 0-10.904-4.844-10.904-11.356v-64.97c0-10.911 11.509-19.689 19.536-19.689" fill="#fff"/>
  <path d="M866.561 100.365c0 29.714 14.96 56.322 41.315 69.338 24.771 12.237 57.776 12.237 82.623 0 24.503-12.067 41.239-39.624 41.239-69.338 0-45.447-36.357-82.592-82.592-82.592-46.443 0-82.585 36.854-82.585 82.592" fill="#157946"/>
  <path d="M949.192 39.184c-8.311 28.184-33.082 69.484-51.149 89.732h42.838l.1 12.275c-.1 6.956-5.633 14.18-13.683 14.08-11.188-.13-25.176-5.303-33.632-19.651-6.16-10.469-10.63-18.718-10.63-35.255 0-36.127 29.103-66.063 66.117-66.063 36.61 0 66.117 30.809 66.117 66.063 0 16.537-7.721 30.84-10.27 34.964-9.037 14.639-22.804 19.812-33.456 19.942-7.346.092-14.119-5.303-14.119-14.119v-12.236h43.497c-18.726-20.248-43.497-61.548-51.73-89.732" fill="#fff"/>
</svg>
