<svg xmlns="http://www.w3.org/2000/svg" viewBox="0 0 408.79 209.06">
  <path d="M0 104.54C0 54.77 63.65 0 204.4 0s204.39 54.77 204.39 104.54-63.64 104.52-204.39 104.52S0 154.31 0 104.54" fill="#1c3f94"/>
  <path d="M13.65 104.54C13.65 57.65 73 6.06 204.4 6.06s190.75 51.59 190.75 98.48S335.76 203 204.4 203 13.65 151.44 13.65 104.54" fill="#fff200"/>
  <path d="M268.61 54.57c1.88-5.77 5.09-13.58 11.83-19 10.38-8.25 24-11.2 39.49-3.53-3.69 12.24-12.49 15.87-22.45 17.4-7.62 1.18-15.17 1-28.87 5.08" fill="#00a651"/>
  <path d="M296.44 156.49c-12.05 0-21.83-19.28-21.83-43.07s9.78-43.06 21.83-43.06 21.85 19.27 21.85 43.06-9.79 43.07-21.85 43.07m0-101.07c-34.64 0-62.72 26-62.72 58s28.08 58 62.72 58 62.73-26 62.73-58-28.08-58-62.73-58m-72.65 14.64a176.56 176.56 0 0 1-19.39 1.29 176.37 176.37 0 0 1-19.4-1.29 1.64 1.64 0 0 0-1.39.22 1.19 1.19 0 0 0-.5.93v89.16c0 3 4.25 9.4 21.27 9.4s21.27-6.39 21.27-9.4V71.21a1.17 1.17 0 0 0-.49-.93 1.64 1.64 0 0 0-1.39-.22M204 32.43c-13.12.1-23.58 7.36-23.37 16.2s11 15.92 24.16 15.81 23.59-7.36 23.38-16.19-11-15.93-24.17-15.82M147 99c-12.74-6-26.09-9.91-33.24-13.83-10.28-4.05-13.23-7.83-12.93-11.89.71-7.33 8.76-11.88 17.09-11.88 20.46 0 24.92 11.07 21 20.81-.3.74-.54 1.13-.26 1.73s1 .75 1.92.84c18 1.71 28.12-8.88 23.1-18-3.53-6.41-10.4-15.49-36.86-18.15-21.57-2.19-39.82 2.09-52.19 9.71S57.8 79.76 62.34 92c2.66 7.13 10.74 13.58 22.76 19.33 10.87 4.46 21.72 8.52 32.51 13 11.85 5.29 15 9.65 14.9 15.88-.25 10.63-13.87 15-23.56 14.34-19.1-1.32-26.52-18-11-25 .64-.26 1-.57 1-1-.09-.92-.47-1.33-1.42-1.73C74.73 114.35 47 129 58.15 151c3.4 6.74 20.84 19.55 48.92 20.39 36.08 1.08 66-8.67 67.31-38.61.71-15.89-13.17-27-27.42-33.72" fill="#ed1c24"/>
  <path d="M407.12 90.54l.06.26-.06-.26" fill="#231f20"/>
  <path d="M74.31 21.41c-.83.34-1.67.67-2.48 1q10.32.09 20.69.13l2.72-.94H83.92c-3.21 0-6.43-.1-9.61-.23m238.68 0c1.12.38 2.23.76 3.33 1.15h4.41c5.52 0 11 0 16.37-.11l-2.27-.92c-7.15-.06-14.15-.12-21.82-.12M2 89.44c-.23.92-.44 1.83-.63 2.75H15.04c.18-.8.37-1.59.58-2.38Q8.68 89.67 2 89.44m394 1a4.3 4.3 0 0 0-2.08.5l-.43-.17.18.74c1.58 0 3.1 0 4.67-.15.81-.06 1.62-.08 2.42-.08 2.29 0 4.51.19 6.62.3-.06-.27-.11-.54-.16-.81l-.06-.26c-.65 0-1.26.07-1.84.07h-3.61c-.64 0-1.18.43-1.89.43-1.11 0-2.45-.5-3.82-.5M4.76 118.7a5.7 5.7 0 0 0-2.79.9c.09.36.2.73.3 1.08a5.18 5.18 0 0 0 4-1.48 2.21 2.21 0 0 0-1.48-.5m4.69.67a3.48 3.48 0 0 0-.47 0c.78 1.07 2.88.78 4.42 1.27.71.23 1.77.72 2.89 1-.1-.35-.2-.68-.3-1h-.27c-2.33-.26-4.65-1.3-6.27-1.3m-6.92 2.24l.18.62c.06.21.11.43.18.63 2.13 0 4.36.21 6.45.21a17.85 17.85 0 0 0 4.7-.5v-.85c-.81.07-1.7.1-2.65.1-1.29 0-2.68 0-4.12-.1s-3.17-.11-4.74-.11m12.45.33a1.21 1.21 0 0 0-.74.2 1 1 0 0 0 .21.63 1.18 1.18 0 0 1 .34 0h.57a4 4 0 0 0 .58 0c.31 0 .55-.07.6-.33a1.54 1.54 0 0 1-.05-.17 3.77 3.77 0 0 0-1.51-.38m-4.65 17l.27.42.19.31h.41a1.65 1.65 0 0 0 1.14-.3 3.43 3.43 0 0 0-2-.44m14.18 0h-1.02a6.13 6.13 0 0 1-.62 0c0 .53.81.73 1.65.73a3.54 3.54 0 0 0 .46 0c-.16-.23-.32-.48-.47-.71m-4.38 0v.85a1.12 1.12 0 0 1 .27 0 2.53 2.53 0 0 1 .46 0h.47c.31 0 .55-.09.49-.46-.36-.34-1.12-.29-1.69-.43m-4 .19a3.4 3.4 0 0 0-.45 0v.98H17c.15-.71-.26-.86-.81-.86m313.2 42.94h-1.75c-1.49.62-3 1.24-4.54 1.84 6.49 0 13.07.08 19.71.11 1.3-.6 2.62-1.21 3.89-1.82h.05c-2.28 0-4.53.06-6.75.06-2.57 0-5.1 0-7.59-.14h-3m-248.82.63c-.65 0-1.19.09-1.45.47a2 2 0 0 1 .73-.11c.35 0 .74 0 1.13.09a9.2 9.2 0 0 0 1.16.09 2.08 2.08 0 0 0 1.17-.28l-.37-.15h-.11c-.35 0-.74 0-1.12-.06s-.78-.05-1.14-.05" fill="#000002"/>
  <path d="M287.5 21.3c-4.11 0-8 0-11.55.13h-2a7.32 7.32 0 0 0-4.53 1.05c3.78 0 7.71-.06 11.76-.06 6.36 0 13 0 19.76.08l15.37.08c-1.1-.39-2.21-.78-3.33-1.15-8.23 0-17.26-.13-25.49-.13m-139.35.13c-17.41 0-35.29.14-52.91.19l-2.72.94h32.07l2.76.18c2.15.14 5 .72 6.36.72.74 0 1.47-.22 2.24-.22h.13c.74 0 1.39.32 2.13.36h.52c.51 0 1 0 1.43-.06s.88-.05 1.29-.05a5.82 5.82 0 0 1 1.25.12 2 2 0 0 0-1.5-.46h-1.88c-1.16-.11-2.13-.26-3.52-.29a21.61 21.61 0 0 1-3.22-.38c12.12 0 24.22-.07 36.21-.08a3.21 3.21 0 0 0-2.6-.9H164.35c-5.63-.06-10.84-.21-16.21-.21m82.29.27c-3.88 0-7.51.31-9.23 1 4 .1 8.64.49 13.2.49a48.44 48.44 0 0 0 7.44-.49 56.72 56.72 0 0 0-11.41-1m130.38 67.8a1.53 1.53 0 0 0-.62.14c-.58.38 1.49 1.51.89 1.51h-.26c-.46-.42-2-.53-3.92-.53h-2.83c.17.35.33.7.48 1.06h.89c9 0 18 .06 26.64.47.06-.28.66-.46 1.31-.46a1.93 1.93 0 0 1 1.43.46 76.25 76.25 0 0 1 8.81-.48l-.18-.74a7.32 7.32 0 0 0-2.3-.31c-2 0-4.33.48-6.54.48-3.08 0-6.85-.43-10.53-.43-2.56 0-5.32.28-7.71.28a15.06 15.06 0 0 1-3.23-.28c-.84-.18-1.38-1.18-2.33-1.18m-345.22.49c-.21.79-.4 1.58-.58 2.38 2.63 0 5.26-.11 7.86-.21 1.41-.06 2.86-.08 4.32-.08 2.11 0 4.26 0 6.42.09s4.24.08 6.34.08A65.07 65.07 0 0 0 53.62 91a3.29 3.29 0 0 0-2.34-.74c-.73 0-1.46.1-2.09.1-11.58 0-22.79-.19-33.6-.48m122.46.39c-.61 0-1.23.09-1.68.09-3.41 0-6.9.07-10.4.07h-.14l3.17 1.2c3.85 0 7.52-.16 10.91-.45-.31-.77-1.09-.94-1.9-.94m89.66 0q-1 0-2 .06v1.3A61.76 61.76 0 0 0 233 91a18.37 18.37 0 0 0-5.31-.69m-57.17 0a1.11 1.11 0 0 0-.28 0 12.29 12.29 0 0 1-2.67.23c-.94 0-2 0-3-.1s-2.06-.1-3-.1c-1.78 0-3.27.17-4 .82 8 .4 16.81.53 25.49.53v-1.26a13.79 13.79 0 0 1-2.08.14c-1 0-2-.07-3.06-.14s-2-.14-3-.14a6.54 6.54 0 0 0-3.88.89c-.26-.23-.07-.9-.57-.9m-15.43 0c-.07.29-.31.42-.22.85a1.23 1.23 0 0 0 .85.22h.42a1.17 1.17 0 0 0-1-1.06m-94.75 0h-.63c-.29.47.43.88-.35.88h-.5c-.15.63.35.91.92.91s1.32-.35 1.19-.91h-.4c-.54 0-.28-.21-.23-.87m-3.16 0c0 .61-.9.37-.85 1.06h1.21c.73 0 1.34-.11 1.32-.87a.6.6 0 0 0-.22 0 1 1 0 0 0-.45.15.89.89 0 0 1-.42.15c-.17 0-.36-.11-.59-.47m235 .15h-14.22c-.11.34-.21.7-.32 1h8.76c5.74 0 11.41.1 15.69.49a12.58 12.58 0 0 1 4.19-.51 14 14 0 0 1 4.24.51c.64-.9 2.86-.23 3.57-1-6.6-.4-14.17-.49-21.91-.49m-237.38.08a.8.8 0 0 0-.54.2v.63h.34c.46 0 .8-.11.72-.64a.75.75 0 0 0-.52-.2m181.18.2a1.09 1.09 0 0 1-.46.1 2.21 2.21 0 0 1-.37 0h-.35c-.26 0-.45.11-.51.6h.92c.47 0 .85-.1.77-.65m2.07 0a3.1 3.1 0 0 0-.8.18c-.1.37.08.45.35.45h.82l.08-.17a.4.4 0 0 0-.45-.42M154 90.8c-.15 0-.27.08-.34.38a.77.77 0 0 0 .55.2c.26 0 .49-.11.5-.41-.27 0-.52-.17-.71-.17m-92 .25c-.24.14-.5.26-.59.55a7.55 7.55 0 0 0 .85.21c-.09-.26-.18-.51-.26-.76m253.18.23l-.68.11.69-.08M60.78 93.07c-.11.67.3.83.42 1.27h.56c.61 0 1.18 0 1.42-.41-.14-.26-.26-.53-.39-.8h-1.32a3 3 0 0 1-.69-.07M36.9 120.14a2.59 2.59 0 0 0-2 .74 2.68 2.68 0 0 1 .59-.06c.33 0 .69 0 1.05.06s.72.06 1 .06c.59 0 1.09-.1 1.31-.48a7.07 7.07 0 0 0-2-.32m-18.51.41c-.36 0-.72 0-1.09.07a10.3 10.3 0 0 1-1.09.07H16c.1.34.2.67.3 1a6.75 6.75 0 0 0 1.81.28 3 3 0 0 0 2-.69 2 2 0 0 0-1.75-.75m37.25 0a23.78 23.78 0 0 0-5.39.52h10.75a22.82 22.82 0 0 0-5.34-.52m-11.53.25c-.74 0-1.43.13-1.66.49a11.8 11.8 0 0 0 2.25.27c.69 0 1.31-.12 1.54-.49a9 9 0 0 0-2.13-.27m-16.42.45a2.57 2.57 0 0 0-1.66.46 27.56 27.56 0 0 0 5.17.71 4.53 4.53 0 0 0 2.83-.71 6.81 6.81 0 0 1-1.21.1 17.26 17.26 0 0 1-2.68-.27 15.7 15.7 0 0 0-2.45-.29m-10.92.88c-.15.72.26.86.82.86H18c.08-.77-.76-.64-1.25-.85m-.28.18a1.54 1.54 0 0 0 .05.17.61.61 0 0 0 0-.14h-.06m6 .83a.64.64 0 0 0-.62.47 3.9 3.9 0 0 0 1.35.3.85.85 0 0 0 1-.72.41.41 0 0 1-.41.27 2 2 0 0 1-.62-.16 2.11 2.11 0 0 0-.67-.16M25.08 139h-.57c.15.23.31.48.47.71a2.24 2.24 0 0 0 1.47-.49 3 3 0 0 0-1.37-.23m3.06 0h-.85c-.15.46.08.65.33.65a.5.5 0 0 0 .52-.65m13 .45c-.25 0-.5.2-.42.61h.84a.45.45 0 0 0-.42-.61m-1 0c-.25 0-.5.2-.43.61.14.11.22.15.28.15a.56.56 0 0 0 .17-.07.72.72 0 0 1 .4-.08c.08-.41-.17-.61-.42-.61m5.38.19c-.46 0-.87.16-1 .63a2.21 2.21 0 0 0 1.07.25c.49 0 .93-.16.83-.67a2.27 2.27 0 0 0-.94-.21m230.84 41.6c-1.42 0-2.9 0-4.47.08a1.17 1.17 0 0 0 .94.35 7.45 7.45 0 0 0 .89-.09 8.26 8.26 0 0 1 1-.07h.32c-.13.45.48.29.29.79a2.14 2.14 0 0 1-1.07.4.93.93 0 0 0-1.67-.11 10.46 10.46 0 0 0-1.89-.26h-.42c-.8.08-1.75.12-2.77.12-1.81 0-3.82-.12-5.52-.27a8.15 8.15 0 0 1-2.38.27H257.1a8.47 8.47 0 0 0-1.19.07 1.29 1.29 0 0 0-.89-.26c-.68 0-1.52.23-2.32.3-1.3.1-2.81.13-4.49.27h-1.08c-9.76 0-19.08-.29-27.74-.29-4.33 0-8.5.08-12.48.29a27.81 27.81 0 0 0-5.78-.53c-2 0-4.09.14-6.21.27s-4.2.26-6.33.26h-.21c-1.47 0-3-.57-4.42-.63h-1.88c-1.74 0-3.45.09-5.16.17s-3.42.17-5.14.17c-1 0-2 0-3-.09-.38 0-.3-.44-.68-.44a.56.56 0 0 0-.17 0 3.71 3.71 0 0 1-2.47.59c-.62 0-1.32 0-2-.08s-1.62-.09-2.43-.09h-3.62a22.73 22.73 0 0 0-7.53.83c9.68.42 19.34.33 27.58.64h.11a6.59 6.59 0 0 0 1.44-.21 6.88 6.88 0 0 1 1.49-.22h.11c11.48.39 29.23 0 38.7.42a2 2 0 0 0-1.39.4c4.86-.19 10.05-.41 14.13-.41h1.59a2.92 2.92 0 0 1 .44-.06c9.65.19 19.77.35 29.7.35 3.76 0 7.5 0 11.17-.07h4.83a29.94 29.94 0 0 0 7-.67c.36.82.86.54 1.67.64a52.17 52.17 0 0 0 6.35.33c4 0 8.09-.27 12-.33 4.33-.07 8.72-.09 13.17-.09h3.2q2.31-.9 4.54-1.85h-2.38c-9.45.27-18.58.63-29.48.63-4.44 0-8.81.08-13.07.08a.31.31 0 0 1-.11-.33h.45c.9 0 1.24-.44 1.92-.62.14.21-.42.39 0 .45a.42.42 0 0 1 .32-.21c.2 0 .41.25.66.33.23-.48-.74-.51-.3-.8a.28.28 0 0 0 .23.21c.06 0 .11-.06.06-.21a88.32 88.32 0 0 0-9.57-.5m3.15 1.14a2.08 2.08 0 0 0 .87-.29 2.25 2.25 0 0 1 1-.3 1.51 1.51 0 0 1 .77.22c-.5.05-.6.13-.76.13a2 2 0 0 1-.51-.13c.09.59 1.51.05 1.42.78a.85.85 0 0 0-.5-.18 1.65 1.65 0 0 0-.74.26h-2.16c.11-.2.12-.46.44-.48h.17m-19 .64h.5c1.86 0 3.75-.13 5.64-.13.75 0 1.52 0 2.28.07-1.93.14-3.95.19-6 .19-3.11 0-6.36-.11-9.65-.22h1.61c1 0 2 0 3 .06s1.81.07 2.69.07m-40.3.85c.63 0 1.27 0 1.91-.06l-1.11.07H219.8h.56m-82.84-1.51a29 29 0 0 0-7.07.67c2.38.19 4.9.24 7.47.24H149.61a95.5 95.5 0 0 0-12.09-.87m-28.13 0c.11.67-1 .08-.84.84h1.27c.05-.48-.06-.79-.43-.84m-2.47.12a4.28 4.28 0 0 0-1 .22 4.68 4.68 0 0 1-1.24.22 2 2 0 0 1-.75-.14c.16.39.62.49 1.16.49.29 0 .62 0 .94-.06s.65 0 .94 0a3.16 3.16 0 0 1 .55 0c0-.55-.24-.72-.58-.72m3.54.16a.59.59 0 0 0-.43.14.26.26 0 0 0 .22.16.41.41 0 0 0 .18-.05.3.3 0 0 1 .14 0c.06 0 .1.08.08.36H111.78c.41 0 .74-.06.8-.44a1.86 1.86 0 0 1-.52.07 3.86 3.86 0 0 1-.84-.11 5.86 5.86 0 0 0-.74-.1m14 0a27 27 0 0 0-5.79.52h11.58a27.08 27.08 0 0 0-5.79-.52m-23.48 0a5.49 5.49 0 0 0-2.74.52h5.48a5.49 5.49 0 0 0-2.74-.52m-17.26.1a3.81 3.81 0 0 1-.6.06l.37.15a1.51 1.51 0 0 0 .23-.21" fill="#1c1a00"/>
  <path d="M186.91 88.86a1.05 1.05 0 0 0 1.09 1.28.81.81 0 0 0 .76-.43c-.3-.62-1.07-.78-1.89-.85m10.16.37a8.41 8.41 0 0 0-3.22.68 6.14 6.14 0 0 0 2 .25h3.25c-.26-.67-1.09-.9-2-.9m-11.83.23c-.69 0-1.38.21-.87.67a7.88 7.88 0 0 1-1.25.3v1.28h.36c10.49 0 20.76-.18 29.11-.32 3.34.14 6.68.29 10 .29h3.1v-1.36c-.81 0-1.63.11-2.44.18-1.45.11-2.86.23-4.24.23h-.29c-4.88 0-10-.49-15.46-.49-1.15 0-2.32 0-3.5.06h-.08c-.46 0-.14.79-.55.85 0-.66-.55-.73-1.06-.85h-1.46c-1.68 0-3.07.06-4.31.11s-2.26.11-3.3.11a20.33 20.33 0 0 1-4.19-.41h.74c.39 0 .72-.06.74-.43a1.57 1.57 0 0 0-1-.25m-83.3.74c-.91 0-1.88.13-2.62.13H62.5a.78.78 0 0 1-.46.72c.09.25.17.5.26.76a22.71 22.71 0 0 0 4 .29 27.55 27.55 0 0 0 5.7-.5 1.75 1.75 0 0 0 1.27.51c.9 0 1.87-.51 2.73-.51 1.78 0 3.53.44 5.07.44h.61c1.48-.13 3-.17 4.64-.17H93.2a59.53 59.53 0 0 0 6.8-.32 5.35 5.35 0 0 1 .58 0c.44 0 .9 0 1.35.08s.87.08 1.24.08c.65 0 1.13-.12 1.25-.55-.4-.8-1.36-1-2.42-1m155.66.08h-2.9c-3.35.13-7.36 0-10.94.21h-.75c-.21 0-.44-.05-.65-.05a1.22 1.22 0 0 0-1.35.93c3.83.21 7.77.27 11.77.27H277.68c.11-.35.21-.71.33-1.06h-2.06c-5.29 0-10.4 0-15.08-.2h-3.21m-152.39 0c-.31.2-.67.32-.63.85a1.68 1.68 0 0 0 1.42.55c.58 0 1.21-.13 1.73-.13h21.31l-3.21-1.23c-7 0-14-.07-20.62-.07m229.9.14c-7.83 0-15.29.15-19.93.81h1.16c2.33 0 4.6.48 6.79.54h.09a6.61 6.61 0 0 0 1.39-.21 8.15 8.15 0 0 1 1.46-.21c5.64.14 11.44.17 17.28.17h11.19c-.15-.36-.31-.71-.48-1.06-1 0-1.91.05-2.72.05-5 0-10.72-.07-16.24-.07m-94.75.28c-.41 0-.66.17-.61.64h.2c.41 0 .67-.16.61-.64h-.23m-1.88.46c0 .05 0 .11-.07.17h.07a.54.54 0 0 0 0-.18M62.79 93.13l.39.8a.89.89 0 0 0 .12-.64 1.86 1.86 0 0 0-.51-.16" fill="#230000"/>
</svg>
