<svg id="logo-groby" xmlns="http://www.w3.org/2000/svg" viewBox="0 0 123 44.08"><defs><style>.logo-groby-1{fill:#00a3e0;}.logo-groby-2{fill:#141b4d;}</style></defs><title>Artboard 1</title><path class="logo-groby-1" d="M27.65,16.6a8.21,8.21,0,0,0-5.46-2.06c-4.42,0-7.32,2.53-7.32,7.62,0,3.19,1.83,7.35,7.32,7.35a7.54,7.54,0,0,0,5-1.63v-3.6H21.6V20h10V30c-2,2.89-5.19,4.33-9.48,4.33-9,0-12.38-6.22-12.38-12.14,0-6.55,3.86-12.38,12.41-12.38a11.18,11.18,0,0,1,8.68,3.59Z"/><path class="logo-groby-2" d="M55,18.23c0-4.09-3-7.85-8.62-7.85h-11V33.67h5.19V26h3.76l6,7.65H56v-.4l-6.39-7.72C54.06,24,55,21.26,55,18.23Zm-8.55,3.39h-5.9V14.84h5.86a3.42,3.42,0,0,1,3.49,3.35q0,.09,0,.18a3.23,3.23,0,0,1-3.2,3.26h-.25Z"/><path class="logo-groby-2" d="M56.39,25.48c0,5.26,3.39,8.72,9,8.72s9-3.46,9-8.72c0-5-3.53-8.62-9-8.62S56.39,20.53,56.39,25.48Zm13.14,0c0,2.33-1.23,4.46-4.16,4.46s-4.13-2.23-4.13-4.46a4.15,4.15,0,1,1,8.28,0Z"/><path class="logo-groby-2" d="M76.92,10.41V33.67h4.29l.3-2.1A5.91,5.91,0,0,0,87,34.17c4.82,0,8.12-3.59,8.12-8.72,0-5.32-3.36-8.58-8.18-8.58a6.21,6.21,0,0,0-5.16,2.36V10.41Zm9.32,10.81a3.88,3.88,0,0,1,4,4.23,3.91,3.91,0,0,1-3.58,4.22h-.42c-2.16,0-4.42-1.1-4.42-4.23a4.17,4.17,0,0,1,4.1-4.24Z"/><polygon class="logo-groby-2" points="102.45 44.08 113.81 17.23 108.52 17.23 104.49 27.58 100.4 17.23 95.01 17.23 101.9 33.17 98.66 40.69 3.39 40.69 3.39 3.39 119.61 3.39 119.61 40.69 107.29 40.69 105.86 44.08 123 44.08 123 0 0 0 0 44.08 102.45 44.08"/></svg>
