<svg xmlns="http://www.w3.org/2000/svg" viewBox="0 0 100 100"><style>.icon-fruit{fill:#29703d}</style><path class="icon-fruit" d="M31.1 45c-18 6.1-11.3 36.6 8 33.6 9.6-1.5 15.6-12.6 14.7-21.5-1-10.5-13.2-16.1-22.4-12.5-.9.4-.5 1.9.4 1.5 9.3-3.7 19.6 2.2 20.5 12.3.7 7.9-5.2 15.8-12.4 18.3-17.5 6.1-25-24.7-8.5-30.2 1.1-.3.6-1.8-.3-1.5z"/><path class="icon-fruit" d="M27.2 57.1c-.5 1.8-.9 3.3-.3 5.1.1.3.4.6.8.6h.3c.4 0 .6-.2.8-.6.6-1.6 1-3.2 1-4.9 0-.7-1.2-1.1-1.5-.4-.6 1.3-.7 3-.8 4.4 0 .9 1.4 1.1 1.6.2.2-1.1.4-2.2.7-3.3.2-.9-1-1.4-1.5-.6-.4.7-.8 1.5-.7 2.3.1.8.9 1.1 1.6.9 1-.2.6-1.8-.4-1.5.1.1.3.2.4.3 0-.1.1-.3.1-.4.1-.2.2-.5.4-.7l-1.5-.6c-.2 1.1-.4 2.2-.7 3.3.5.1 1 .1 1.6.2 0-1.1.1-2.6.6-3.6-.5-.1-1-.3-1.5-.4 0 1.5-.4 3-1 4.4.3-.2.5-.4.8-.6h-.3c.3.2.5.4.8.6-.5-1.5-.1-2.7.3-4.2.2-1-1.3-1.4-1.6-.5zm-.7-9.5c-11.1-2.2-8.3-14.2-2.2-20.3C35 16.8 54 30.8 45.2 44c-.6.9.8 1.7 1.4.8 9-13.4-7.8-28.3-21-20.5-9.3 5.6-12.6 22.2.5 24.8 1 .3 1.4-1.3.4-1.5z"/><path class="icon-fruit" d="M44.3 35.9c-.9 1-1.2 2.2-.9 3.4.2.9 1.5.7 1.6-.2 0-1.2.6-2.4.7-3.6 0-.6-.7-.9-1.2-.7-.2.1-.4.2-.7.3-.6.3-.4 1.3.2 1.5-.4-.1-.5-.6-.4-.3v.4c0 .3 0 .6-.1.9 0 .5-.2 1.1.2 1.5.9.9 1.7-.8 2-1.4.3-.8 1-2.2 0-2.8-.7-.4-1.3 0-1.7.6-.5.8-.5 1.8-.5 2.7 0 1 1.6 1 1.6 0 0-.7 0-1.3.3-1.9-.3.1-.6 0-.8-.3-.1-.1 0 0 0 .1 0 0-.1.3-.1.4-.1.4-.3.7-.4 1-.1.1-.2.3-.2.4-.2.3-.1.1.1 0h.8c.1.2.2.3.4.5.1.3 0 .1 0 0v-.5c0-.4.1-.8.1-1.2 0-.6 0-1.4-.7-1.6.1.5.1 1 .2 1.5.2-.1.4-.2.7-.3-.4-.2-.8-.5-1.2-.7 0 1.2-.6 2.4-.7 3.6.5-.1 1-.1 1.6-.2-.2-.7 0-1.3.5-1.9.4-.8-.7-2-1.4-1.2zm-1.5-5.1c-2.9 1.6-4 4.3-3.3 7.5.2 1 1.7.6 1.5-.4-.5-2.5.3-4.5 2.6-5.7.9-.5.1-1.9-.8-1.4zM29.4 52.3c4.2 3.6 3.7 10.5 1.2 14.9-.5.9.9 1.7 1.4.8 2.8-5 3.3-12.8-1.5-16.9-.8-.6-1.9.5-1.1 1.2zm-1.5 17.6c-.3.2-.5.3-.6.7-.1.3 0 .6.2.8.6.6 1.6.2 2.2-.1.9-.4.1-1.8-.8-1.4-.1 0-.2.1-.3.1-.4.1-.2-.1.1.2.1.3.1.5.2.8 0 .1-.1.2-.1.3.8-.5 0-1.9-.9-1.4zm28.3-37c-14.8 11.6 4 36.5 19 24.5 5.9-4.7 9.2-12.8 6.3-20.1-4-10.2-16.9-10-24.5-4.5-.8.6 0 2 .8 1.4 7.4-5.4 18.8-5.1 22.5 4.5 2.2 5.7-.7 12.2-4.7 16.3-12.8 13.1-32.5-9.8-18.2-21 .8-.6-.4-1.7-1.2-1.1z"/><path class="icon-fruit" d="M60.6 38.1c0 .3-.4.6-.6.9-.4.6-.3 1.3 0 2 .1.3.4.6.8.6h.7l-.8-.8c.1.7.6 1.1 1.3.8.4-.2.6-.6.9-1 .5-.7.9-1.4 1.3-2.1.2-.4 0-1.1-.5-1.2-.4-.1-.6-.3-1-.3-.4-.1-.9.1-1 .6.1-.4.4-.4 0-.2-.1.1-.3.1-.4.2-.3.1-.5.2-.8.4-.6.5-.9 1.2-.4 1.9 0-.2-.1-.4-.1-.6-.2.4.1 1 .6 1.1.4.1.7-.1 1.1-.2.7-.3 1.4-.8 2.1-1.2.2-.2.5-.3.7-.5.4-.5.2-1.1-.4-1.4-.5-.2-1.3.3-1.7.5-.7.3-1.4.6-2 1-.7.3-.4 1.5.4 1.5.6 0 1.3-.3 1.9-.5.5-.2 1.3-.3 1.7-.7.5-.5.7-2.3-.5-2.2-.4 0-.6.2-.9.4l-.3.3c-.1 0-.4.2-.2.2-1 .1-1 1.7 0 1.6.4 0 .7-.2 1-.4.2-.1.3-.3.5-.4.1 0 .1-.1.2-.1.2-.1.1-.1-.4 0-.2-.1-.3-.2-.5-.4 0-.1 0-.2-.1-.3 0 .2-.1.3-.1.5l.6-.6c-.4.2-.9.3-1.3.5-.3.1-.7.2-1 .3-.1 0-.3.1-.4.1-.1 0-.4.1-.1 0 .1.5.3 1 .4 1.5.5-.2 1-.5 1.5-.7.3-.1.6-.3 1-.4.1 0 .2-.1.4-.1.2-.1 0 .1-.3 0-.2-.1-.3-.2-.5-.4 0-.2-.1-.4-.1-.6.1-.3.3-.4.1-.2.2-.1-.1 0-.1.1-.2.2-.5.3-.7.5-.3.2-.6.3-.8.5-.1.1-.2.1-.4.2-.1 0-.4.2-.3.1-.1 0-.1.1-.2.1.4-.1.7.2.8.9 0-.2.1-.3 0-.5-.1-.4-.1-.1-.1 0 0 0 .2-.1.3-.2.5-.3 1.3-.4 1.5-1.1-.3.2-.7.4-1 .6.3.1.6.3 1 .3-.2-.4-.3-.8-.5-1.2-.2.4-.5.8-.7 1.2l-.6.9c-.1.1-.1.2-.2.3l-.1.1c.4-.3.8-.1 1.2.6 0-.4-.3-.8-.8-.8H61c.3.2.5.4.8.6-.2-.5-.2-.7.1-1.1.4-.4.6-.8.6-1.4-.2-1.1-1.8-1.1-1.9-.1z"/><path class="icon-fruit" d="M56.2 43.3c3.3 3.4 8 1.3 11.1-1.3.8-.7-.4-1.8-1.1-1.1-2.3 2-6.2 4-8.8 1.3-.8-.7-1.9.4-1.2 1.1zM69.6 38c.4-.4.9-.6 1.3-1 .8-.7-.4-1.8-1.1-1.1-.4.4-.9.6-1.3 1-.8.7.4 1.8 1.1 1.1z"/></svg>