<svg xmlns="http://www.w3.org/2000/svg" viewBox="0 0 100 100"><style>.icon-fruit{fill:#29703d}</style><path class="icon-fruit" d="M44.6 21c-11.3-4-23.2-2.5-30.9 7.5-9.5 12.4-8.7 25.9-3.1 40 8.2 20.6 24.3 35.9 47.5 29.6C77.9 92.8 91.5 73.2 90.8 53c-.4-12.5-6.7-24.7-17.7-31-5.8-3.3-12.4-1.9-18.6-.8 1.4-.2-10.1 1.6-8.5-.9.8-1.3 1-3 1.2-4.4.5-3-.2-6.2-.6-9.2-.1-1.1-1.8-.7-1.6.4.8 5.2 1.3 9.6-1.7 14.3-.3.5 0 1.1.5 1.3 3.8 1 7.3.7 11.2.1 9.4-1.5 16.3-1.4 23.7 5.4 8.4 7.7 11.2 20.4 10.2 31.3-1.4 17.3-15.1 31.9-31.3 36.9-19.4 5.9-34.3-6-42.7-22.5-6.1-12-10-26-3.7-38.8C17.8 21.9 31 18 44.2 22.7c1 .3 1.4-1.3.4-1.7z"/><path class="icon-fruit" d="M45.7 21.4c3-3.2 5.3-6.9 7.8-10.5 5.1-7.3 11.4-9.7 20.1-8.3 4.9.8 9.4 1.8 14.5 1.2 6.3-.8 3.6 4.9.5 7.9-5.5 5.2-15.6 5.6-22.7 6.1-6.3.4-12.6.2-18.9 1.1-1.1.2-.6 1.8.5 1.6C60 18.8 97.1 23.1 93.3 1.3c-.1-.4-.6-.8-1.1-.6C82 4.6 72-1.8 61.6 1.4c-8 2.4-11.9 13.1-17.1 18.7-.8.9.5 2.1 1.2 1.3z"/><path class="icon-fruit" d="M48.2 19.1c14-5.2 29.6-6.6 42.2-15.1.9-.6.1-2.1-.9-1.5-12.5 8.3-28 9.7-41.8 14.9-1 .4-.6 2.1.5 1.7zM22.9 65.2c3.2 14.9 15.3 22.1 30 21.7 1.1 0 1.1-1.7 0-1.7-14 .4-25.3-6.2-28.4-20.4-.2-1.2-1.8-.7-1.6.4zm28.6-32.9c2.2 0 4.2-.8 6.1-1.9 1-.6.1-2-.9-1.5-1.7 1-3.3 1.6-5.3 1.7-1 0-1 1.7.1 1.7z"/></svg>