<svg xmlns="http://www.w3.org/2000/svg" viewBox="0 0 100 100"><style>.icon-fruit{fill:#29703d}</style><path class="icon-fruit" d="M36.4 48.4c-10.3.5-12 14.8-12.3 22.7-.5 13.7 8.6 25.7 22.3 27.9 13.8 2.2 21.7-8.5 24.2-20.7 2.1-10.5.3-27-10.8-32-.8-.4-1.6.9-.7 1.3 9.4 4.2 11.2 17.2 10.7 26.3-.8 11.7-7 23.2-19.8 23.8-13.8.6-23.9-11.7-24.5-24.6-.3-7.3 1.2-22.8 10.8-23.2 1-.1 1-1.5.1-1.5z"/><path class="icon-fruit" d="M42.8 49.4c-4.7-1.1-7.9-2.8-11.5-6-2.1-1.8-4.2-2.2-6.9-1.9.2.4.3.8.5 1.2 5.6-4.4 12.5-.8 16.3 3.8.5.6 1.4 0 1.2-.7-2.3-7.9-6.8-13.1-15-14.8.1.4.1.9.2 1.3 5.1-3.9 12.7-2.1 14.9 4.2.3.9 1.6.5 1.4-.4-1.4-7.2-5.4-13.4-11.1-18-1.7-1.4-3.6-2.6-5.3-4-3.1-2.5 2.8-.6 3.7-.3 6 2 10.6 6.8 14.1 11.8.5.6 1.6.3 1.3-.6C44 16.3 40.7 8.3 35.2 1c-.3.4-.5.7-.8 1.1 7.6 1.5 11.5 9.6 13.2 16.5.2.9 1.6.5 1.4-.4C47.2 10.9 42.9 2.3 34.8.7c-.5-.1-1.2.5-.8 1.1 5.4 7.2 8.7 15.1 11.2 23.7.4-.2.9-.4 1.3-.6C41 17.1 33.9 12 24.2 10.8c-.6-.1-.9.7-.6 1.1 2.3 3.6 6.2 5.7 9.4 8.3 5 4 8.3 10.1 9.5 16.3.5-.1.9-.3 1.4-.4-2.5-7-11.1-9.6-17-5.1-.4.3-.5 1.2.2 1.3 7.7 1.6 11.9 6.5 14 13.8.4-.2.8-.5 1.2-.7-4.5-5.2-12.3-8.4-18.4-3.7-.5.4-.1 1.3.5 1.2 4.5-.4 6.6 2.5 9.8 4.9 2.4 1.8 5.4 2.3 8.2 2.9.9.4 1.3-1 .4-1.3z"/><path class="icon-fruit" d="M49 18.4c.9-6.5 5.8-11.7 12.2-13-.2-.4-.5-.8-.7-1.2-5.8 4.6-9.9 11-10.5 18.5-.1.8 1 .9 1.4.4 4.5-7.2 14.8-9.9 22.8-10.5-.1-.5-.2-.9-.4-1.4-9.2 5.6-17.5 12.2-22.1 22.3-.3.7.6 1.6 1.1.9 5.3-6.2 15-8.7 22.9-7.7-.1-.5-.2-.9-.4-1.4-8.7 4.8-17.3 10.3-22.4 19.2-.4.7.6 1.5 1.1.9 4.2-5 12.6-8.5 19.1-7.3-.1-.4-.1-.9-.2-1.3C62.8 41.9 54.5 52.2 42 49.4c-.9-.2-1.3 1.2-.4 1.4 13 2.9 21.4-7.4 32.1-12.8.5-.3.4-1.2-.2-1.3-7-1.3-15.9 2.2-20.5 7.7.4.3.8.6 1.1.9 4.9-8.7 13.4-14.1 22-18.7.7-.4.3-1.3-.4-1.4-8.2-1.1-18.4 1.6-23.9 8.1.4.3.8.6 1.1.9 4.5-9.9 12.5-16.2 21.6-21.8.6-.4.4-1.4-.4-1.4-8.5.7-19.2 3.6-24.1 11.3.5.1.9.2 1.4.4.6-7.1 4.7-13.2 10.1-17.5.6-.5-.1-1.3-.7-1.2-6.9 1.4-12.3 7.1-13.2 14-.1 1 1.2 1.3 1.4.4z"/><path class="icon-fruit" d="M50.7 29.7c1.5-3.3 3.8-6 6.5-8.3.7-.6-.3-1.6-1-1-2.8 2.4-5.2 5.2-6.8 8.6-.3.8.9 1.6 1.3.7zm1.8 9.7c1-2 2.4-3.7 4.1-5.1.7-.6-.3-1.6-1-1-1.8 1.5-3.3 3.3-4.4 5.4-.3.8.9 1.5 1.3.7zm-8.8-.2c.4 1.5.9 3 1.7 4.4.5.8 1.7.1 1.3-.7-.7-1.3-1.1-2.7-1.5-4.1-.3-.9-1.7-.5-1.5.4zm-19 26.5c1 11.5 7.3 23.7 16.7 30.5.8.5 1.5-.7.7-1.3-9-6.5-15-18.3-16-29.3 0-.8-1.5-.8-1.4.1zm3.4-9.9C34.6 70.4 41 85.6 54.2 95.4c.8.6 1.5-.7.7-1.3-13-9.6-19.3-24.8-25.6-39.1-.4-.8-1.6-.1-1.2.8zm10.2-5.7c5.7 14.1 13.3 28.6 26 37.6.8.5 1.5-.7.7-1.3-12.3-8.8-19.7-23-25.3-36.7-.4-.8-1.8-.4-1.4.4zm12.6.8c4.9 8.4 10.8 15.9 18.6 21.7.8.6 1.5-.7.7-1.3-7.6-5.6-13.4-13-18.1-21.1-.4-.8-1.7-.1-1.2.7z"/><path class="icon-fruit" d="M27.2 82.1c14.6-7.8 28.7-18.4 35.4-34 .4-.9-.9-1.6-1.3-.7-6.6 15.4-20.5 25.8-34.9 33.5-.7.4 0 1.6.8 1.2zM25.6 70c8.3-3.7 15.3-10.2 20.3-17.8.5-.8-.7-1.5-1.3-.7-4.8 7.3-11.6 13.6-19.7 17.2-.9.4-.1 1.6.7 1.3zm1.7-11.3c4.5-1.4 8.2-4.3 11.6-7.5.7-.6-.3-1.7-1-1-3.2 3-6.7 5.8-11 7.1-.9.3-.5 1.7.4 1.4zm5 32.2c15.4-2 28.5-17.6 34.8-30.9.4-.8-.9-1.6-1.3-.7-6 12.7-18.7 28.2-33.5 30.1-.9.1-.9 1.6 0 1.5zm11.9 7c11.1-3.2 20.3-11.7 26.3-21.3.5-.8-.8-1.5-1.3-.7-5.8 9.3-14.7 17.6-25.4 20.7-.9.2-.5 1.6.4 1.3z"/></svg>