<svg xmlns="http://www.w3.org/2000/svg" viewBox="0 0 100 100"><style>.icon-fruit{fill:#29703d}</style><path class="icon-fruit" d="M92.9 40.1c-10.4 12-24.4 21.8-40.6 23.5C33.5 65.4 17.1 50 9.1 34.3c-.1-.2-.4-.3-.6-.3-11.4-.4-6.7 15-4.5 21.2 4.7 13.3 12 21.9 25 28 15.5 7.2 34.4 8.9 49.3-.6C85.8 77.8 90 70.5 91.8 62c.6-2.8 1-5.6 1.7-8.4.8-3.1 3-3.8 4.7-5.8 1.9-2.2-.2-7.2-.2-9.5 0-.5-.5-.8-.9-.7-6 1.4-4.1 5.9-1.1 9.4.5.6 1.4-.1 1.2-.7-.6-2.6-1-5.2-1.5-7.7-.2-.9-1.6-.5-1.4.4.5 2.5 1.3 4.7 2.2 7.1.3.9 1.8.5 1.4-.4-.9-2.4-1.7-4.6-2.2-7.1-.5.1-1 .3-1.4.4.6 2.6 1 5.2 1.5 7.7.4-.2.8-.5 1.2-.7-2.1-1.6-2.3-3.6-.6-5.9 0 1.1.4 2.6.7 3.6 1.2 5.5-2 3.7-3.5 6.2-3.4 5.1-3 12.1-4.9 17.8-4.5 13.4-20.2 20.2-33.3 20.1-13.3-.1-27.1-4.8-37.6-13.1-6.4-5.1-9.7-12.4-12.5-19.9-1.4-3.9-2.5-8-2.8-12.1-.1-1.8.1-3.7 1-5.3 2-3.8 4.8-1.1 6.2 1.3 5.4 9.5 15 19.5 25.3 23.6 22 8.8 44.7-4.7 58.9-21.1.6-.8-.4-1.9-1-1.1z"/><path class="icon-fruit" d="M95.9 38.4c-.6-1.3-1.2-2.6-1.8-3.8-.1-.4-.3-.6-.7-.6-2.3 0-5.7 3.2-7.6 4.4-4.3 2.6-8.7 4.9-13.4 6.6-11 4-22.6 1.9-32.8-3.1-9.5-4.7-17.3-12.4-23.3-21.1-2.6-3.7-3-11-8.8-10.6-.4 0-.7.3-.7.7v.6c0 .4.3.8.7.7 1-.1 2.5 0 3.1-1 .3-.6-.2-1.2-.8-1.1-9.5 1.5-5.9 17.1-3.9 23.2.3.9 1.7.5 1.4-.4C5.6 27.8 2 13 10.2 11.7c-.3-.4-.6-.7-.8-1.1-.5 0-.9.2-1.1.7 2.1 1 3.5 2.7 4 4.9.5 1.3 1 2.6 1.7 3.9 2 3.8 5.3 7.4 8.2 10.6 6.1 6.5 13.6 11.6 21.8 15 8.6 3.5 18 4 27 1.5 4.2-1.2 8.2-3.2 12.1-5.3 2.3-1.3 4.6-2.7 6.8-4.1 3.1-1.9 3.3-1.4 4.7 1.5.4.7 1.7-.1 1.3-.9z"/><path class="icon-fruit" d="M4.3 37.3c.7-.3 1.5-.3 2.2-.5.9-.2 1.6-.6 2.1-1.3.4-.5.2-1.3-.5-1.3s-1.5.2-2.2.4c-.4.1-1.3.2-1.6.6-.3.4-.3 1.1.3 1.2.4.1.8-.1 1.2-.2.9-.2.5-1.7-.4-1.4-.1.2-.2.2-.4.2-.3.1-.4 0 .1.1l.3 1.2c-.1.2-.4.2-.2.1.1 0 .2-.1.4-.1.3-.1.6-.2.9-.2.5-.1 1.1-.3 1.6-.3-.2-.4-.4-.8-.5-1.3-1 1.2-2.4.9-3.7 1.4-.9.3-.5 1.7.4 1.4zm3.1-24c3.3 13.9 11.8 26.2 22.4 35.5.7.6 1.8-.4 1-1-10.5-9.2-18.8-21.2-22-34.9-.2-.9-1.6-.5-1.4.4zm30 39.4c12.1 6.2 27 6.8 39.4 1.2.9-.4.1-1.7-.7-1.3-11.9 5.4-26.3 4.7-37.9-1.2-.9-.5-1.6.8-.8 1.3z"/><path class="icon-fruit" d="M4.9 36.6c3.7 28.1 36.4 46.8 62.7 36.9.9-.3.5-1.8-.4-1.4C41.9 81.5 10 63.8 6.4 36.6c-.1-1-1.6-1-1.5 0zm69.7 34.3c8.9-6.4 12.2-16.5 18.7-24.8.6-.7-.5-1.8-1-1-6.4 8.2-9.7 18.3-18.4 24.6-.8.5-.1 1.7.7 1.2z"/></svg>