<svg xmlns="http://www.w3.org/2000/svg" viewBox="0 0 100 100"><style>.icon-fruit{fill:#29703d}</style><path class="icon-fruit" d="M22.3 40.9c.2-.8 0-1.6-.2-2.3-.5-2.2-1-4.4-1.2-6.6-.2-3.5.4-6.9 1.6-10.1.4-1 .5-2 .8-3.1.1-.3.1-.6.4-.7.4 0 .5.3.6.6.5 1.4 1.1 2.7 1.6 4.1.8 1.9 1.1 3.8 1.3 5.8.2 2.2.1 4.4-.2 6.5-.1 1-.5 1.9-1.1 2.7l-2.4 3.3c-.4.6-.5 1.2-.2 1.9.6 1.3 1.1 2.6 1.7 3.9 1.1 2.6 1.9 5.4 2.7 8.1.1.3.2.6.3 1.1.7-1.2 1-2.3 1.1-3.5 0-.8 0-1.5-.1-2.3-.2-2.1-.2-4.3.1-6.4.6-3.5 2.1-6.6 5.2-8.7 1.7-1.1 3.3-2.4 4.9-3.6.6-.5 1.1-1.1 1.7-1.7.2-.2.3-.4.5-.5.2-.1.4-.1.6 0 .1 0 .1.3.1.5s-.2.4-.3.5c-1.2 1.9-1.6 4-1.8 6.1-.1 1.6-.2 3.3-.4 4.8-.8 4.8-3.1 8.7-7.3 11.4-1 .7-2 1.4-2.8 2.3-.5.5-.8 1.4-1.1 2.1-.1.2.1.5.1.8.5 2.4 1.1 4.7 1.4 7.1.3 2.1.2 4.3.2 6.5v2.2c.2-.4.4-.5.4-.7 1.5-2.9 3.3-5.6 5.7-7.9 2.2-2.2 4.6-4.2 7.2-6 3.4-2.3 6.6-4.9 9.4-7.9l.5-.5c0-.1 0-.2-.1-.3-3.2-4.6-5.4-9.7-6.8-15.2-.1-.5-.4-.8-.8-1.2-1.2-1-1.9-2.3-2-3.8v-1c-1.8-1.7-2.3-4.7.3-6.5v-.6c-.2-1.2.2-2.2 1.3-2.7.4-.2.6-.6.8-1 .4-1.2 1.2-2 2.3-2.4.5-.2.8-.5 1-.9.3-.6.7-1.3 1.1-1.9.5-.7 1.1-1 2-.8.4.1.7 0 1-.2.5-.3 1-.6 1.6-.8.2-.1.6-.1.8 0 .6.4 1.1.1 1.7-.1.5-.2 1.1-.3 1.7-.3.3 0 .7 0 .8.2.6.7 1.2.4 1.9.2 1.4-.4 2.8-.5 4.1.3.8.5 1.2 1.2 1.7 1.9 1 .3 2 .3 2.8 1 .1.1.4.1.7.1 2.2-.2 4.1.7 5.7 2.1.3.3.5.7.8 1.1 2-.6 3.4.2 4.3 2.2h.9c1.2.1 1.8.7 2 1.8v.8c.1.8.3 1.5 1 2.1 1.4 1.1 2.1 2.6 2.1 4.4 0 .3.1.6.3.9.8 1.4 1 2.8.5 4.3-.2.5-.5 1-.1 1.6-.2 1 .3 2 .5 3 .2 1.1-.1 2.1-1 2.9-.5.5-1.1.9-1.7 1.4.1 1.9-.7 2.8-2.6 3.1-.2 0-.5.2-.7.3-.9.7-1.9.7-2.7 0-.4-.3-.7-.4-1.2-.3-.3.1-.6.1-1 .2h-1c0 .2-.1.4 0 .5.3 3.5-.9 6.7-2.8 9.6-1.2 1.7-2.6 3.2-4.3 4.6-1.2.9-2.2 2.1-3.2 3.2-.1.1-.1.2-.1.4.6.4 1.2.4 1.8.1.9-.5 1.9-.9 2.7-1.5 1.2-.9 2.3-1.8 3.4-2.7 1.7-1.4 3.3-2.7 5.1-3.9 2.4-1.6 5.2-2.4 8.1-2.3 2.5 0 5 .1 7.6.1 1.1 0 2.2-.2 3.3-.4.1 0 .3-.1.4-.1.5 0 .7.3.4.7-2.7 4.2-6 7.7-11.3 8.6-1.5.3-3 .5-4.5.6-1.7.2-3.3-.3-4.9-.6-1.8-.4-3.6-.5-5.4-.1-.3.1-.6.1-.8.3-1 .6-2 1.2-3.1 1.9.2.4.5.2.8.1 2-.8 4.2-1 6.3-1 1.5 0 3 .2 4.5.5 2.2.3 4 1.5 5.7 2.7 2.2 1.6 4.6 3 7.2 4 .1 0 .3.1.4.2.1.2.3.4.3.6 0 .3-.3.4-.6.3-.8-.2-1.6-.4-2.4-.4-1.7-.1-3.3.3-4.9.6-1.5.3-3.1.5-4.6.7-1.5.2-2.9-.3-4.3-.6-2-.5-3.7-1.4-5.2-2.8-1.1-1-2.3-1.9-3.1-3-.6-.8-1.4-1-2.2-1.2-3-.7-6.1-.6-9.2-.4-.1.5-.2 1-.3 1.6 1.1 1 1.7 2.3 2.4 3.6 1.7 3.4 2.1 6.9 1.3 10.5-.4 1.7-.7 3.4-.6 5.2v.4c-.2-.4-.3-.2-.4-.2-.1 0-.3-.1-.4-.2-.1-.1-.2-.4-.2-.5-.3-1.5-1.1-2.8-1.9-4-.7-1.1-1.5-2.3-2.2-3.4-1.5-2.7-1.6-5.5-.4-8.4.5-1.2 1-2.4 1.4-3.6.1-.4.2-.7.4-1.3h-1.4c-2.4.1-4.7.6-7 1.1-6.9 1.6-12.7 5.2-17.4 10.4-.9 1-1.7 1.9-2.6 2.9-.4.4-.6.8-.7 1.4-.4 2.1-.4 4.2 0 6.3.1.3.1.7.1 1-.6.2-.7-.1-.8-.4-.1-.7-.3-1.4-.3-2.1 0-1.8-.1-3.6.1-5.4.1-1.1.6-2.2 1-3.2.6-1.2.8-2.5.7-3.9v-5.9c0-2.8-.7-5.5-1.3-8.1-.2-.7-.4-1.5-.5-2.2-1.2.2-2.2.6-3 1.4-.9 1-1.7 2-2.7 2.9-2.3 2.2-5.1 3-8.2 2.6-1.5-.2-3-.7-4.4-1.2-1.7-.7-3.5-1.3-5.3-1.5H2.6c-.3 0-.7-.1-.6-.5 0-.2.3-.4.5-.5.9-.1 1.7-.7 2.3-1.3 1.7-1.6 3.7-2.8 5.8-3.7 2.6-1.1 5.3-1.5 8.1-1.1 1.1.2 2.2.2 3.3.4 1.3.2 2.5.5 3.8.8.3.1.7.1 1.2.2-1.1-4.9-2.8-9.4-4.9-13.7-1-.1-1.5.3-1.9 1.1-.2.4-.6.8-.9 1.1-2.4 2.2-5.2 3.8-8.2 5-1.4.6-2.8.6-4.3.6H3.3c-.9 0-1.7.2-2.6.3-.2 0-.5-.1-.7-.1.1-.2.1-.5.2-.7 1.9-1.5 3.9-3 5.8-4.5 2.3-1.7 4.9-2.4 7.7-2.8 2.3-.3 4.5-.5 6.8-.8.3 0 .5-.1.9-.2-.1-.3-.2-.5-.3-.7-.7-1.2-1.4-2.4-2.2-3.6-.3-.5-.7-.7-1.4-.8-1.6-.2-3.3-.4-4.9-1-3.4-1.2-5.8-3.4-6.9-6.9-.5-1.7-1-3.4-1.6-5.1-.4-1.3-.9-2.6-1.8-3.6-.1-.2-.1-.5-.1-.7.2 0 .5-.1.7-.1.8.3 1.6.7 2.3 1.1 3.5 1.9 6.6 4.4 9.3 7.4 1.6 1.8 3 3.8 3.8 6.2.9 2.9 2.7 5 4 7.4zm26.5-7.7c.4-.2.7-.3 1-.5.9-.4 1.1-.3 1.6.5.1.2.4.6.6.6.5.1 1.2.2 1.6 0 1.2-.6 1.9-.2 2.6.8.7 1 1.1 1 2.1.3.4-.2.7-.3 1 .1.4.4.8.5 1.3.4.5-.1.7.1.7.7v.7c.2.8.7 1.1 1.6.9.6-.1 1.1-.1 1.6.5.2.3.6.4.9.5.3.1.6.1.9.1.8.1 1 .3 1.1 1 0 .2 0 .3.1.5.4 1.6 1.2 2.1 2.8 1.9h.1c.7-.2 1.1 0 1.5.6.4.7.7 1.6 1.5 1.9 1-.2 1.5-.8 2-1.4.2-.2.4-.6.6-.8.2-.2.4-.4.6-.4.4 0 .4.4.4.7v1.3c0 .5.1 1 .1 1.5.7 0 1.3.1 1.8 0 .9-.3 1.6-.2 2.3.5.4.4 1.2.4 1.4-.1.3-.5.7-.5 1.2-.5 1.3 0 2-.6 1.9-1.9 0-.5.1-.9.6-1.2.5-.4 1-.7 1.5-1.2.9-.9.9-2 .2-3.1-.1-.2-.2-.4-.2-.6.1-.6.3-1.1-.2-1.7-.1-.1 0-.5.1-.8.1-.3.3-.7.4-1 .3-1.2.3-2.4-.6-3.5-.5-.5-.6-.8-.5-1.2.1-.9-.1-1.8-.6-2.6-.4-.7-.9-1.2-1.6-1.7-.2-.2-.5-.4-.6-.7-.2-.7-.4-1.3-.4-2 .1-1.2-.5-1.7-1.7-1.4-.6.1-.9 0-1.1-.5-.2-.4-.4-.7-.6-1-.6-.7-1.3-1-2.2-.8-.2.1-.4.1-.7.2-.4.1-.7 0-.8-.4-.3-1.1-1.2-1.5-2.1-2-1.2-.7-2.5-1.2-4-.8-.2.1-.6 0-.6-.1-.6-.9-1.5-.8-2.4-1-.5-.1-.7-.3-1-.7-.8-1.5-1.9-2.1-3.6-1.8-.7.1-1.3.3-1.9.5-.5.2-.9.2-1.3-.2-.4-.5-.9-.5-1.4-.4-.5.1-1 .3-1.4.5-.4.2-.8.3-1.2 0-.3-.3-.7-.2-1 0-.6.2-1.1.5-1.4 1.1-.1.2-.3.3-.4.4-1.1-.8-1.3-.8-2 .3-.3.5-.6 1-.9 1.6-.3.5-.6 1-1.2 1.1-1.1.3-1.8 1.1-2.1 2.2-.1.4-.5.9-.8 1.1-1 .6-1.4 1.3-1.1 2.4.2.6-.1 1-.6 1.3-.8.4-1.1 1.2-1.2 2.1-.1 1 .3 1.9 1 2.6.3.3.6.6.5 1-.3 1.3.3 2.3 1 3.3.6.9 1 1 1.9.3.6-.7.6-.7 1.3 0zm11.8 16.2c-1.4.2-2.7.4-4 .6-1 .1-1.9.6-2.5 1.3-3.1 3.3-6.6 6.1-10.3 8.7-2.6 1.8-5 3.9-7.2 6.1-1.8 1.8-3.3 3.9-4.5 6.1-1 1.8-1.7 3.7-2.6 5.6v.6c7.1-8.9 16.2-13.2 27.3-13.8-.1-.4-.1-.6-.2-.9-.2-1-.4-2-.5-3-.2-2.9.7-5.6 2.3-8 .6-1.1 1.4-2.2 2.2-3.3zm-20.7-17c-1.6 1.1-3.1 2.3-4.6 3.3-3.5 2.3-5.1 5.6-5.3 9.6-.2 2.6 0 5.3 0 8 .4-.3.6-.4.9-.6l.9-.6c4.2-2.7 6.4-6.6 7.1-11.5.3-2.7.2-5.4 1-8.2zm58.2 23h-4.8c-1.6 0-3.2-.1-4.8-.1-3.5-.1-6.6 1.1-9.4 3.1-1.4 1-2.7 2.2-4.1 3.3-.1.1-.2.3-.4.5 1.8-.3 3.3 0 4.9.3 1.9.4 3.8.7 5.8.5 1.4-.2 2.8-.4 4.1-.8 3.8-1.1 6.7-3.3 8.7-6.8zm-72.2 1.5c-.4-.1-.7-.2-1-.3-2.2-.6-4.4-.7-6.7-1-2.8-.4-5.4.2-7.9 1.4-1.8.9-3.5 2-5 3.4-.2.2-.3.4-.5.5 2.2.8 4.3 1.5 6.5 2.2 1.2.4 2.5.7 3.8.7 2.8 0 5.1-1.2 6.8-3.3 1.2-1.4 2.3-2.8 4-3.6zM66 64.5l.3-.9c.1-1.5.3-3 .3-4.5-.1-5.3 1.6-9.8 5.8-13.2.2-.2.4-.3.4-.4-.4-.5-.8-.9-1.1-1.3-1.8 1.1-3.6 2.1-5.4 3.1-.7.4-1.1.8-1 1.6 0 .5-.1 1-.1 1.5-.3 2.4-.9 4.7-2.2 6.8-1 1.6-2.2 2.9-3.5 4.2l-1.8 2.1c-.3.3-.2.6 0 .9 2.7.1 5.5.1 8.3.1zm25 6.7c-.4-.2-.6-.4-.8-.5-1.1-.7-2.2-1.3-3.2-2-2.3-1.7-4.8-3-7.8-3.2-2.6-.2-5.2-.3-7.8.5-.3.1-.6.3-1.1.5.4.5.7.8 1 1.1l2.1 1.8c3 2.6 6.4 3.5 10.3 3 2.4-.3 4.7-.8 7.3-1.2zm-23.7-8.8c1-.8 1.7-1.6 2.6-2.2 2.7-2.1 4.7-4.8 5.9-8.1 1-2.7.7-5.4.3-8.1-1.3 1.1-2.5 2.2-3.7 3.2-2.6 2.1-3.9 4.9-4.5 8.1-.5 2.3-.4 4.6-.6 7.1zM18.1 35.7c-.8-2.9-2.2-5.3-4.1-7.4-2.6-3-5.7-5.5-9.2-7.4-.2-.1-.5-.2-.8-.4.1.3.2.4.2.6.6 1.7 1.2 3.5 1.8 5.2.3.9.6 1.9 1 2.8.5 1.4 1.4 2.5 2.6 3.5 2.4 2.2 5.3 2.8 8.5 3.1zm6-15c-3 6.3-2.7 12.6-.7 19.1.8-1.1 1.5-2 2.2-3.1.3-.5.5-1.1.6-1.7.5-2.7.4-5.4.1-8.1-.4-2.2-1.2-4.3-2.2-6.2zm23 13.6v.3c1.1 4.8 3.2 9.2 5.5 13.5.1.2.3.5.4.7.1.1.2.2.5.4-.2-5 .5-9.7 1-14.6-1.6.5-3.1.7-4-1.1-.4.2-.7.4-1 .5-.4.1-.8.3-1.1.2-.6-.4-.9-.2-1.3.1zm7.3 15.2c3.2-3.4 6.2-6.8 8.4-10.9-1.6 0-2.2-1-2.5-2.1-.6-.2-1.1-.4-1.4-.6-1.7 0-2.2 1.3-2.8 2.3l-.9 1.5c-.2.3-.3.6-.3.9-.3 2.6-.6 5.2-.4 7.8-.1.4-.1.7-.1 1.1zm16.7-6.6c-.3 0-.7.1-1 .1-1.1.2-2-.1-2.6-1-.3-.5-.5-1.1-.8-1.6-.1-.2-.2-.5-.2-.8-.9-.2-1.9-.1-2.6-.8-1.2 1.8-2.3 3.6-3.6 5.3-1.3 1.7-2.7 3.3-4.1 5 1.9.1 3.5-.5 5.1-1.1.3-.1.5-.4.7-.6.8-1.1 1.5-2.3 2.2-3.4.1-.1.1-.3.3-.4.3-.3.7-.2.7.2v.8c-.1.8 0 1.5.1 2.3 2.4-1.1 5.4-3 5.8-4zm-14 19.8c1.4-1.5 2.6-2.8 3.8-4.2 1.4-1.6 2.3-3.4 2.8-5.4.6-2.1.7-4.2.6-6.3 0-.2 0-.5-.1-.7-.7.8-1.2 1.6-1.8 2.4-1.1 1.5-2.3 2.9-3.3 4.5-.7 1-1.2 2.1-1.6 3.2-.7 2-.9 4.1-.4 6.5zm.5 5.1c-.6 1.6-1.2 2.9-1.6 4.3-.7 2.4-.2 4.6 1.1 6.7.9 1.4 1.8 2.8 2.7 4.3.1.2.3.3.4.5 1.8-5.6 1.2-10.9-2.6-15.8zM19.5 43c0-.1-.1-.2-.1-.3-1.1.1-2.3.2-3.4.4-2 .3-4.1.5-6 1.2-2.8 1-5 2.9-7.1 4.9.1 0 .2.1.3.1 1.6 0 3.3.1 4.9 0 1-.1 2-.2 2.9-.6 2.8-1.1 5.4-2.6 7.7-4.6.2-.4.5-.8.8-1.1zm36.9-6.9c-.3-.3-.6-.5-1-.9-.1 1-.2 1.9-.4 2.7.1 0 .1 0 .2.1.4-.6.8-1.2 1.2-1.9z"/><path class="icon-fruit" d="M85.3 34.9c-.4.7 0 1.5 0 2.3 0 .9-.1 1.8-.3 2.6-.1.5-.5.9-.8 1.3-.1.1-.4.2-.5.1-.1-.1-.1-.3-.2-.5v-.1c1-.7.4-2 .9-2.9.2-.3 0-.9-.2-1.3-.1-.4-.2-.7 0-1 .4-.9.2-1.5-.6-2.2-.1-.1-.2-.4-.2-.6.2 0 .5-.2.7-.1.9.5 1.1 1.3 1.2 2.4zm-37.4-7c-.7-.3-1.3-.7-1.4-1.5v-.7c0-.3.1-.6.5-.6s.3.4.3.7c-.1.5 0 1 .6 1.1.9.1 1 .7.9 1.4.3.2.6.4.8.6.1.1.2.4.1.5-.1.1-.4.2-.5.1-.7-.2-1.3-.6-1.3-1.6zm22.8 10.9c.7.3 1.3.5 1.9.2.1 0 .4.2.4.3.2.3.3.6.4.9v.4c-.1.1-.3.1-.4.1-.1 0-.1 0-.2-.1-.6-.8-1.5-.7-2.2-1-.3-.1-.6-.2-.4-.5 0-.1.3-.2.5-.3zm-9.5-22.3c-.7-.2-.9.1-1.3.3-.1.1-.5.2-.6.1-.3-.2-.2-.5.1-.7.4-.3.8-.5 1.2-.7.4-.1.8-.1 1.3-.2.2 0 .4.1.5.2 0 .1-.1.4-.2.5-.4.3-.8.4-1 .5zm-5.8 7c-.1-.8.1-1.4.7-1.8.2-.1.4-.1.6-.1 0 .2.1.5 0 .6-.4.4-.6.8-.3 1.3.1.1 0 .3-.1.5-.1.3-.2.6-.6.5-.1 0-.2-.4-.3-.6v-.4zm4.4 8.1c-.2.2-.3.3-.5.4-.5.1-1.4-.4-1.5-.9-.1-.2 0-.6.2-.8.3-.2.4.1.6.3.2.2.5.4.8.6l.4.4zm6.3 3c-.3-.1-.6-.3-.9-.5-.2-.1-.2-.3-.2-.4.1-.1.3-.2.4-.2.4 0 .7.1 1 .2.2 0 .4.2.4.3 0 .1-.1.4-.3.5 0 0-.2 0-.4.1zm10.8-5.1c.4-.4.8-.2 1 .1.3.3.5.7.3 1.2-.1.3-.5.3-.6 0-.2-.4-.4-.8-.7-1.3zm-14.7-3.1c-.2-.2-.5-.3-.5-.5-.1-.4.3-.4.5-.4.3 0 .5-.1.8-.2.1 0 .3.1.4.2 0 .1 0 .4-.1.4-.3.2-.7.4-1.1.5zm13 11.1c-.1-.1-.3-.2-.4-.4-.1-.3.4-.6.8-.5.2 0 .5.3.5.5.1.4-.3.4-.9.4zM37.6 41c.1.2.3.3.3.5s-.1.4-.3.5c-.7.6-1.5 1.2-2.3 1.8-.1.1-.2.1-.3.1-.2 0-.4 0-.5-.1-.1-.1 0-.4.1-.5 0-.1.2-.2.3-.2.7-.5 1.4-1.1 2.1-1.6.2-.2.4-.3.6-.5zM35 46.6c-.2-.1-.4-.2-.5-.3 0-.1 0-.4.1-.4l1.2-.6c.1 0 .3.1.4.2.1.1 0 .4-.1.4-.2.2-.6.5-1.1.7zm-.1 1.5c-.3.2-.5.4-.7.4-.1 0-.3-.3-.4-.4.2-.1.4-.3.6-.3.1-.2.3 0 .5.3zm57.4 10.2c.1.1.3.2.3.4 0 .1-.2.4-.4.5-.6.1-1.2.2-1.9.3l-5.1.3c-1.5.1-3 .3-4.5.8-.1 0-.3.1-.4.1-.1 0-.3-.1-.4-.2 0-.1 0-.4.1-.4.2-.2.5-.3.8-.4 1.2-.3 2.4-.6 3.6-.7 1.5-.2 3-.1 4.5-.2 1.1-.3 2.2-.4 3.4-.5zm-5.2-.1c-.2-.2-.4-.4-.4-.5 0-.2.1-.4.2-.5.3-.3.5-.7 1-.5.1 0 .2.3.2.4-.3.3-.6.7-1 1.1zm-3.5-1.1c.2.3.4.4.4.6.1.4-.2.8-.5.7-.2 0-.4-.3-.4-.3.1-.4.3-.6.5-1zm7.8.7c-.2-.3-.4-.4-.4-.5 0-.3.4-.7.7-.7.1 0 .3.2.3.3-.1.3-.3.5-.6.9zM17 59.4h-.5c-.2-.1-.3-.2-.5-.4.1-.1.3-.3.5-.4.2-.1.4-.1.6-.1l3-.3c.2 0 .4.2.6.3-.2.2-.3.5-.5.5-1 .2-2.1.3-3.2.4zm.6 2.5c.5-.7 1.3-1.3 2-1.8.1-.1.4 0 .4.1.1.1.1.4 0 .5-.5.5-1.1 1-1.7 1.5-.1.1-.4 0-.6 0-.1-.1-.1-.2-.1-.3zm-1.7-.4c-.1.2-.1.3-.2.3-.4.2-.7.5-1.1.7-.1 0-.3-.1-.4-.1-.1-.1-.1-.3 0-.4.4-.3.8-.5 1.2-.8.2 0 .4.2.5.3zm-4.2.6c-.1-.1-.4-.2-.4-.4 0-.1.2-.3.3-.4l.9-.3c.2 0 .4.2.6.3-.1.2-.1.4-.3.5-.3.1-.7.2-1.1.3zm64.6 6.4c.1 0 .2.1.3.2.4.4.9.8 1.3 1.2l.3.3c0 .2.1.4 0 .5 0 .1-.3.1-.4.1-.6-.5-1.2-.9-1.7-1.4-.4-.4-.2-.8.2-.9zm3.5 1.4l-.3.3c-.3-.3-.6-.6-.8-1 0 0 .2-.3.4-.3.3-.1.8.5.7 1zm-66.6-38c0 .4-.2.6-.5.5-.1-.1-.3-.2-.4-.3-1.7-1.7-3-3.7-4-5.9 0-.1-.1-.2-.1-.3 0-.2 0-.6.1-.7.3-.2.6.1.7.4.5.9.9 1.9 1.4 2.7.7 1 1.5 2 2.3 3 .2.2.4.5.5.6zm-3.4-2.6c-.4.2-.6.4-.8.5-.3.1-.6 0-.5-.4 0-.2.3-.4.5-.4.1-.1.3.1.8.3zm1.4 2.6c-.3.2-.4.4-.6.4-.1 0-.2-.2-.4-.3.2-.1.3-.4.5-.4.1-.1.3.2.5.3zm1.3-3.2c-.2.2-.5.4-.5.4-.2-.1-.3-.3-.4-.5 0-.1.3-.4.3-.4.2.2.3.3.6.5z"/></svg>