<svg xmlns="http://www.w3.org/2000/svg" viewBox="0 0 100 100"><style>.icon-fruit{fill:#29703d}</style><path class="icon-fruit" d="M61.4 24.5c.8-.6 1.6-1.2 2.3-1.8.8-.6 1.5-1.4 1.7-2.5.2-.6.3-1.3.6-1.9.3-.7.6-1.5 1.1-2.1.6-.8 1.2-.9 2.1-.4l.6.3c1.1.4 1.8.1 2.5-.8.3-.4.5-.9.8-1.3.7-1 1.2-1.1 2.2-.5 1.4.7 2.2.6 3.4-.5.3-.3.7-.7.9-1.1.8-1.4 2-2 3.5-2.1.7 0 1.4 0 2.1.1 1 .1 2 .1 2.9-.4.9-.4 1.8-.5 2.8.1.4.3 1 .3 1.6.2.6 0 1.2-.3 1.8-.4.5-.1.8.1.8.6.1.9.1 1.7-.3 2.6-.8 1.7-1.2 3.5-1.2 5.4 0 .5 0 1 .2 1.4.3.8.2 1.4-.2 2.1-.3.5-.7 1-1.1 1.4-1.4 1.5-1.8 3.2-1.7 5.2.1 1.6-.2 3-.9 4.4-.8 1.8-2.1 3.1-3.9 3.9-1.3.7-2.7 1.3-4.1 1.8-1.7.7-3 1.7-3.8 3.4-.7 1.5-2 2.3-3.5 2.5-.9.1-1.5.5-1.9 1.3-.9 2-2.4 2.8-4.5 3.1-.3 0-.6.2-1 .2-1 .1-1.8.6-2.4 1.3-2.2 2.3-4.4 4.6-6.6 6.8-.9.9-1.9 1.7-2.7 2.6.3-.1.5-.2.7-.4 5.2-3 10.8-4.9 16.7-6.1 1.2-.3 2.5-.3 3.7-.4.7-.1 1.3.1 1.8.6.4.4.8.3 1.3.2 1.7-.4 3.5-.7 5.2 0 .9.3 1.6.7 1.8 1.7.1.5.5.7.9.8 1 .3 2.1.6 3.1 1 1.3.5 2.6 1.1 3.9 1.8 1 .5 1.9 1.3 2.2 2.4.3 1.1.9 1.9 1.7 2.6 1 .9 1.3 2.2.7 3.3-.7 1.4-.5 2.7.1 4 .2.3.3.7.4 1 .4 1 .1 1.7-1 1.9-1.7.3-3.3-.1-4.8-.7-1.4-.5-2.8-1-4.1-1.5-.6-.2-1.1-.5-1.6-.9-.8-.6-1.5-1.2-2.6-1.3-1.5-.1-2.5-1-3-2.3-.5-1.2-1.2-2-2.3-2.6-1.1-.5-2-1.5-2.4-2.6-.3-.7-.4-1.4-.4-2.1 0-.6-.2-1-.7-1.2-1-.5-1.9-1.2-2.9-1.5-2.3-.8-4.6-.9-7-.6-2 .3-3.9.9-5.8 1.8-2.2 1.1-4.4 2-6.7 3.1.5.6 1 1.2 1.4 1.7 2.6 2.9 4 6.4 4 10.3 0 1.5 0 2.9-.1 4.4-.2 3.2-1.7 5.8-3.8 8.1-1.5 1.7-3.6 2.6-5.8 3.3-2.8.9-5.7 1.6-8.7 1.4-1.1-.1-2.3-.2-3.4-.5-3.1-.8-6.1-1.6-9.2-2.4-2.5-.6-5-1-7.5-1.1-1.7 0-3.3.5-4.9 1.1-2.4.9-4.3.8-5.8-1.6-.1-.2-.3-.4-.4-.7-.4-.6-.9-.9-1.7-.8-.2.3-.5.4-.8.4-.9 0-1.6-.2-2.2-1-.4-.5-.8-1-1.2-1.4-.5-.5-1-.8-1.7-.8-.7.1-1.3.4-1.5 1.1-.1.3-.1.6-.5.6-.4-.1-.5-.5-.5-.9.1-.7 1-1.6 1.8-1.7 1.2-.2 2.2 0 3 .9.4.4.8.9 1.1 1.4.5.6 1.1 1 1.9.8.2 0 .4 0 .5-.1 1.1-.2 1.9.2 2.5 1.1.2.4.5.8.7 1.1 1.1 1.5 2.7 1.7 4.1.6 2-1.6 3.4-3.6 3.9-6.2.8-3.5 1-7.1.7-10.7-.1-1.4 0-2.8.1-4.2.3-3.4 2.1-6.1 4.4-8.5 2.2-2.2 4.9-3.8 7.9-4.6 2.5-.7 5.1-.7 7.7-.3 2.3.3 4.4 1 6.4 2.3 1.5.9 2.7 2.3 3.9 3.5l.9.9c.1-.2.3-.3.3-.4 1-2.4 1.9-4.8 2.2-7.3.2-1.5 0-2.8-.7-4.2-.3-.5-.5-1-.7-1.5-.4-.9-.5-1.7-.1-2.7.2-.5.2-1.2.2-1.8 0-.6-.2-1.2-.4-1.8-.3-1-.2-2 .3-3 .4-.7.6-1.4.8-2.1.4-1.3.3-2.7-.1-4-.2-.9-.1-1.6.2-2.4.8-1.8.7-3.6.7-5.5 0-.2-.1-.4-.1-.7 0-.8.4-1.2 1.1-1.2.4 0 .9.1 1.2.4 1 .7 2.1 1.4 3 2.2 1.1.5 1.4 1.1 1.9 1.6zM17.9 86.3c1.1-.1 2.1-.3 3.1-.4 3-.1 6 .4 8.9 1.2 2.9.8 5.8 1.6 8.7 2.3 1.2.3 2.5.5 3.7.5 4.1-.2 8-1.1 11.5-3.3 1.1-.7 2-1.5 2.6-2.6.5-1 1.1-1.9 1.5-2.9.6-1.3.9-2.7.9-4.2v-4.1c0-1.7-.5-3.3-1.1-4.9-1-2.5-2.8-4.5-4.7-6.3l-1.7-1.7c-1.2-1.3-2.5-2.6-3.9-3.7-.7-.6-1.5-1.1-2.3-1.5-2.8-1.3-5.8-1.7-8.9-1.6-4.9.2-8.6 2.6-11.7 6.1-1 1.1-1.8 2.4-2.3 3.9-.8 2.1-.9 4.4-.8 6.6.2 2.6.2 5.2-.1 7.8-.3 2.6-.8 5.2-2.4 7.4-.3.5-.7.9-1 1.4zm50.4-69.8c-.7.6-1 1.4-1.3 2.2-.2.6-.4 1.2-.5 1.8-.4 1.4-1.2 2.4-2.4 3.2-2.3 1.5-3.7 3.6-5 5.9-.4.8-.6 1.7-.8 2.6-.3 1.5.1 3 .6 4.4.7 1.7.6 3.4-.5 4.9-.6.8-.7 1.6-.5 2.5.1.5.2.9.3 1.4.3 1.5.6 3.1.2 4.7-.7 2.6-1.6 5.1-3 7.4l-.3.6c.7-.4 1.3-.9 1.8-1.5 2.3-2.3 4.5-4.6 6.7-7 .9-1 2-1.7 3.4-1.9.5-.1 1.1-.2 1.6-.4 1.2-.3 2.2-.8 2.7-2 .1-.3.3-.5.5-.7.5-.8 1.2-1.3 2.2-1.5 1.3-.2 2.4-.8 3-2.1.9-1.9 2.4-3.1 4.3-3.9 1.5-.6 3-1.2 4.4-2 2.7-1.6 4-4 3.9-7.2-.1-2 .3-4 1.8-5.6.4-.4.6-.8 1-1.2.4-.5.5-1 .2-1.6-.2-.4-.2-.9-.2-1.3.1-1.9.4-3.9 1.1-5.7.2-.4.3-.7.5-1.1.2-.6 0-.9-.6-.8-.3 0-.6.1-.9.2-.8.1-1.6.1-2.2-.3-.7-.5-1.3-.4-2 0-.8.4-1.7.6-2.6.5-.5 0-1.1-.2-1.6-.2-1.6-.1-3.1.2-4 1.8-.3.6-.8 1-1.3 1.5-1.1 1-2.4 1.1-3.8.5-.3-.1-.6-.3-.8-.4-.2.1-.3.2-.3.2-.3.4-.5.9-.8 1.3-1 1.5-2.4 2-4.1 1.3-.1-.2-.4-.3-.7-.5zm.3 38.9c.8.1 1.6.2 2.5.2 1.4.1 2.7.3 3.9 1 .9.4 1.7 1 2.6 1.5.6.4 1 .9.9 1.6-.2 1.9.8 3.3 2.4 4.1 1.3.7 2.3 1.6 2.7 3.1.3.9 1 1.6 2 1.7 1.4.1 2.4.9 3.4 1.6.4.3.8.5 1.3.6 1.4.5 2.8 1 4.1 1.5 1.5.6 3 1 4.6.5-.3-.8-.5-1.5-.7-2.1-.5-1.2-.6-2.3 0-3.6.8-1.6.2-2.9-1.4-3.7-.2-.1-.5-.3-.8-.4.4-.9.1-1.7-.5-2.3-.6-.6-1.2-1.2-2-1.5-1.1-.6-2.2-1-3.3-1.4-1-.4-2.1-.7-3.1-1-.7-.2-1.2-.6-1.3-1.4-.1-.6-.5-.9-1-1-.6-.2-1.2-.3-1.8-.4-1.2-.1-2.3.1-3.5.5-.4.2-.9.2-1.2-.2-.7-.7-1.6-.8-2.5-.7-.5.1-1 .1-1.5.2-2.1.4-4 .8-5.8 1.6zM58.1 40c-.6-.9-1.1-1.8-1.7-2.7-.1-.2-.3-.3-.4-.5 0-.1 0-.4.1-.5.2-.1.5-.1.6 0 .3.2.5.5.7.7.3.4.5.7.8 1.1 0-.7-.2-1.3-.4-1.8-.5-1.4-.7-2.9-.4-4.4.2-.9 0-1.7-.6-2.3l-.3-.3v-.7c.2 0 .5 0 .6.1.3.2.6.5.8.8.7-.7.6-1.5.6-2.2 0-.6-.5-.8-.9-1.1-.3-.2-.5-.4-.2-.9.3.1.7.1 1.1.2 0-.5-.1-.9 0-1.2 0-.1.2-.3.4-.3.1 0 .4.1.4.2.1.3.2.7.2 1.1.1.5.1 1 .1 1.8.4-.6.7-1 1-1.3-.3-1.4-1.4-2.2-2.4-2.8-.7-.5-1.3-1.2-2.4-1.3v1c0 1.8.1 3.6-.6 5.3-.4 1-.5 1.9-.2 2.9.5 1.8.3 3.6-.5 5.3-.7 1.4-.9 2.8-.4 4.3.3 1 .4 2.1-.1 3.1-.4.7-.3 1.4.1 2.1l.6 1.2c.9 1.7 1.1 3.5.7 5.3-.4 2-.9 4-1.8 5.9-.2.4-.3.7-.4 1.1.3-.2.6-.5.8-.7 1.6-2.2 2.5-4.7 3.3-7.3.5-1.4.7-2.9.2-4.3-.3-.9-.7-1.7-1.2-2.6-.2-.5-.6-.8-.8-1.3-.1-.2 0-.5 0-.7.2 0 .5 0 .7.1.2.2.4.4.5.6.5-1.1.9-2 1.4-3z"/><path class="icon-fruit" d="M37.3 56c-2.4 0-4.5.7-6.4 2.1-1.9 1.3-3.6 2.8-4.8 4.9-.7 1.2-1 2.5-1.3 3.8-.2.9-.3 1.9-.5 2.8 0 .3-.1.6-.2.9-.1.2-.4.4-.6.5-.1-.2-.3-.5-.3-.7.3-1.7.6-3.5.9-5.2.3-1.5 1-2.9 2-4.1 2.2-2.6 4.8-4.7 8.2-5.6 1.3-.3 2.6-.4 3.9-.4.2 0 .4 0 .5.1.2.1.4.3.3.5 0 .2-.3.4-.4.4h-1.3zm14.2 14.6c-.4-.1-1 .2-1-.4-.1-.6.5-.5.9-.5 1.7-.3 3.4-.7 4.5-2.2.1-.1.4-.2.5-.1.1.1.2.4.2.6-.1.3-.4.6-.6.9-1.4 1-2.9 1.6-4.5 1.7zm2.3 3.7c-.1-.1-.3-.2-.4-.4 0-.1.2-.4.3-.5 1-.4 2.1-.8 3.2-1.2.2-.1.4.1.7.1-.1.2-.1.5-.2.6-1.1.8-2.3 1.2-3.6 1.4zm1.2 4.3c-.3 0-.5 0-.6-.1-.2-.1-.4-.3-.4-.5 0-.1.3-.3.4-.4.6-.1 1.3-.2 1.9-.3.2 0 .4.2.6.3-.1.2-.2.5-.4.6-.4.2-1 .3-1.5.4zm-.1 4.3c.2.5 0 .8-.4.8h-2.1c-.2 0-.3-.3-.5-.5.2-.1.3-.3.5-.3.9-.1 1.7 0 2.5 0zM48.6 86c.5.3 1 .7 1.6 1.1 0 0-.1.4-.2.5-.5.2-1.8-.5-1.9-1-.2-.4.1-.6.5-.6zm-6.8-29.4c-.4-.1-.7-.2-1-.3-.2-.1-.2-.4-.4-.6l.6-.3c.2 0 .5.1.7.2.2.1.3.3.5.5 0 .2-.2.3-.4.5zm16.9-2.5c-.1-.3-.3-.6-.3-.7.1-.3.2-.5.4-.8.6-1 1.3-1.9 2-2.9 1.3-2.1 2.7-4.3 4-6.5 3-4.9 6.2-9.7 9.8-14.2 2.3-3 4.7-6 7.3-8.8 2.6-2.8 5.6-5.2 8.8-7.2.2-.1.4-.3.7-.4.2 0 .4.1.7.1-.1.2-.1.5-.2.7-.1.2-.4.2-.5.4-3.3 2.1-6.3 4.5-9 7.4-6.2 6.8-11.8 14.1-16.4 22-2.1 3.5-4.4 6.9-6.6 10.2l-.7.7zm7-7c-.1-.1-.5-.2-.5-.3 0-.2.2-.5.3-.6l3.6-1.5c.1 0 .2-.1.3-.1l.6.3c-.1.2-.2.4-.3.5-.3.2-.7.3-1.1.5-.8.3-1.6.6-2.3.9-.1.2-.4.2-.6.3z"/><path class="icon-fruit" d="M86 21.9c-.1.1-.2.3-.3.4-.9.3-1.8.7-2.8.9-.2 0-.4-.2-.6-.3.1-.2.2-.5.4-.5.8-.3 1.7-.6 2.6-.9.2-.2.6-.2.7.4zm-2.5-5.2c-.6.2-.8 0-.9-.4-.1-.6-.1-1.2 0-1.7 0-.2.3-.3.5-.5.1.2.4.3.4.5v2.1zm3.9-3.6c-.1.3-.1.5-.1.7 0 .3-.1.7-.5.5-.2-.1-.3-.4-.4-.7 0-.2.1-.4.1-.5.1-.3.2-.6.6-.5.1.1.2.4.3.5zM96.3 70c-.1.1-.1.3-.2.4-.1.1-.4.1-.5 0-.2-.1-.4-.4-.5-.6-.5-.8-1-1.6-1.6-2.3-4-5.1-9.1-8.7-15.1-10.9-1.5-.6-3.2-.8-4.8-1.1h-.4c-.2-.1-.3-.3-.5-.4.2-.2.3-.4.5-.4.4-.1.8 0 1.2 0 3.5.5 6.8 1.7 9.8 3.6 3.5 2.1 6.8 4.6 9.4 7.9.9 1.1 1.6 2.3 2.4 3.4.1 0 .2.2.3.4z"/><path class="icon-fruit" d="M85.9 61.6c.3.3.6.4.6.5.3 1 .5 2 .8 2.9 0 .1-.1.4-.2.4-.2 0-.4-.1-.5-.2-.1-.1-.2-.3-.2-.5-.2-.8-.4-1.5-.6-2.3-.2-.1 0-.4.1-.8zM96.6 65c-.2.1-.4.3-.5.3-.9-.2-1.8-.4-2.6-.7-.1 0-.3-.4-.3-.5 0-.1.3-.4.5-.3.9.2 1.7.5 2.6.7 0 .1.1.3.3.5z"/></svg>