<svg xmlns="http://www.w3.org/2000/svg" viewBox="0 0 100 100"><style>.icon-fruit{fill:#29703d}</style><path class="icon-fruit" d="M1.7 65.9c-.4 1.1-.5 2.3-.3 3.5.1.7 1.2.8 1.5.2.7-1.1 1.4-2.2 2.2-3.2.3-.4.3-1.3-.4-1.4-1-.1-1.8.3-2.8.5-.5.1-.7.8-.5 1.2 0 .1.1.2.1.2.2.3.6.5.9.4 1-.3 1.9-1.2 2.8-1.8L4 64.6C3.5 66 2.9 67.5 2.4 69c-.2.6.6 1.3 1.2.9 5.6-4.2 7.7-10.1 8.5-16.9 1.5-12.1 1.9-22.3 12.6-30 9.1-6.5 20.8-9.9 31.9-10.4 6.1-.3 11.9 1 17.2 4.1 4.9 2.9 8.6 7.5 13.1 10.9 2.9 2.2 9.5 3.7 9.9 7.9.5 5.5-2.3 12.3-4.5 17.2C87.4 63.9 78.4 72.8 68.1 79c-12.5 7.6-30.6 12.4-43.9 4.3-7.5-4.5-12.1-13.9-21.4-15 .1.5.3 1 .4 1.5.2-.2.5-.3.7-.5.4-.3.5-.7.3-1.1-.1-.3-.3-.5-.5-.7-.7-.8-1.8.3-1.1 1.1-.1-.1-.1-.2-.2-.3-.7.7-.4 1.6.4 1.7 7.2.9 12.3 8 17.5 12.5 4.6 4 10 5.7 16 6.5 12.3 1.7 25.8-4 35.9-10.6 9.9-6.4 17.6-15.9 22.3-26.6 1.8-4.2 7.4-17 1.7-20.6-4.9-3.2-9.7-5.6-14.1-9.7-4.1-3.7-8.1-6.9-13.2-8.9-10.4-4-23.3-.9-33.3 2.8-8.4 3.2-18.6 8.8-21.9 17.8-4 11.4-.2 27.2-11 35.3l1.2.9c.6-1.5 1.1-2.9 1.7-4.4.2-.7-.6-1.3-1.2-.9 0 0-3.7 3.4-1.4 2.8.6-.1.6-.3 0-.5-1 1.3-1 1.1-1.6 2.4.5.1 1 .1 1.5.2-.1-.9 0-1.8.3-2.6.4-1-1.2-1.5-1.5-.5z"/><path class="icon-fruit" d="M7.5 66.6c5.9.8 11.1 3.8 16.5 6.1 4.9 2.1 10 2.4 15.2 2 9.5-.7 19.3-4.6 26-11.4.7-.7-.4-1.9-1.1-1.1C56.7 69.7 46 73 35.7 73.3c-10.3.2-18.3-7-28.2-8.3-1-.2-1 1.5 0 1.6zm64.4-7.2c9.7-5.3 15.8-14.8 24.2-21.8.8-.7-.3-1.8-1.1-1.1-8.4 6.8-14.4 16.2-24 21.5-.9.5-.1 1.9.9 1.4zM50.4 21.3c4.6-.6 9.2-.9 13.8 0 1 .2 1.5-1.4.4-1.6-4.9-.9-9.7-.7-14.6 0-1.1.1-.7 1.7.4 1.6zM61 25.7c2.2 0 4.4.3 6.5.6 1 .2 1.5-1.4.4-1.6-2.3-.4-4.6-.7-7-.7-1 .1-1 1.7.1 1.7z"/></svg>