<svg xmlns="http://www.w3.org/2000/svg" viewBox="0 0 100 100"><style>.icon-fruit{fill:#29703d}</style><path class="icon-fruit" d="M29.2 61.4c7-12.6 13.9-26.8 11.9-41.5-.4-3.3-1.7-6.3-3.3-9.2-1-1.8-5.8-5.9-4.5-7.3 1.6-1.7.6-1.3 1.5.2 1.5 2.6 3.3 5 4.9 7.5 2.3 3.6 1.6 1.6-.1 4 .5.1.9.3 1.4.4-.1-1.2.1-2.3 0-3.5 0-.3-.2-.7-.6-.7-2.8-.6-4.6-5-6.2-7.2-.5-.8-1.9 0-1.3.8 1.2 1.7 2.4 5.2 3.6 6.4 2.1 2.1 2.7.6 2.9 4.2.1.8 1 1 1.4.4l1.5-.6c.6 0 .9-.7.7-1.1-2.5-4.6-5.5-8.8-8.2-13.2-.2-.4-.8-.5-1.2-.2-1 1-2.4 2-2.9 3.3-.1.3-.2.7.1.9 17.2 15.4 6.3 39-2.9 55.7-.5.8.8 1.6 1.3.7z"/><path class="icon-fruit" d="M41.7 14.9C49 31.8 59.1 48 72 61.2c.7.7 1.7-.4 1.1-1.1-12.8-13-22.9-29.2-30.1-46-.3-.9-1.6-.1-1.3.8zM31.1 53.7c-12.1-.8-22.5 5-26 16.9-2.8 9.8.7 21.6 10.1 26.3C41.1 110 59.3 59.6 32.5 54c-1-.2-1.4 1.3-.4 1.5 25 5.2 7.2 53.7-17.8 39.3-8-4.6-9.8-15.5-7.8-23.8C9.4 59.6 20 54.4 31.1 55.2c.9 0 .9-1.5 0-1.5z"/><path class="icon-fruit" d="M72.5 60c-13.4-3.1-24.9 3.8-23.4 18.5 1.5 14.2 15 23.2 28.6 20.6 12.8-2.5 19.4-16.9 18-28.9-1.5-13-12.6-16.1-23.2-10.4-.9.5-.1 1.8.8 1.3C84 55.4 93.4 59.6 94.4 72c.9 10.4-4.9 21.5-15 25.1-12.4 4.4-24.9-3.9-28.2-15.9-1.5-5.3-.8-11.4 2.7-15.8 4.3-5.5 12.1-5.3 18.2-3.9.9.1 1.3-1.3.4-1.5zM9.6 79.8c.5 3.6 4.1 6.2 7.4 7.1.9.3 1.3-1.2.4-1.5-2.8-.8-5.9-2.9-6.4-6.1-.1-.9-1.6-.5-1.4.5zm3.6 9.1c1.1 1.4 2.7 2.1 4.5 1.8 1-.2.5-1.6-.4-1.5-1.3.2-2.3-.4-3-1.4-.6-.7-1.7.4-1.1 1.1z"/><path class="icon-fruit" d="M79.4 84.4c3.1-.6 5.6-3.3 7.4-5.7.6-.8-.7-1.5-1.3-.8-1.6 2.1-3.8 4.5-6.5 5-1 .2-.6 1.7.4 1.5zm3.7 3.1c1.8-.8 3.2-2.1 4.2-3.8.5-.8-.8-1.6-1.3-.8-.8 1.3-1.9 2.5-3.3 3.1-.8.4-.5 1.9.4 1.5z"/></svg>