<svg xmlns="http://www.w3.org/2000/svg" viewBox="0 0 100 100"><style>.icon-fruit{fill:#29703d}</style><path class="icon-fruit" d="M41.7 26.8c-.9-4.6-3.3-7.9-6.2-11.5l-4.8-6.7c1.1-.6 7.4 6.2 8.6 7.3.5.5 1.5.2 1.4-.6-.3-4.9-.1-9.4 2-14-.5-.1-1-.3-1.5-.4.3 5.6 1.9 10.3 5.4 14.7.5.6 1.4.1 1.4-.6.2-4 1.3-7 3.9-10.1-.5-.3-.9-.5-1.4-.8-.9 4.5-.9 8.3 1.5 12.3.4.7 1.2.4 1.5-.2 2.1-5.1 4.8-10.5 10.4-12.5L63 2.5c-4.1 7.4-7 15.3-4.9 23.7.3 1 1.8.6 1.6-.4-2-8 .9-15.5 4.7-22.4.3-.6-.2-1.5-.9-1.2-6.2 2.2-9.2 7.9-11.6 13.7.5-.1 1-.1 1.5-.2-2.1-3.8-2.1-6.9-1.3-11.1.2-.7-.8-1.5-1.4-.8-2.9 3.4-4.1 6.9-4.4 11.3.5-.2.9-.4 1.4-.6C44.4 10.4 43 6.2 42.8 1c0-.8-1.2-1.2-1.5-.4-2.2 4.9-2.5 9.6-2.2 14.9.5-.2.9-.4 1.4-.6-2.1-1.9-7.6-9-11-7.4-.4.2-.5.7-.3 1.1 3 6.8 9.4 11.3 10.9 18.7.3 1 1.9.5 1.6-.5z"/><path class="icon-fruit" d="M40.5 26.6c-9.9 4.9-21.7 5.5-29.4 14.2-7 7.9-6.9 20-4.4 29.6 2.5 9.8 8.9 18.7 17.4 24.3 8.9 5.8 22 5.9 32.1 4.4 10.6-1.6 21.6-5.1 28.9-13.3 6.3-7 9-16.9 9.6-26.1.6-8.5-1.4-18.3-6.9-25-7.7-9.3-17.4-9.1-28.6-9.6-1.1 0-1.1 1.6 0 1.7 11.1.5 21 .3 28.2 10.1 5.1 6.9 6.1 16.1 5.6 24.4-.6 8.9-4 17.8-10 24.4-7 7.9-18.9 10.7-29 12-9.7 1.2-20.5.5-29.1-4.4-9-5.2-14.6-15.3-17.1-25-2.9-11-.3-24 9.5-30.7 7.1-4.9 16.4-5.7 24.1-9.5.9-.5.1-1.9-.9-1.5z"/><path class="icon-fruit" d="M18.5 60.6c4.9 15.3 20.2 22.3 35.4 19.5 1-.2.6-1.8-.4-1.6-14.3 2.6-28.8-4-33.4-18.4-.4-.9-2-.5-1.6.5zm8.4 24.1c2.6 2.9 6 4.6 9.9 5.1 1.1.1 1-1.5 0-1.7-3.5-.4-6.4-2-8.7-4.6-.7-.7-1.9.4-1.2 1.2zm33.5-49c3.1-1.1 6.4-.9 9.5 0 1 .3 1.5-1.3.4-1.6-3.4-.9-7-1.2-10.4 0-.9.4-.5 2 .5 1.6z"/></svg>