<svg xmlns="http://www.w3.org/2000/svg" viewBox="0 0 100 100"><style>.icon-fruit{fill:#29703d}</style><path class="icon-fruit" d="M10.1 21.6c1 0 1-1.6 0-1.6s-1.1 1.6 0 1.6z"/><path class="icon-fruit" d="M9.5 20.3c-6.2 5.8-11.2 13.2-8.3 22 2.6 8 11.1 13.3 18.1 17.1 17 9.1 36.1 12.7 55 9.1 8.9-1.7 19.1-5.3 23.7-13.7 4.8-8.9-1.2-18.9-7.9-24.8-8.9-7.8-21.2-12-32.5-14.6-16.5-3.8-32.9-3.7-48 4.8-.9.5-.1 1.9.8 1.4 22.3-12.5 52-7 73.3 5.8C92.9 33 102 43.9 96 55c-4.5 8.3-16.4 11-24.9 12.5-16.3 2.8-32.4-.9-47.3-7.6C16.5 56.4 9.1 52 4.5 45.3c-6-8.7-.5-17.6 6.2-23.9.7-.7-.4-1.8-1.2-1.1z"/><path class="icon-fruit" d="M.3 37.2c2.6 20.9 14 40.6 34.9 47.4 23.1 7.5 50-4.7 60.7-26 .5-.9-.9-1.7-1.4-.8C84 78.5 59.6 88.9 37.2 83.5 16 78.4 4.4 57.3 1.9 37.2c-.2-1-1.8-1-1.6 0z"/><path class="icon-fruit" d="M8.5 56.4c15.8 16.5 47.4 23.8 68.7 14.5.9-.4.1-1.8-.8-1.4-10.7 4.7-24.6 3.9-35.7 1.8-11.6-2.2-22.8-7.4-31-16-.8-.8-1.9.4-1.2 1.1zM81 69.6c1-.3 2-.8 2.9-1.4.9-.6.1-2-.8-1.4-.8.5-1.6.9-2.5 1.3-1 .3-.6 1.9.4 1.5zM19.7 20.5c-3.2 2.3-5.8 4.9-8 8.3-.2.4-.1.9.3 1.1 9.2 6 20.1 9 30.5 12.1.6.2 1.3-.6.9-1.2-3.5-4.7-7.1-9.4-11.2-13.7-2.9-3.1-6.9-7-11.5-7-1 0-1 1.6 0 1.6 8.6 0 16.8 13.9 21.3 19.9l.9-1.2c-5.6-1.6-11.1-3.3-16.5-5.3-3.3-1.2-6.5-2.6-9.6-4.2-.8-.4-3.8-1.3-2.8-2.8 1.5-2.5 4.1-4.5 6.4-6.2.9-.6.1-2-.7-1.4zm19.6 21.9c-10.5-1.4-20.1-7-30.9-6.7-.5 0-.8.4-.8.8-2.1 20 19.9 12 31 8.1 1-.3.6-1.9-.4-1.5-7.3 2.5-17.7 7.6-25.4 4.2-2.6-1.1-3.5-3.9-3.7-6.5-.6-5.5 5.3-3.3 8.9-2.5 7.1 1.6 13.7 4.6 20.9 5.6 1 .2 1.4-1.4.4-1.5z"/><path class="icon-fruit" d="M39.3 44.2c-4.7 3-11.1 4.2-14.7 8.6-3 3.6.8 6.3 3.9 7.4 2.3.8 9.2 3.2 10.7 0 2-4.2 1.4-9.8 1.9-14.3.1-1-1.5-1-1.6 0-.5 3.7-.5 7.5-1.1 11.2-.3 1.8-.4 3-2.4 2.9-2 0-4-.5-5.9-1-1.7-.4-4.2-1.1-4.9-2.8-.9-2.1 2.1-3.9 3.5-4.8 3.6-2.2 7.7-3.5 11.3-5.8 1-.6.2-2-.7-1.4zm5 2c-.1 4.7-1.5 10.9.9 15.3s9.7 3 13.5 2.5c.3 0 .6-.5.6-.8-.7-7.9-7.6-13.4-12.9-18.6-.7-.7-1.9.4-1.1 1.1 3.4 3.4 7 6.6 9.8 10.5 1.2 1.8 4.2 6.1.4 6.5-1.9.2-3.8.2-5.6-.1-6.5-1.1-4-12-3.9-16.5-.1-1-1.7-1-1.7.1zm1.1-8.4c-2.4-5.4-6.4-9.9-9.3-15.1-.4-.7-1.8-4.7-2.4-4.5 1-.2 2.1-.3 3.2-.3 2.5-.2 5-.1 7.5.1 2.3.2 4.6.6 6.8 1.3 3.8 1.3 2.5 4.6 1.1 7.3-2.1 4.2-5.3 7.8-8 11.6-.6.8.8 1.6 1.4.8 2.5-3.5 13.4-14.6 8.9-19.4-2.3-2.4-6.2-2.8-9.2-3.1-4.1-.5-8.6-.6-12.6.3-.4.1-.7.6-.6 1 2.4 7.8 8.5 13.5 11.8 20.9.5.8 1.9 0 1.4-.9zm3.7 3.1c2.6-3.7 5.3-7.4 8.2-11 1.4-1.7 2.9-3.4 4.6-4.9 3-2.8 6.2.1 8.8 1.9 2.3 1.6 4.4 3.5 6.5 5.4.8.7 1.5 1.4 2.2 2.2-.9-1-4.4.8-5.4 1-8.3 2.4-17 3.8-25.6 4.4-1 .1-1 1.7 0 1.6 11-.8 21.8-3 32.2-6.4.6-.2.8-.9.4-1.3-3.4-3.7-12-13.2-17.7-11.7-3.3.9-6.2 5.5-8.1 7.9-2.6 3.3-5.1 6.7-7.5 10.1-.6.9.8 1.7 1.4.8zm2.1 5.5c9.1 9.8 15.6 24 30.7 15.1.3-.2.6-.7.3-1.1-6.3-8.4-20.3-15.2-30.7-16.1-1-.1-1 1.5 0 1.6 5.6.5 10.9 3 15.9 5.5 1.4.7 14.2 8.4 12.2 9.6-12.7 7.5-20-8.2-27.1-15.8-.9-.7-2 .5-1.3 1.2z"/><path class="icon-fruit" d="M58.6 43.6c7.3-2.8 16.2-5.9 24-4.1 2.3.5 3.9 2 4.7 4.2.5 1.6.7 7.8-2.1 7.3-9.2-1.4-18-5.3-26.6-8.7-1-.4-1.4 1.2-.4 1.5 9.4 3.7 18.7 7.4 28.7 9 .4.1.8-.1 1-.6 6.7-20.6-18.6-14.6-29.7-10.3-.9.5-.5 2.1.4 1.7z"/></svg>