<svg xmlns="http://www.w3.org/2000/svg" viewBox="0 0 100 100"><style>.icon-fruit{fill:#29703d}</style><path class="icon-fruit" d="M72.7 10.8C48.6.3 18.4 8.8 5.1 32c-13.2 23.2 4.2 52.8 28 59.9 21.5 6.4 46.3-5 59.2-22.4 6.1-8.3 8.5-18.6 6.5-28.8-3-14.7-14.6-22.2-26.5-29.5-1.2-.7-2.2 1.1-1.1 1.8 11.3 7 21 13.4 25.1 26.7 2.9 9.5.1 19.3-5 27.4-10.5 16.7-32.2 25.9-51.4 24C14 88.6-4.6 58.7 6.1 34.8 16.8 10.8 49 2.7 71.7 12.6c1.2.5 2.3-1.3 1-1.8z"/><path class="icon-fruit" d="M57.9 30.2c-12.8-1.4-25.3 6-30.1 17.9-4.6 11.4 5.8 26.8 17.4 28.6C58.5 78.9 72.3 65.3 75 53.3c2.6-11.9-5.4-24.4-18-23.5-1.3.1-1.3 2.2 0 2.1 13.3-.9 17.8 12.4 15.4 23.3-2.4 11.2-17.3 21-28.5 19.2-12.4-2-17.6-19.5-12.5-29.2 4.8-9.3 16.6-14 26.5-12.9 1.3.1 1.3-2 0-2.1z"/><path class="icon-fruit" d="M34.8 61.8c2.4 5.4 7.5 8.7 13.4 7 1.3-.4.7-2.4-.6-2-5 1.5-9-1.6-11-6-.6-1.3-2.4-.2-1.8 1zm7.8-1.3c1.8 3.3 5.2 3.8 8.4 2.1 1.2-.6.1-2.4-1.1-1.8-2.2 1.2-4.3.9-5.5-1.4-.6-1.2-2.4-.1-1.8 1.1z"/><path class="icon-fruit" d="M49.5 22.1c-11.7 7-31.2 13.2-33 29C15.1 63.8 26 78.8 38 82.3c1.3.4 1.8-1.6.6-2C26 76.7 16.3 60.6 19.2 47.8c2.7-12.1 21.9-18.3 31.4-23.9 1.1-.7.1-2.5-1.1-1.8zm-3.7 60.2c9.1 3.5 22.9-4 25.5-13.4 1.1-3.9 4.3-4.2 7-7 2.6-2.8 3.6-6.7 4-10.3 1.9-15.1-12-40.8-29.8-30.8-1.2.7-.1 2.5 1.1 1.8 21-11.8 38.9 34.7 17 41.6-.5.2-.7.5-.8 1-.9 9.9-14.2 18.6-23.5 15.1-1.2-.5-1.7 1.5-.5 2z"/></svg>