<svg xmlns="http://www.w3.org/2000/svg" viewBox="0 0 100 100"><style>.icon-fruit{fill:#29703d}</style><path class="icon-fruit" d="M54.4 9.5c-10.9.9-16.3 9.2-20.6 18.4-2.3 5-4.3 10.2-7.2 15-4 6.5-9.1 12.5-12.1 19.5-9.3 22.1 12.2 39 32.9 37.6 16.5-1.2 35.5-13.4 37.7-31 1.3-10.7-3.3-19.9-9.8-28-5.6-7-10.1-12.5-12.5-21.4-1.3-4.8-3.3-7.5-8.2-8.8-1-.3-1.4 1.3-.4 1.6 7.1 1.9 7.1 9.2 9.3 15 1.6 4 4.3 7.4 7.1 10.7 7.2 8.4 13.5 16.9 13.1 28.4-.5 17-17.7 28.5-32.8 31.3-21.5 4.1-45.1-13.7-34.1-36.7 4.7-9.9 12-18 16.5-28.1 4.3-9.8 9-20.9 21.1-21.9 1.1-.1 1.1-1.7 0-1.6z"/><path class="icon-fruit" d="M55.2 9.9C55 6.5 56.3 3.4 59 1.3c.8-.7-.3-1.8-1.2-1.2-3 2.4-4.6 5.9-4.3 9.7.2 1.2 1.8 1.2 1.7.1z"/><path class="icon-fruit" d="M56.4 4.2c11.7 7.4 13.3 27 30.3 25.6.3 0 .7-.2.8-.6C90.3 12.9 71.2 4.4 58 2.4c-1-.2-1.5 1.4-.4 1.6 6.7 1.1 13 3.4 18.8 6.9 3.4 2.1 6.2 4.9 8.2 8.3 1.3 2.1 1.6 4.6 1.7 7 0 3.4-3.8 2-5.7 1.6-11.5-2.9-13.9-19-23.4-25-.9-.6-1.7.8-.8 1.4zm-25.1 75c13.2 9.1 29.3-3.8 32.8-17.1.3-1-1.3-1.5-1.6-.4-3.2 12.3-18 24.6-30.4 16.2-.9-.7-1.7.7-.8 1.3zm34.2-2.8c1.6-2 2.9-4.1 3.6-6.5.3-1-1.3-1.4-1.6-.4-.7 2.1-1.8 4-3.2 5.8-.6.7.6 1.9 1.2 1.1z"/></svg>