<svg xmlns="http://www.w3.org/2000/svg" viewBox="0 0 100 100"><style>.icon-fruit{fill:#29703d}</style><path class="icon-fruit" d="M45.5 25.4c1.9-.9 3.5-1.9 5.3-2.6 3.5-1.3 7.2-2 11-2.3 2.7-.2 5.3-.2 8 .1 3.5.4 6.6 1.8 9.4 3.8 2.5 1.8 4.9 3.7 7 5.9 2.8 2.8 6 4.5 9.8 5.5 1.2.3 2.4.7 3.3 1.8.9 1.1.9 2 .2 3.2-.9 1.4-2.2 2.4-3.6 3.2-.3.2-.7.4-1 .6-2.6 1.2-4.2 3.3-5.4 5.8-.9 1.8-1.7 3.7-2.8 5.4-2.1 3.4-4.9 6.2-8.2 8.5-2.8 1.9-5.6 3.6-8.7 4.9-3.3 1.4-6.7 2.3-10.3 2.5-1.5.1-3 .2-4.5.2-.8 0-1.3.2-1.8.9-1.4 2-3.2 3.7-5.3 4.9-3.4 1.9-7.1 2.5-11 1.9-4.1-.6-7.8-2.2-11.5-4.1-3.7-1.9-7-4.3-10.2-7-2.3-2-4.2-4.5-6.1-7-1-1.4-2.1-2.8-3.2-4.2-.7-.9-1.6-1.4-2.5-1.9-2.1-1.1-3-3-3.3-5.3-.1-1.1.5-1.8 1.3-2.4l4.2-3.3c1.5-1.2 2.8-2.6 3.9-4.1 1.9-2.8 3.9-5.7 5.9-8.5.9-1.3 2.2-2.3 3.6-3.3 2.5-1.7 5.3-2.9 8.2-3.9 1.7-.5 3.4-.8 5.1-1 4.5-.6 8.9.2 13.2 1.8zm8.8 45.3h2.9c4.7-.1 9.1-1.2 13.3-3.2 3.2-1.5 6.1-3.3 8.9-5.4 3.1-2.3 5.4-5.2 7.2-8.5.7-1.2 1.3-2.5 1.9-3.8 1.3-2.7 3.1-5 6-6.3.8-.4 1.7-.9 2.4-1.5.7-.5 1.3-1.2 1.8-1.9s.5-1.2-.1-1.9c-.7-.9-1.6-1.2-2.6-1.5-4.1-1-7.7-3-10.7-6-2.2-2.2-4.6-4.1-7.1-5.8-3.5-2.5-7.4-3.5-11.6-3.6-3.8-.1-7.5.3-11.2 1.1-2.8.7-5.7 1.5-8.1 3.1-.2.1-.4.3-.7.5.2.2.4.3.5.4 4.4 2.9 7.7 6.7 9.5 11.8 1.2 3.3 2.2 6.7 2.3 10.2v7c0 3.5-.6 6.9-1.8 10.2-.3.9-.8 1.8-1.2 2.7-.5.7-1 1.5-1.6 2.4zm3.8-18.8c.1-3.4-.2-6.7-1.1-9.9-1.5-5.3-3.9-10-8.4-13.4-1.8-1.4-3.8-2.6-6-3.2-2.1-.5-4.2-1-6.5-.7-3 .3-5.4 1.6-7.5 3.6-1.7 1.6-3.1 3.4-4.2 5.5-2.8 5.3-4.5 10.8-4.1 16.9.3 3.9.8 7.8 2.2 11.5 2.1 5.7 5.4 10.4 10.2 14.2 1.8 1.4 3.8 2.3 6.2 2.4 2 .1 3.8-.4 5.7-.8 1.2-.3 2.3-.8 3.3-1.5 1.4-.9 2.8-2 3.7-3.4 1.1-1.5 2.1-3.1 3.1-4.7 2-3.2 2.8-6.8 3.2-10.5.1-2 .1-4 .2-6zM31.7 77.2c.1-.1.1-.2.2-.3-.2-.1-.4-.2-.6-.4-2.2-1.7-4-3.8-5.7-6-2.8-3.8-4.5-8-5.5-12.6-.6-2.6-.7-5.4-.9-8-.1-1.7 0-3.5.2-5.1.6-4.2 2.1-8.1 4.2-11.9 1.8-3.2 4.3-5.7 7.3-7.7.2-.1.3-.2.5-.4 0-.1 0-.1-.1-.2-1.4.3-2.8.5-4.2 1-1.8.6-3.6 1.4-5.3 2.3-2.5 1.3-4.8 2.8-6.4 5.2-1.8 2.7-3.8 5.4-5.6 8.2-.9 1.3-2 2.5-3.3 3.5-1.6 1.2-3.2 2.5-4.7 3.7-.3.3-.8.7-.8 1.3-.1 1.5.6 2.8 1.7 3.8.7.6 1.5 1 2.3 1.6.6.4 1.2.9 1.7 1.4 1.1 1.4 2.2 2.8 3.3 4.3 1.7 2.4 3.5 4.7 5.7 6.6 4.1 3.6 8.6 6.5 13.5 8.6.8.5 1.7.8 2.5 1.1z"/><path class="icon-fruit" d="M89.9 44.7c-.1.2-.2.3-.3.4-2 1.5-3.1 3.8-4.4 5.8-1.7 2.8-3.6 5.5-5.9 7.9-2.1 2.2-4.6 3.9-7.2 5.5-1.4.9-3 1.6-4.5 2.3-.1.1-.3.1-.4.2-.3.1-.7.3-.9-.2-.2-.4.2-.5.5-.7.5-.3 1.1-.5 1.6-.8 3.5-1.6 6.6-3.8 9.4-6.3 1.3-1.2 2.4-2.6 3.5-4 1.1-1.5 2.1-3.1 3.1-4.6.8-1.2 1.5-2.5 2.4-3.6.6-.8 1.5-1.5 2.2-2.2.1-.1.4-.1.6-.1.2 0 .2.2.3.4zM63.2 67.9c-.2-.1-.5-.3-.5-.4 0-.2.2-.4.4-.5.3-.1.7-.2 1-.2.1 0 .3.1.3.2s0 .4-.1.4c-.3.2-.7.3-1.1.5zm-18.6 3.5c0 .4 0 .7-.1 1.1-.1 1.3-.8 2.1-2.1 2.2-2 .2-4-.1-5.9-1-1.4-.6-2.6-1.4-3.9-2.3-1.1-.8-1.5-1.8-1.2-3.1.2-.6.3-1.3.6-1.9.7-1.3 1.4-2.7 2.2-3.9 1.7-2.7 3.5-5.3 5.3-8 .3-.4.5-.8.8-1.1.7-.7 1.4-.6 1.7.4.2.6.3 1.2.3 1.8.2 2.9.3 5.7.6 8.6.1 1.4.4 2.7.6 4.1.1.5.1 1 .7 1.4.2.1.2.4.3.6.1.3.1.7.1 1.1zm-3.3-17.2c-.2.1-.3.1-.3.1-.2.2-.3.5-.5.7-1.8 2.7-3.7 5.4-5.5 8.1-.8 1.2-1.4 2.4-2 3.7-.3.6-.4 1.2-.6 1.8-.3.9.1 1.5.8 2 1.2 1 2.5 1.7 3.9 2.4 1.6.7 3.3.9 5 .8 1.2-.1 1.8-1.1 1.4-2.2-.8-2.6-1.3-5.3-1.5-8-.2-2.7-.3-5.3-.5-8 0-.6-.1-1-.2-1.4zm-.7-8c-1.2-2.8-2.3-5.7-3.6-8.5-1.1-2.4-2-4.8-2.5-7.4-.1-.4-.1-.8-.1-1.1 0-1 .2-1.3 1.2-1.5 1.8-.4 3.7-.4 5.5.1 1 .2 2 .7 2.9 1.1.4.2.8.4 1.2.5 1.2.4 2 1.2 2.7 2.2.7 1 .9 2.1.6 3.2-.1.7-.3 1.4-.6 2-1.5 3.2-3.1 6.4-4.7 9.6-.1.2-.2.3-.3.4-.7.9-1.4 1-2.1.1-.1-.1-.1-.2-.2-.2.1-.2 0-.3 0-.5zm1.3.6c.4-.6.7-1 .9-1.5 1.3-2.7 2.7-5.4 4-8.1.4-.8.6-1.6.9-2.5.3-1 .1-2-.6-2.8-.6-.7-1.3-1.4-2.2-1.7-.4-.2-.8-.3-1.2-.6-2.4-1.3-4.9-1.5-7.6-1.1-.2 0-.4.2-.7.2 0 .2-.1.3 0 .4 0 .2.1.5.1.7.4 2.2 1.1 4.3 2 6.3 1.3 3.1 2.6 6.1 3.9 9.2 0 .5.2.9.5 1.5z"/><path class="icon-fruit" d="M40.6 46.2c.1.1.1.3.2.4.1.3.1.6.2.9.1.7-.3 1.1-1 .9-.5-.1-1.1-.3-1.6-.5-3.2-1.4-6.1-3.5-8.7-5.8-1.1-1-2.1-2.2-3.1-3.4-.6-.6-.7-1.4-.4-2.2.8-2.4 2.1-4.5 3.9-6.2 1.1-1.1 2.3-.6 2.9.6 1.3 3 2.7 5.9 4.2 8.8.9 2.3 2.2 4.4 3.4 6.5zm-.5 1.3c-.7-1.3-1.2-2.4-1.8-3.5-.7-1.3-1.5-2.5-2.2-3.7-1.1-2.1-2-4.2-3.1-6.4-.4-.9-.8-1.7-1.2-2.6-.4-.8-.7-.8-1.4-.3-.1.1-.3.2-.4.4-1.2 1.3-2.1 2.8-2.8 4.4-.5 1.1-.5 2.1.4 2.9.1.1.1.2.2.2 3.2 3.6 7.1 6.3 11.5 8.4.2.2.4.2.8.2zm-16.9 2c.2-2 .3-3.9.6-5.8.3-2 1.2-2.4 3-1.5 1.2.6 2.3 1.3 3.4 2.1 2.3 1.6 4.8 3.1 7.4 4.3.6.3 1.1.6 1.7.8.5.3.7.7.3 1.2-.2.3-.6.5-.9.6-1 .4-1.9.8-3 1.1-2 .6-3.9 1.2-5.9 1.6-1.4.3-2.9.3-4.4.3-1.1 0-1.7-.6-1.9-1.6-.1-1.1-.2-2.1-.3-3.1zm15.5.6c-.6-.3-.9-.5-1.3-.7-2.3-1-4.4-2.1-6.5-3.5-1-.7-1.9-1.3-2.9-1.9-.6-.4-1.2-.7-1.8-1-.9-.4-1.2-.2-1.3.7-.3 2.3-.4 4.6-.6 6.9 0 .5.1 1 .2 1.5.2.9.4 1.3 1.4 1.2 1.2 0 2.5 0 3.7-.3 2-.4 3.9-1 5.9-1.6 1-.3 2.1-.7 3.2-1.3zm4.3 3.5c0-.4-.1-.7 0-.8.1-.3.3-.7.5-.8.3-.1.9 0 1.1.2 1.6 1.8 3.7 2.8 5.4 4.4.6.6 1.3 1.2 1.9 1.8 1 1 1.3 2.2.7 3.5-.4.8-.9 1.6-1.3 2.4-.6 1.2-1.3 2.4-1.8 3.7-.5 1.2-1.3 2.3-2.4 3-1 .6-1.4.4-1.6-.7-.1-.8-.2-1.6-.4-2.4-.4-2.5-.8-5.1-1.2-7.6-.4-2.5-.7-4.7-.9-6.7zm1.1-.5c-.1 0-.2.1-.2.1.4 2.8.8 5.6 1.2 8.3.4 2.8.9 5.6 1.3 8.4 1.2-.6 1.7-1.6 2.2-2.6l2.1-4.2c.2-.4.5-.8.7-1.3.7-1.6.7-2.1-.6-3.2-1.1-1-2.2-1.9-3.4-2.9-1-.9-2.2-1.7-3.3-2.6zm-5.8-.6c.5.1.9.1 1.1.6.2.4.1.9-.2 1.2-2.1 2.1-3.5 4.7-5.2 7.1l-2.1 3c-.4.6-1 1.1-1.5 1.6-.8.7-1.5.6-1.9-.4-.6-1.3-1.2-2.7-1.7-4.1-.4-.9-.6-1.9-.8-2.9-.2-.9.1-1.6.8-2.1.4-.3.9-.6 1.3-.8 2.5-.9 5.1-1.8 7.7-2.7.7-.3 1.6-.3 2.5-.5zm.1 1c-.6.1-1.1.1-1.5.2-2.9 1-5.8 1.9-8.7 2.9-1.3.5-1.6 1.2-1.3 2.6.1.3.1.6.2.9.6 1.6 1.3 3.1 1.9 4.7.1.2.3.4.4.6.9-.6 1.4-1.3 2-2.1l5.1-7.5c.6-.7 1.2-1.4 1.9-2.3zM55 43.9c0 1.9-.6 2.8-2.2 3.3-1.1.3-2.2.5-3.3.7-1.5.3-3.1.5-4.7.7-.4.1-.8.1-1.2.1-.7 0-.9-.4-.6-1.1.1-.3.3-.5.5-.8 1.6-2.7 3.1-5.5 4.7-8.2.5-.8 1-1.6 1.6-2.4.8-1.1 1.9-1.1 2.9-.2.5.5.8 1.1 1.1 1.7 1 2.1 1.1 4.3 1.2 6.2zm-10.8 3.8l6.6-.9c.8-.1 1.6-.4 2.3-.7.5-.2 1-.6 1-1.3 0-2.3-.1-4.5-1.1-6.6-.3-.6-.6-1.1-1.1-1.5-.4-.5-.8-.4-1.3.1-.4.5-.8 1-1.1 1.6-1.8 3-3.5 5.9-5.2 8.9 0 .1-.1.2-.1.4zm5.9 1.1c1.3.1 2.7.3 4.2.4.7 0 1 .4 1.2 1 .3 1.8.2 3.7-.6 5.3-.6 1.3-1.7 1.6-2.9.8-1.4-.9-2.7-2-4.1-2.9-.5-.4-1.1-.7-1.7-1-.7-.5-1.5-.9-2.2-1.4-.7-.5-.5-1 .3-1.4 1.3-.7 2.7-.6 4.1-.7.4-.2 1-.1 1.7-.1zm-5.4 1.4c0 .1 0 .2-.1.3.5.3 1 .7 1.5.9 1.5.5 2.7 1.6 4 2.5.7.5 1.5 1.1 2.2 1.6.7.4 1.2.3 1.5-.5.6-1.6.9-3.2.5-4.8-.2-.1-.3-.1-.4-.1-2.5-.4-5.1-.4-7.7-.2-.4 0-.9.2-1.5.3zM23.8 70.7c-.2.1-.3.3-.5.3-.1 0-.3-.1-.4-.1-2.6-1.6-5.2-3.3-7.2-5.6-.6-.7-1.2-1.5-1.8-2.2C13 62 12.1 61 11.2 60c-.3-.3-.7-.6-.3-1 .4-.4.7 0 1 .3 1.2 1.4 2.5 2.7 3.6 4.1 2 2.5 4.4 4.5 7.1 6.1.3.2.6.4 1 .7 0 .1.1.2.2.5zM10.2 57.8c0 .3-.4.5-.6.3-.4-.3-.8-.7-1.1-1.1-.2-.3 0-.6.3-.6.4-.1 1.4 1.1 1.4 1.4z"/></svg>