<svg xmlns="http://www.w3.org/2000/svg" viewBox="0 0 100 100"><style>.icon-fruit{fill:#29703d}</style><path class="icon-fruit" d="M42.4 30.6c-5 3.7-10.6 1.5-15.6-.7-.7-.3-1.4.3-1.1 1.1 2.5 5.1 7.1 7 12.5 7.6-.2-.4-.4-.9-.6-1.3l-3 3.3c-.4.5-.2 1.4.6 1.3 2.9-.3 5.5-.9 8.1-2.2 2.4-1.2 5.4.4 7.9.6 6.1.5 12.4-2.8 17-6.6.7-.6-.1-1.4-.8-1.3-3.6.6-7 .8-10.6.6.1.5.3 1 .4 1.5 2.4-1.4 4.4-2.9 6.6-4.6.8-.6.1-1.9-.8-1.4-5.6 3.3-11.4 4.1-17.7 2.3-1.1-.3 0-7-.1-8.2-.2-4.2-1.9-8.7-6.3-9.9-1-.3-1.4 1.2-.4 1.5 6.4 1.9 5.8 11.6 4 16.4-.2.4.2.8.5 1 7 2.9 14.2 2.2 20.6-1.7-.3-.5-.5-.9-.8-1.4-2.1 1.6-4.2 3.3-6.6 4.6-.7.4-.4 1.4.4 1.5 3.8.2 7.3-.1 11-.7-.3-.4-.5-.9-.8-1.3-5.4 4.4-12.1 7-19.1 5.7 1.4.3-2.7-1.5-3.6-1.3-3.3.9-5.6 2.8-9.3 3.3.2.4.4.9.6 1.3l3-3.3c.5-.5.1-1.3-.6-1.3-4.8-.6-8.9-2.2-11.1-6.8l-1.1 1.1c5.8 2.5 11.7 4.7 17.2.7 1.2-.6.5-2-.4-1.4z"/><path class="icon-fruit" d="M32.3 37.2c-2.3 1-5.5 2.8-5.4 5.8.1 2.2 2 3.7 3.9 4.5 2 .9 4.4 1.3 6.4.3 2.4-1.2 2.5-4.1 1.9-6.3 0-.1 0-.1-.1-.2-.3-1-1.8-.6-1.5.4.5 1.7.7 3.8-1.1 4.7-1.4.7-3.4.3-4.8-.3-1.3-.6-3-1.6-3.1-3.2-.2-2.3 3-3.7 4.6-4.4.9-.4.1-1.7-.8-1.3z"/><path class="icon-fruit" d="M36.8 46.7c-.3 2.4 0 5.4 2.8 6.2 2.3.7 5-.7 6.8-2.1 1.9-1.5 3.7-3.8 3.6-6.3-.1-3.3-3.6-4.9-6.3-5.7-1-.3-1.4 1.2-.4 1.5 2.1.6 5.1 1.8 5.1 4.4.1 1.9-1.5 3.7-2.9 4.8-1.4 1.2-3.3 2.2-5.2 2-2.3-.2-2.2-3.1-2-4.7.2-1.1-1.4-1.1-1.5-.1z"/><path class="icon-fruit" d="M30.6 47c-2.1 1.5-4 3.7-3.7 6.4.2 2.2 1.8 4 3.6 5.1 1.9 1.1 4.3 1.5 6.4.8 2.7-1 3.7-3.7 4-6.4.1-1-1.5-1-1.6 0-.5 4.3-3.9 6.4-7.9 4.4-1.4-.8-2.6-2-3-3.6-.6-2.2 1.2-4.1 2.9-5.3.9-.6.1-2-.7-1.4z"/><path class="icon-fruit" d="M40.5 52.6c-3.1 6.7 4.4 14.2 10.9 10.3 6.7-4 3.2-13.5-3.8-14.6-1-.2-1.4 1.4-.4 1.5 5.1.8 8.6 7 4.4 11-4.9 4.6-12.4-1.7-9.7-7.4.4-1-1-1.8-1.4-.8z"/><path class="icon-fruit" d="M49.5 44.8c4.9-2.5 9.4 4.6 4.8 7.8-.8.6 0 1.9.8 1.4 6.2-4.4.4-14-6.4-10.5-.9.4-.1 1.7.8 1.3z"/><path class="icon-fruit" d="M52.5 40.9c.6.2.4.7.2 1.1-.5.9.8 1.7 1.4.8.8-1.4.4-2.9-1.1-3.5-1.1-.3-1.5 1.3-.5 1.6zm4.6 8.9C65 52.1 67 41 61.3 37.2c-.8-.6-1.6.8-.8 1.4 4.2 2.8 3.1 11.5-3 9.7-1-.3-1.4 1.2-.4 1.5z"/><path class="icon-fruit" d="M64.1 41c.9-.9 2.5-2.5 3.7-1.3 1.1 1.1 1.1 3.2 1.1 4.6 0 1.4-.3 3.2-1.4 4.2-1.3 1.2-3.3-1.3-4-2.1-.6-.8-1.7.3-1.1 1.1 1.3 1.6 3.6 3.8 5.8 2.4 1.8-1.1 2.2-3.7 2.3-5.7.1-2-.2-4.4-1.7-5.9-1.9-1.8-4.3-.1-5.7 1.4-.8 1 .3 2.1 1 1.3z"/><path class="icon-fruit" d="M53.9 53.6c-.2 4.8 3.1 8 7.9 6.8 5.1-1.3 7.2-6.7 5.4-11.3-.4-.9-1.9-.5-1.5.4 1.4 3.7.2 7.6-3.7 9.2-4 1.6-6.7-1.2-6.6-5.1.1-1-1.5-1-1.5 0z"/><path class="icon-fruit" d="M66.1 58.6c3.3 2.5 6.7.8 7.9-2.9 1.3-4.1-1-8.2-5-9.4-1-.3-1.4 1.2-.4 1.5 3.2 1 4.7 3.9 4 7.1-.7 3-3.2 4.2-5.7 2.3-.8-.6-1.6.8-.8 1.4zm-37.7-1.8c-1.5 2.1-2.3 4.7-1 7.1 1 2 3.3 3.2 5.4 3.7 2.1.5 4.4.2 6.1-1.1 2.2-1.7 1.7-4.9.8-7.2-.4-.9-1.9-.5-1.5.4.7 1.8 1.2 4-.2 5.5-1.2 1.2-3.2 1.2-4.7.9-1.7-.3-3.4-1.3-4.4-2.8-1.2-1.9-.3-4.1.9-5.7.5-.8-.8-1.6-1.4-.8z"/><path class="icon-fruit" d="M36.1 67.1c.4 4 3.5 6.4 7.5 5.7 4.4-.8 6.3-5.2 5.2-9.2-.3-1-1.8-.6-1.5.4.8 3.1-.3 6-3.5 7.1-3.1 1.1-5.8-.9-6.1-4-.1-1-1.7-1-1.6 0z"/><path class="icon-fruit" d="M47.6 63.8c1.4 13.3 22.1 5.3 14.6-4.7-.6-.8-2 0-1.4.8 6.1 8.2-10.6 14.2-11.7 3.9 0-1-1.6-1-1.5 0z"/><path class="icon-fruit" d="M61.6 67.6c2.1 2.4 5 2.6 7.4.5 2.5-2.2 3.2-6.1 2.1-9.1-.3-.9-1.9-.5-1.5.4.9 2.4.4 5.1-1.2 7.1-1.7 2.1-4 2-5.7 0-.6-.7-1.7.4-1.1 1.1zm-16.5 3.3c-.9 1.9-1.5 4.1-.1 5.9 1.1 1.4 3.2 1.6 4.8 1.4 1.8-.3 3.6-1.1 4.6-2.7 1.3-1.9.5-4.3-.7-6-.6-.8-2 0-1.4.8.9 1.2 1.6 2.8.8 4.2-.6 1.1-2 1.7-3.2 2-1.1.2-2.6.2-3.5-.6-1.3-1.1-.6-3.1 0-4.3.5-.8-.8-1.6-1.3-.7z"/><path class="icon-fruit" d="M55.3 70c-1.4 2.2-2.5 5.1-.5 7.3 1.6 1.8 4.6 2.1 6.8 1.8 2.4-.3 4.9-1.5 6-3.7 1.5-3-.5-6.3-2.5-8.5-.7-.8-1.8.4-1.1 1.1 1.5 1.7 3.4 4.4 2.2 6.7-.9 1.7-3 2.5-4.8 2.8-1.7.3-3.9.1-5.3-1.1-1.7-1.5-.5-4 .5-5.6.6-.9-.8-1.7-1.3-.8z"/><path class="icon-fruit" d="M49 77.8c-1.7 4 .1 8 4.6 8.8 4.7.9 7.9-2.7 8.1-7.1 0-1-1.6-1-1.6 0-.1 3.5-2.4 6.2-6.1 5.7-3.4-.5-5-3.4-3.6-6.5.4-1-1-1.8-1.4-.9zM32.6 66.4c-1.8 1.3-3.3 3.1-3.1 5.4.2 1.9 1.4 3.5 3 4.6 1.5 1 3.5 1.5 5.3.9 2.3-.8 3.1-3.2 3.3-5.4.1-1-1.5-1-1.6 0-.2 1.6-.7 3.4-2.3 3.9-1.2.4-2.6-.1-3.7-.7-1.2-.7-2-1.9-2.3-3.2-.4-1.8 1-3.3 2.3-4.2.7-.5-.1-1.9-.9-1.3z"/><path class="icon-fruit" d="M36.1 77.3c-.4 3.2 1.9 5.5 5 5.6 3.6.2 5.8-3 5.8-6.3 0-1-1.6-1-1.6 0 0 2.5-1.3 4.6-3.9 4.7-2.4.1-4-1.7-3.7-4.1.1-1-1.4-.9-1.6.1z"/><path class="icon-fruit" d="M42.4 82.2c-.1 1.8.4 3.3 1.9 4.3s3.6.8 5.3.4c1-.2.6-1.8-.4-1.5-2.7.7-5.4.1-5.2-3.2 0-1-1.6-1-1.6 0z"/></svg>