<svg xmlns="http://www.w3.org/2000/svg" viewBox="0 0 100 100"><style>.icon-fruit{fill:#29703d}</style><path class="icon-fruit" d="M.9 47.2c9.8 8.1 23.5 3.8 34.3.3 8.8-2.9 17.5-5.3 26.4-7.6 4.4-1.2 41.7-11.5 27.3-21.2-3.4-2.3-9.5-1.1-13.2-.8-7 .6-13.6.9-20.6 1.1-12.7.4-27.1 2.2-38.9 7.3-7.1 3.1-17.3 9-15.5 18.4 1.9 9.6 11.1 11.8 19.7 10.7 7.7-1 15.1-3.6 22.4-6.1 6.3-2.2 12.7-3.5 19.3-4.8 11.2-2.2 31.1-4.9 32-19.5.1-1-1.5-1-1.5 0-.9 14.3-23 16.5-33.9 18.6-10.8 2.1-20.8 6.3-31.5 9-6.2 1.6-13.3 2.7-19.3 0-8.2-3.7-6.5-13.7-1.2-18.8 9.3-8.9 24.4-10.3 36.4-12 8.4-1.2 16.6-.7 24.9-1.5 6-.6 12.3-1.9 18.4-.8 7.3 1.3 2.3 7.8-.9 9.9-4.4 2.9-9.7 4.6-14.7 6.2-7.9 2.6-16.1 4.2-24.2 6.5C33.6 46 14.4 56.4 2 46.2c-.8-.7-1.9.4-1.1 1z"/><path class="icon-fruit" d="M1 47.5C7.8 75.1 34.6 87.3 61.2 81 74 78 88.3 70.1 93 57c2.2-6.2 2.6-13 3-19.5.3-4.7.6-10.8-2.5-14.7-.6-.8-1.7.3-1.1 1.1 3.3 4.2 2.2 11.8 1.8 16.8-.4 5.9-1 11.9-3.3 17.4-5.3 12.5-19.3 19-31.8 22-25.1 5.8-50.3-7.3-56.6-33-.3-.9-1.7-.5-1.5.4z"/><path class="icon-fruit" d="M92.9 23.7c.7-.1 1.3-.6 1.9-.9 1.1-.6 2.3-1.1 3.5-1.3-.3-.4-.6-.8-.9-1.1-.5.9.2 2.1 1.1 2.4v-1.5c-1.5.6-3.2 1-4.7 1.7l.9 1.2c.9-.8 2.2-1.1 3.2-1.9.7-.6-.2-1.6-.9-1.2-1.3.6-2.6 1-3.8 1.6-.9.4-.1 1.7.8 1.3 1.3-.6 2.6-1 3.8-1.6l-.9-1.2c-.9.8-2.2 1.1-3.2 1.9-.7.6.2 1.6.9 1.2 1.4-.6 2.9-1 4.3-1.5.7-.3.8-1.2 0-1.5 0-.1-.1-.2-.2-.2.3-.6-.2-1.2-.9-1.1-1.2.2-2.3.7-3.3 1.2-.6.3-1.4.9-2.1 1.1-.9.2-.5 1.6.5 1.4zM14.3 62C23.8 72.8 41 75 54.5 72.1c1-.2.6-1.7-.4-1.5-12.9 2.8-29.5.7-38.6-9.7-.7-.8-1.8.3-1.2 1.1zm46.9 8.8c3.1-.7 6.1-1.9 8.8-3.6.8-.5.1-1.8-.8-1.3-2.6 1.6-5.5 2.7-8.5 3.4-.9.3-.5 1.7.5 1.5z"/></svg>