<svg xmlns="http://www.w3.org/2000/svg" viewBox="0 0 100 100"><style>.icon-fruit{fill:#29703d}</style><path class="icon-fruit" d="M29.1 4.6C9.2 16.7-2.8 39.9 1.8 63.2c5.1 25.4 31.7 37.9 55.6 35.2 12.3-1.4 24.1-6.9 32.4-16.1 8.9-9.9 10.6-23.9 8.5-36.6-2.2-13.6-10.1-27.5-21.1-36C62.1-1.9 46.3 1 29 4.9c-1.1.2-.6 1.9.5 1.7 16-3.6 31-6.7 45.4 3.5 11.1 7.9 18.3 21 21.4 34 3.2 13.4.5 27.8-8.8 38.2C79 91.6 66 95.9 53.8 96.9c-23.3 2-45.9-12.3-50.6-35.7-4.3-21.8 8.5-44 26.8-55.1 1-.5.1-2.1-.9-1.5z"/><path class="icon-fruit" d="M34.2 13.3c3.9 10.7 6.3 21.8 12.6 31.4.4.6 1.1.6 1.5 0 6.1-8.7 12.9-22.3 12.6-33.2-.3-11.8-20.7-2.3-25.5 0-1 .5-.1 2 .9 1.5 4.2-2 21.7-10.6 22.9-1.5.8 6-2.9 13.4-5.2 18.7-1.2 2.8-2.5 5.5-3.9 8.2-.6 1.1-1.2 2.1-1.8 3.2-1.1 1.9-.3 1.6-1.3.1-5.6-8.6-7.6-19.4-11.1-28.9-.4-1-2.1-.5-1.7.5zm-6.6 4.1c2 6.6 4.7 13 7.9 19.1 1.6 3 3.5 5.8 5.5 8.6.4.5 2.3 2 .8 2-3.1-.1-6.1-.6-9.1-1.2-3.9-.7-7.7-1.9-11.5-3-2.3-.7-4.6-1.4-6.9-2-2.9-.8-1.8-4.3-1.5-6.3 1.2-8.3 8.1-14 15.8-16.1 1.1-.3.6-2-.5-1.7C17 19.7 10 29.3 11.1 41c0 .4.2.7.6.9 10.7 3 21.3 6.7 32.5 7 .5 0 .9-.4.9-.9 0-3-5.3-7.8-7-10.6-3.8-6.4-6.7-13.4-8.8-20.5-.3-1.1-2-.6-1.7.5zM40 50.8c-9.5 1.8-19.5-1.7-28.8 1.7C3 55.4 5.6 64.4 9 70.1c3.1 5.2 10.3 12.6 16.6 7.6 7.6-6.1 13.8-16.8 16.3-26.1.3-1.1-1.4-1.6-1.7-.5-1.8 6.8-5.7 13-9.7 18.7-2.8 4.1-7.1 9.6-12.6 6.9-4-2-6.9-6.4-8.9-10.3C-.7 48 31.8 54.1 40.4 52.5c1.2-.2.7-1.9-.4-1.7zm4.1 1.4c-1.7 9.4-5.7 18.5-9.9 27-1.1 2.2-3.3 5.9-1.5 8.4C36.5 93 48.1 96.9 54 93c5.6-3.7 3-13.8 1.8-18.9-1.1-4.6-2.8-9-4.4-13.4-1.5-3.9-1.4-8.7-6.4-9.1-1.1-.1-1.1 1.7 0 1.8 4.1.3 7.3 15 8.4 18.6 1.6 5.4 3.6 12.5 1.1 17.9-1.7 3.6-6.3 3.1-9.5 2.5-5.7-1.1-12.9-4.1-9.9-10.8 4.2-9.6 8.9-18.8 10.7-29 .2-1.1-1.5-1.6-1.7-.4zm6.4-.1c6 10.6 5.6 24.2 13.2 34 7.2 9.3 19.4-4.8 21.8-11.4.1-.3 0-.7-.2-.9-9.9-9.3-19.2-20.8-33.1-23.7-1.1-.2-1.6 1.5-.5 1.7 9.6 2 16.8 8.3 23.7 14.9 2.3 2.2 9 6.6 7.2 10.3-2.2 4.5-6.5 8.2-11.1 9.8C60.2 90.5 55.8 57.9 52 51.2c-.6-1-2.1-.1-1.5.9zm4.1-9.2c3.1-5.7 10.3-28.7 19.6-24.7 3.4 1.5 5.5 5.5 7.2 8.6 2 3.6 1.7 5.9-2.2 7.3-8 3-16.8 6.3-25.3 7.1-1.1.1-1.1 1.9 0 1.8 6.4-.6 12.5-2.8 18.6-4.8 3.4-1.1 7.4-1.9 10.4-3.8 5.2-3.4-1.9-12.1-4.2-14.8C66.8 5.7 56.8 35.2 53 42c-.5 1 1 1.9 1.6.9zm3.2 5.8C68 54.9 79.5 60.9 91.4 63.2c.4.1 1-.1 1.1-.6 1.5-9.2 1.7-18.3-2.7-26.8-.2-.4-.6-.5-1-.4C77.9 37.5 66.1 40 57.2 47c-.9.7.4 1.9 1.2 1.2 5.8-4.6 13-6.9 20.1-8.8 3-.8 6-1.4 9.1-2.1 3.5-.7 4.1 13.1 4.1 14.7 0 2.5.5 9.5-2.8 8.7-4.1-1-8.1-2.6-12-4.3-6.3-2.7-12.4-5.8-18.3-9.3-.9-.5-1.8 1.1-.8 1.6z"/></svg>