<svg version="1.1" xmlns="http://www.w3.org/2000/svg" x="0" y="0" viewBox="0 0 100 100" xml:space="preserve"><style>.icon-fruit{fill:#29703d}</style><path class="icon-fruit" d="M53.1 96.5c-18.8-.3-33-8.5-42.9-24.4C5.7 64.9 3.1 57 1.8 48.6 1.2 44.1.7 39.6.4 35c-.3-3.6.3-7.1 1.5-10.5.9-2.5 2.2-4.8 4.5-6.2 1.7-1.1 3.6-2 5.5-2.7 3-1 6-1.7 9.1-2.5 2.7-.7 5.3-1.7 7.7-3 3-1.6 6-3 9-4.5 3.5-1.8 7.2-2 11.1-1.5 5.5.6 10.6 2.4 15.6 4.7 6.6 3 13 6.4 18.8 10.8 6.1 4.5 10.6 10.4 13.9 17.1 1.3 2.7 1.9 5.5 2.3 8.4.9 7 0 13.7-2.7 20.2-.8 2-1.8 4.1-2.6 6.1-.9 2.2-1.4 4.6-1.1 7 .1 1 .1 2.1-.1 3.2 0 .4-.5.7-.9 1-3.9 3-8.1 5.6-12.6 7.8-6.9 3.4-14.2 5.5-21.9 6.1-1.4.1-2.9 0-4.4 0zm38-15.1c.6-1.3.5-2.5.5-3.6 0-1 0-1.9.2-2.9.4-3 1.6-5.7 2.9-8.3 3.2-6.7 4.2-13.8 3.4-21.2-.3-2.9-1.1-5.7-2.4-8.3-3.5-7.2-8.5-13.2-15.1-17.7-6.3-4.3-13-8-20.1-10.8-4.6-1.8-9.3-3.2-14.3-3.4-1.8-.1-3.5 0-5.2.5-2.8.9-4.6 2.6-5.4 5.5-.2.8-.4 1.6-.5 2.4-.3 1.7-.4 3.5-.7 5.2-.4 2-1.8 3.2-3.8 3.5-1.5.2-2.9.2-4.4-.4-1.5-.6-3-1.1-4.5-1.8-3-1.4-6.1-1.9-9.3-2-5.2-.1-9.2 3.6-9.7 8.7-.3 2.6-.5 5.1-.6 7.7-.1 3.6-.2 7.2 1 10.6 1 2.8 2 5.7 3.2 8.4 2.5 5.5 5.7 10.7 10 15 5.1 5.1 10.6 9.5 17.2 12.7 4.5 2.1 8.9 4.3 13.7 5.5 2.7.7 5.4 1 8.2 1.4 4.7.7 9.4.4 14-.7 3.4-.8 6.7-1.9 9.9-3.5 3.1-1.6 6.3-2.5 9.8-2.3.7 0 1.4-.1 2-.2zM3.7 51h-.1v.4C5 58.4 7.4 65 11 71.1c10.7 18 29.5 26.8 50 23.7 10.1-1.5 19.3-5.6 27.7-11.4.2-.1.3-.3.8-.7-1.3.1-2.2.1-3.2.2-2.4.3-4.5 1.2-6.7 2.3-5.3 2.5-10.9 4.2-16.7 4.5-4.8.3-9.6-.4-14.3-1.3-3.5-.7-6.8-2-10.1-3.5-5.6-2.4-11-5.2-15.8-9C14.4 69.5 8.1 61.6 4.2 52c-.2-.4-.3-.7-.5-1zM13 16.6c.2.2.3.3.4.3.2.1.4.1.7.1 3.3.2 6.5 1.1 9.6 2.5 1.3.6 2.7 1.1 4.2 1.5 3.5.9 5.4-.6 5.7-4.2.2-2.8.5-5.7 1.8-8.3v-.3c-.1 0-.3 0-.4.1-2 1.1-4.1 2.2-6.1 3.2-1.7.8-3.4 1.6-5.2 2.2-2.1.7-4.3 1.1-6.4 1.7-1.5.4-2.9.8-4.3 1.2z"/><path class="icon-fruit" d="M63.6 59.1c1.8-.2 3.3.7 4.9 1.5.7.4 1.5.8 2.2 1.2.2.1.4.4.3.5-.1.2-.4.5-.5.5-.5-.1-1.1-.2-1.6-.4-.6-.3-1.2-.7-1.8-1.1-1.3-.7-2.7-1.2-4.2-.9-.7.1-1.5-.3-2.3-.4l-2.1-.6c-.7-.2-1.6-.4-2.2-.8-2-1.4-4.3-1.7-6.5-2.2-.8-.2-1.7-.4-2.5-.7-2-.7-3.9-1.5-5.8-2.2-1.8-.7-3.4-1.7-4.5-3.3-.3-.5-.8-.9-1.2-1.3-.4-.5-.8-.9-1.1-1.4-.9-1.6-1.7-3.2-2.7-4.8-.9-1.4-1.4-3-1.7-4.6-.3-1.7-.6-3.4-1-5-.7-3.2-.3-6.2 1.8-8.9.3-.4.7-.8 1.1-.9 1.2-.3 2-1.1 2.9-1.8.9-.7 1.8-1.3 2.8-1.8 1.2-.6 2.1-.5 3 .6.7.8 1.2.9 2.1.5 1-.4 1.9-.2 2.7.4 1 .8 2.2 1 3.3 1.4l3 .9c.1 0 .2.1.2.1 1.9 1.7 4.7 2.3 6.3 4.6.5.8 1.4 1.3 2.2 1.8 1.1.7 2.2 1.5 3.1 2.5.3.3.7.6 1.1.8 1.2.6 1.8 1.5 2.2 2.7.2.7.5 1.3 1.1 1.7.2.1.4.3.5.5 1.3 3.2 3.4 6.2 2.1 10-.2.7-.2 1.5-.1 2.3.1 1.3.1 2.5-.4 3.7-.7 1.8-.6 3.5.2 5.2.1.2.2.4.2.5 0 .2-.1.6-.3.7-.2.1-.5-.1-.7-.3-.1-.1-.2-.2-.2-.4-.7-1.7-1.2-3.5-.6-5.4.5-1.5.7-3 .4-4.6-.1-.7.1-1.4.2-2.2.1-1 .3-2 .3-3 0-.5-.2-1.1-.4-1.6-.4-1-.9-1.9-1.3-2.9-.3-.8-.6-1.5-1.4-2-.3-.2-.6-.7-.7-1.1-.4-1.3-1-2.5-2.4-3-.2-.1-.5-.3-.7-.5-1-1.3-2.4-2-3.6-2.9-1-.7-1.8-1.6-2.6-2.4-.9-.9-1.9-1.8-3.2-2.1-.3-.1-.8-.3-.9-.5-.8-1.2-2.1-1.4-3.3-1.8-1.6-.4-3.1-.7-4.5-1.8-.5-.4-1.1-.5-1.7-.2-1.3.6-2.4.4-3.3-.8-.5-.7-1-.8-1.8-.4s-1.6.9-2.3 1.5c-.9.7-1.8 1.6-3 1.9-.4.1-.8.5-1 .8-1.6 2.2-2 4.6-1.5 7.2.5 2.2.9 4.4 1.4 6.6.2.9.5 1.8 1 2.6 1 1.9 2.4 3.5 3.1 5.5.2.5.6.8.9 1.2.4.5.9.8 1.2 1.3.9 1.4 2.3 2.3 3.8 2.9 2.2.9 4.5 1.8 6.7 2.6.3.1.7.2 1.1.2 2.7.4 5.3.8 7.5 2.5 2.4.6 4.4 1.9 6.7 1.6zM47.5 64.8c-.4.3-.6.5-.9.5-.4 0-.7-.1-1.1-.3-4.8-1.9-8.8-4.9-12.4-8.6-2.5-2.5-4.1-5.7-5.3-9l-1.5-4.5c-.3-1-.8-1.9-1.1-2.8-.1-.3-.1-.9 0-1 .4-.3.8.1 1 .5.4.8.7 1.6 1.1 2.4.9 2.4 1.8 5 2.8 7.4 1.4 3.3 3.6 6.1 6.4 8.4 3 2.5 6.2 4.6 9.8 6.1.4.3.7.6 1.2.9z"/><path class="icon-fruit" d="M48.9 50.6c-.6.2-.9.5-1.1.5-.6-.1-1.3-.3-1.8-.6-.8-.5-1.6-1.1-2.4-1.6-2.1-1.4-4.1-2.8-6.2-4.2-.3-.2-.6-.3-.8-.6-.1-.1-.1-.5 0-.6.1-.1.4-.2.6-.2.3 0 .5.2.7.4 2 1.3 4.1 2.7 6.1 4.1 1.2.8 2.3 1.8 3.8 2.2.3-.1.6.2 1.1.6zM59.5 46.2c-.1.4-.2.6-.2.9-.5 1.6-1.4 3-2.5 4.2-.4.4-.9.6-1.4.8-.2.1-.5-.2-.6-.4-.1-.1.1-.5.3-.5 1.8-1 2.6-2.8 3.2-4.6.1-.2.1-.4.2-.5.2-.2.5-.4.6-.3.1-.1.2.2.4.4zM64 47.2c-.1-.2-.3-.6-.2-.7.4-.9.9-1.7 1.4-2.5.1-.1.4-.2.6-.2.1 0 .3.2.3.4.1.6-1.1 2.7-1.6 2.9-.2 0-.3 0-.5.1zM77.2 55.5c-.2.2-.3.5-.5.6-.1.1-.5-.1-.6-.2-.4-.9-.8-1.9-1.1-2.8-.1-.1.1-.5.2-.5.2 0 .6 0 .7.2.5.8.9 1.8 1.3 2.7zM51.5 66.3c.9.3 1.8.6 2.6 1 .2.1.3.4.3.5-.1.2-.4.5-.6.4-.9-.3-1.8-.6-2.7-1-.1 0-.2-.4-.1-.6.1-.1.4-.2.5-.3zM32.9 27.1c.2.1.4.2.5.3.3.7.5 1.4.7 2.1 0 .1-.1.4-.3.5-.1.1-.5 0-.5-.1l-.9-2.4s.3-.2.5-.4zM43.3 29c.2.1.4.2.5.3.3.6.5 1.2.7 1.8.1.2-.1.4-.2.6-.1.1-.4.1-.5 0-.6-.3-1.1-1.6-.9-2.2 0-.1.2-.3.4-.5zM67.9 49.4c-.3.6-.5 1.2-.8 1.7-.1.1-.5.2-.7.1-.1 0-.2-.4-.2-.6.1-.5.3-1 .5-1.4.1-.4.3-.7.8-.5.2.1.2.5.4.7zM50.1 37.4c-.2.2-.3.4-.4.5-.1.1-.4 0-.5-.1-.3-.6-.6-1.3-.9-1.9 0-.1.1-.3.3-.4.1-.1.4 0 .5.1.4.6.7 1.2 1 1.8zM56.2 31.1c-.5.2-.9.4-1 .4-.5-.4-.9-.9-1.2-1.4-.2-.3.3-.8.6-.6.6.4 1 1 1.6 1.6zM64.3 56.1c.5.6.3 1.1-.2 1.2-.4.1-1 .1-1.4 0-.3-.1-.2-.7.2-.8.3-.2.8-.2 1.4-.4zM49.9 42.5c-.3.2-.6.5-.9.6-.4.2-.8.3-1.1-.2-.1-.1-.1-.3 0-.4.1-.4 1.3-.8 1.7-.5 0 .2.1.3.3.5zM45.9 40.9c-.7 0-1.4-.6-1.3-1.1 0-.2.4-.4.4-.4.4.3.9.7 1.3 1.1-.1 0-.3.3-.4.4zM55.3 37.7c-.3.4-.5.9-.8.9-.7 0-.5-.6-.6-1 0-.4 0-1 .6-.8.3 0 .5.5.8.9zM38.4 31.2c.6 0 1.2.6 1.1 1.1 0 .2-.2.4-.4.5-.4.1-1.1-.6-1.1-1 .1-.3.3-.4.4-.6z"/></svg>
