<svg xmlns="http://www.w3.org/2000/svg" viewBox="0 0 100 100"><style>.icon-fruit{fill:#29703d}</style><path class="icon-fruit" d="M23.2 19.5c-.3-.2-.6-.3-.9-.4L14.8 17c-.2 0-.4 0-.5-.1-.2-.2-.5-.4-.6-.6 0-.2.2-.6.5-.7 1.4-.7 3-1 4.6-1.1 3.6-.3 7 .3 10.1 2 .6.3 1.1.4 1.7.2C34 16 37.5 15.3 41 15c.2 0 .3-.1.6-.1-.2-.6-.7-.8-1.1-1.1-.6-.4-1.2-.8-1.9-1.2-.4-.3-.9-.6-.7-1.1.3-.7.9-.4 1.4-.3.7.1 1.5.3 2.2.5 2.3.8 4.5 1.5 6.6 2.8.4.2.8.4 1.2.4 1.9-.1 3.7.2 5.6.6.2.1.5 0 .9 0-.2-1.6-.3-3.1-.6-4.6-.7-2.9-1.5-5.8-2.8-8.6-.5-1-.3-1.4.8-1.6 1.9-.4 3.7-.1 5.4.8.8.4 1.1 1.1 1.3 1.9.4 2 .8 4 1 6.1.2 2.5 0 5.1 0 7.7 1.7.6 3.2 1.2 4.8 1.7.3.1.7-.1 1.1-.2 1.4-.5 2.8-1.1 4.3-1.7 1.5-.5 3-.5 4.5-.5.4 0 .9 0 .9.5 0 .3-.3.7-.6.9-1.1.8-2.3 1.4-3.4 2.2-.5.3-.9.7-1.5 1.2 1.5.5 2.7 1.1 4.1 1.5 4 1 7.6 2.9 11 5.1 3.4 2.3 5.9 5.4 8 8.9 2.2 3.8 3.1 8 3.9 12.3.9 5.1.6 10.1-.5 15.1-.8 4.1-2.4 8-4.7 11.4-2.8 4.2-6.2 8-10.3 11-2.1 1.6-4.5 2.8-6.8 4.1-2.8 1.5-5.7 2.9-8.5 4.3-3.1 1.5-6.4 2.6-9.9 2.8-3.8.3-7.6.9-11.4 1.2-2.1.2-4.2.3-6.3.2-1.8-.1-3.6-.4-5.3-.9-6.4-1.8-12.1-5-16.9-9.6-2.1-2-4.2-3.9-6.2-6-1.7-1.8-2.9-3.9-4-6.1-2.4-5-4-10.3-4.8-15.8-.7-4.4-.3-8.9.4-13.3.7-5.5 3-10.6 6.5-15.1.8-1.1 1.7-2.2 2.5-3.4 2.8-3.9 6.4-6.8 10.6-9l.6-.3.2-.2zm20.1 12.6c-2.2-.8-4.2-1.3-6.1-2.2-2.8-1.2-5.2-3.1-7.4-5.1-1.4-1.3-2.8-2.5-4.1-3.8-.6-.6-1.2-.7-2-.3-3.6 1.9-6.9 4.1-9.5 7.3-1.8 2.3-3.6 4.5-5.2 6.9-2 2.9-3.6 6.1-4.5 9.5-.9 3.2-1.3 6.3-1.5 9.6-.2 2.6-.1 5.2.4 7.8.9 4.9 2.3 9.6 4.4 14.1 1.1 2.3 2.3 4.5 4 6.3 1.9 1.9 3.9 3.8 5.9 5.6 3.8 3.5 8 6.5 12.9 8.2 1.6.6 3.2 1.2 4.8 1.6 4 1 8 .6 12 .2 1.4-.1 2.9-.4 4.3-.5 2.5-.3 5-.4 7.4-.8 2.5-.3 4.9-1.3 7.2-2.4 3.2-1.6 6.3-3.2 9.5-4.8 4.1-2 7.7-4.7 10.8-8 2.2-2.4 4.3-4.7 5.9-7.5 3.6-6.3 4.8-13.2 4.8-20.3 0-.3-.1-.6-.1-.9-.4-2.2-.8-4.4-1.1-6.6-.7-4.3-2.5-8.1-5.1-11.7-2.8-3.9-6.7-6.4-11-8.5-.8-.4-1.7-.7-2.5-1-1.9-.7-3.8-1.3-5.7-1.9-.5-.2-.9-.3-1.4-.3-.3 0-.7 0-.8.2-1.2 1.3-2.3 2.5-3.4 4.2.8-.1 1.4-.2 2-.2 1.9-.2 3.8-.3 5.7.1 2.2.5 4.3 1.4 6.1 2.9.3.3.6.7.6 1.1 0 .6-.6.6-1.1.7h-.7c-1.3.2-2.6.3-3.9.5-.9.1-1.7.4-2.4.6.7.9 1.4 1.8 2.2 2.6 2.3 2.6 4.6 5.1 7 7.7 1.2 1.3 2.6 2.4 4.4 3 .2.1.5.2.7.4.2.2.4.6.3.8-.2.2-.5.4-.8.5-.3 0-.6-.2-.9-.3-.3-.1-.6-.4-.9-.4-1.8-.3-3.4-1-4.9-2-2-1.4-3.8-2.9-5.8-4.3-5.8-4.1-11.8-4.8-18-2-2.3 1-4.4 2.5-6.6 3.7-.3.2-.6.5-.9.6-.3.1-.6 0-1 0 0-.3-.1-.6.1-.8.3-.7.8-1.3 1.2-1.9 1.2-1.7 2.3-3.5 3.7-5.4-1.4.2-2.6.4-3.8.6-3.8.8-7.5 1.6-10.9 3.6-.5.3-1.1.7-1.5 0-.4-.6.2-1 .6-1.3 2-1.9 3.9-3.9 6.2-5.4.1-.1.2-.2.4-.3zM53.5 1.9c1.3 3 2.3 5.9 2.9 9 .9 4.8.9 9.6.4 14.5-.1.6-.3 1.2-.5 1.8-.1.2-.4.3-.6.4-.1-.2-.3-.4-.4-.6 0-.3.1-.6.1-.9 0-.4 0-.9-.1-1.3-1.9-4.6-5.1-8-9.6-10.2-1.2-.6-2.5-1-3.7-1.5.4.7.9 1.1 1.3 1.5 1.9 2 3.4 4.3 4.4 6.9.6 1.6 1 3.3 2.7 4.2.2.1.2.6.1.8-.1.2-.5.3-.7.3-.3 0-.6-.1-.9-.1-3.2-.1-6.3-1-9.2-2.3-3-1.4-5.8-3.1-8.6-5-2.9-2-6-3.5-9.5-3.7-1.6-.1-3.2-.1-4.7.4.4.2.8.4 1.2.5 1.8.6 3.7 1.1 5.5 1.8.9.4 1.8.8 2.9.8.4 0 .7.3 1.1.5-.2.3-.3.6-.5 1l4.2 3.9c3.9 3.4 8.2 5.9 13.5 6.2.4 0 .8.3 1.2.5.2.1.2.5.3.8-.2.1-.5.2-.7.2-.5-.2-.8 0-1.2.3-.6.4-1.2.8-1.7 1.2-1 .8-1.9 1.6-2.9 2.4.5.1.9 0 1.2-.1 4-1.3 8.2-2.2 12.4-2.6.4 0 .9-.2 1.2.3.3.6-.2.9-.6 1.2-.1.1-.3.2-.4.3-1.5 1.4-2.5 3.1-3.5 4.8l.9-.3c1.4-.7 2.8-1.6 4.3-2.2 6.5-2.8 12.7-2.2 18.5 1.7 1.1.7 2 1.6 3 2.4 1.3 1 2.6 1.9 4.1 2.6-.6-.8-1.2-1.4-1.8-2.1-2.1-2.4-4.3-4.7-6.4-7.1-2.3-2.4-5.1-3-8.3-2.5-.4.1-1.1.4-1.2-.3-.1-.6.5-.7 1-.8 1.9-.4 3.7-.2 5.6.3.5.1 1 .1 1.5 0 1.6-.4 3.2-.7 4.8-1.1.7-.2 1.5-.2 2.3-.4-.1-.2-.2-.3-.2-.3-.1-.1-.3-.2-.4-.3-3.1-1.9-6.5-2.3-10.1-1.7-.9.2-1.8.3-2.7.4-.9 0-1.2-.6-.7-1.3.5-.7 1-1.3 1.5-2 2-2.5 4.1-4.9 6.9-6.6.2-.1.5-.2.7-.3-.1-.1-.2-.2-.3-.4-.4.1-.9.1-1.3.2-2.2.6-4.2 1.4-6.1 2.6l-3 2.1c-1.4 1-2.9 2-3.1 4 0 .4-.4.7-.8.6-.5-.1-.5-.5-.4-.9.2-1.3.4-2.7.6-4 .6-3.9.9-7.7.6-11.6-.2-2.3-.6-4.5-1-6.7-.1-.6-.3-1.3-1-1.6-1.1-.5-2.5-.9-4.1-.6zm-5.2 23.7c-.7-1.7-1.3-3.3-2.1-4.7-.7-1.3-1.6-2.6-2.4-3.9-.4-.7-1-.9-1.8-.9-.4 0-.9 0-1.3.1-2.2.3-4.5.6-6.7 1-.9.1-1.8.3-3 .6 5.5 3.8 10.8 6.9 17.3 7.8zm7.5-8.7c-1.8-.3-3.5-.9-5.2-.8.7.8 1.3 1.5 1.9 2.2.6.7 1.2 1.4 1.7 2.2.5.7 1 1.5 1.4 2.3.1 0 .1-.1.2-.1v-5.8zm5 1.5c-.1 1-.2 1.7-.3 2.4-.1.7-.3 1.5-.1 2.4 1.5-1.1 2.9-2.2 4.4-3.3-1.4-.5-2.6-1-4-1.5z"/><path class="icon-fruit" d="M8.1 67.5c.1.1.2.1.3.3.1.1.2.3.2.5 1.5 4.2 4.1 7.8 6.9 11.1 3.1 3.6 6.9 6.2 11 8.5 3.7 2 7.6 3.5 11.5 4.9.2.1.5.1.7.3.2.1.4.4.3.6 0 .2-.4.3-.6.3-.2 0-.4-.1-.6-.2-2.8-1.1-5.6-2-8.3-3.2-4.1-1.8-8.1-4-11.4-7C13.9 79.8 10.3 75.4 8 70c-.2-.5-.4-1.1-.6-1.6-.1-.5.2-.9.7-.9zM7.4 66c-.2-.2-.6-.3-.7-.6-.7-1.5-1.1-3.1-1.1-4.8 0-.4 0-.7.5-.8.5 0 .6.3.6.7.1 1.5.4 2.9.9 4.3.1.3 0 .6.1 1-.2 0-.2.1-.3.2zm-.8-9.1c-.1.4.3 1.1-.5 1.1-.7 0-.5-.7-.6-1.1 0-.3 0-.7.1-1 0-.2.3-.4.4-.4.2 0 .4.2.5.3.1.4 0 .7.1 1.1z"/></svg>