<svg xmlns="http://www.w3.org/2000/svg" viewBox="0 0 100 100"><style>.icon-fruit{fill:#29703d}</style><path class="icon-fruit" d="M47.7 2c-22-6.8-36.6 8.3-41.1 28.8C1.5 54.6 9.1 78 29 92.4c27.8 20 61.5-8 67.4-36.3 2.6-12.6-.4-28.2-7.7-38.9C83 8.7 73.1 4.7 63.2 3.4c-5.7-.7-11.4-.8-17.2-.7-1.1 0-1.1 1.7 0 1.7 11.2-.2 22.9.1 32.9 5.8C90 16.6 93.6 29.9 95.2 41.8c4.1 31.3-30.4 67.8-61.8 51.3C11.7 81.7 4.3 56.9 7.8 34 10.9 13.4 25.1-3.2 47.2 3.6c1.1.4 1.5-1.3.5-1.6z"/><path class="icon-fruit" d="M44.5 20.3c-9.9 4.3-19.1 19.9-16.6 30.9 1.3 6 5.4 8.9 10 12.5 5.9 4.7 7.8 12.9 14.5 16.7.5.3 1.1 0 1.3-.5 5.2-13.7 18.1-22.5 15.7-38.5-.9-5.9-2.4-11.9-7.3-15.8-4.5-3.6-11.2-4.3-16.6-5.8-1.1-.3-1.5 1.4-.5 1.7 4.7 1.3 9.5 2.1 13.9 4.2 5.4 2.6 7.2 8.4 8.3 13.8 2.9 14-5.7 22.2-12.2 33.1-1 1.6-1.8 3.3-2.5 5-.7 1.8-7-7.2-7.6-8.1-3-4.7-6.9-7.5-11-11-11.6-9.7.1-31.9 11.3-36.7 1.2-.5.3-1.9-.7-1.5z"/><path class="icon-fruit" d="M42.7 23.9C41.3 37.3 32 49.5 39.6 62.6c.6 1 2 .1 1.5-.9-7.3-12.6 2-25 3.3-37.8.1-1.1-1.6-1.1-1.7 0zm2.5 7.7c1.8 10.2 1.1 20.6.7 30.9 0 1.1 1.7 1.1 1.7 0 .4-10.4 1-21-.7-31.3-.2-1.1-1.9-.7-1.7.4zm6.3 36.5C55.2 55.5 55 42.9 53.3 30c-.1-1.1-1.9-1.1-1.7 0 1.6 12.8 1.9 25.2-1.8 37.7-.3 1 1.4 1.4 1.7.4zm4.6-37.5c8.4 8.5 4.9 19 2.3 29.2-.3 1.1 1.4 1.5 1.7.5 2.8-10.9 6.1-21.9-2.7-30.9-.8-.8-2 .4-1.3 1.2zm-21.6 6.6c-.3 2-.6 4.1-1.1 6.1-.3 1.1 1.4 1.5 1.7.5.5-2 .8-4 1.1-6.1.1-1.1-1.6-1.5-1.7-.5zm-3.9-13.4c-3.9-.1-7.6-1.8-11.2-3.2-1-.4-1.5 1.3-.5 1.7 3.8 1.4 7.6 3.1 11.7 3.2 1.2 0 1.2-1.7 0-1.7zM26.8 32c-2.8.7-5.5 1-8.3 1-1.1 0-1.1 1.7 0 1.7 3 0 5.9-.4 8.8-1.1 1.1-.2.6-1.9-.5-1.6zm-3.7 14c-1.5.8-2.9 1.8-4.4 2.4-1 .4-.6 2.1.5 1.7 1.7-.7 3.2-1.7 4.9-2.6.8-.5-.1-2-1-1.5zm8.2 18.6c-1.1 1.7-2.7 3-4.2 4.5-.8.8.4 2 1.2 1.2 1.6-1.5 3.3-2.9 4.4-4.8.7-1-.8-1.9-1.4-.9zM68 23.3c3-1.1 6.1-2.9 8.6-4.9.9-.7-.4-1.9-1.2-1.2-2.2 1.8-5.1 3.5-7.8 4.4-1 .4-.6 2.1.4 1.7zM74.1 34c1.8-.7 3.7-1 5.6-.7 1.1.2 1.5-1.5.5-1.7-2.2-.3-4.4-.1-6.5.7-1.1.4-.6 2.1.4 1.7zM77 51.8c1.3.7 2.7 1.3 3.8 2.4.8.8 2-.4 1.2-1.2-1.2-1.1-2.6-1.9-4.1-2.6-1-.6-1.9.9-.9 1.4zm-7.8 19.7c.9 1.6 2.2 3 3.9 3.9 1 .5 1.8-1 .9-1.5-1.4-.7-2.5-1.9-3.3-3.3-.5-.9-2-.1-1.5.9zm-29.5 7.9c-1.9 1.9-3.6 4-5.4 6.1-.7.8.5 2.1 1.2 1.2 1.7-2.1 3.5-4.2 5.4-6.1.8-.8-.4-2-1.2-1.2z"/></svg>