<svg xmlns="http://www.w3.org/2000/svg" viewBox="0 0 100 100"><style>.icon-fruit{fill:#29703d}</style><path class="icon-fruit" d="M42.2 27.8c-38.1-7-30.6 58.8-4.1 69.4 18.6 7.4 36.8-6.3 43-23.4 5.4-14.9 4.3-38.9-9.8-49.1-9.9-7.2-23.1-3.4-31.2 4.9C28.8 41.1 27.6 63.2 34 77.3c.5 1 2 .1 1.5-.9-6.5-14.4-4.3-35.3 7-46.8 8-8.2 21.6-9.7 30-1.7C87.8 42.6 84.4 73.1 71 87.5c-7.7 8.4-20.5 12.1-31.4 8.4-9.9-3.4-16-13.4-19.3-22.8-5.3-15.4-4.4-45.3 18.3-44 1.1.1 2.1.2 3.2.5 1 .1 1.5-1.6.4-1.8z"/><path class="icon-fruit" d="M37.6 83.1c3.1 6.2 8.3 10.6 13.2 15.4.8.8 2-.4 1.2-1.2-4.7-4.7-9.9-9-12.9-15-.5-1.1-2-.2-1.5.8zm7-55.6c1.5-7.7-1.7-22.8 8.4-25.1 1.1-.3.6-1.9-.5-1.7C41.3 3.3 44.6 18.6 43 27c-.3 1.1 1.4 1.6 1.6.5zm11.3 2.7C66.5 32.4 70.6 43.1 70.5 53c0 1.1 1.7 1.1 1.7 0 .2-10.6-4.5-22.1-15.9-24.4-1.1-.3-1.5 1.4-.4 1.6zm14.9 30c0 1.8-.4 3.5-1.1 5.2-.4 1 1.3 1.5 1.7.5.7-1.8 1.1-3.7 1.1-5.7.1-1.1-1.7-1.1-1.7 0z"/></svg>