<svg xmlns="http://www.w3.org/2000/svg" viewBox="0 0 100 100"><style>.icon-feature{fill:#29703d}</style><path class="icon-feature" d="M33.8 59.1c-.1-7.9-.3-15.9-.4-23.8-.1-4.8-.1-9.6-.2-14.5 0-.5.2-1 .3-1.4.4-1.8.7-3.6 1.1-5.4.2-.9.4-1.9.6-2.8.6-2.2.6-4.5.6-6.8 0-1.6.7-2.5 2.6-2.7h21.9c.8 0 1.5-.1 2.3.2l.9.3c.6.3.8.7.8 1.4-.1 1.2 0 2.4-.1 3.6-.1 1.4 0 2.7.3 4 .5 2.3.9 4.6 1.4 6.9.1.3.3.5.4.8.1.2.1.5.2.7v3c0 8.3.1 16.5.1 24.8.1 10.2.1 20.5.2 30.7 0 4.8 0 9.6.1 14.4 0 .5 0 .8-.5 1.1-.3.2-.5.6-.8.9-.9 1.2-1.9 2.4-2.8 3.6-.1.1-.3.2-.5.2H34.9c-.5 0-.6-.1-.6-.6 0-1.7 0-3.4-.1-5.1 0-3.4-.1-6.8-.2-10.1 0-7.8-.1-15.6-.2-23.4zM62 97.6c.2-1.3-.7-76.1-.9-76.8-9 0-18.1-.1-27.2-.2.4 25.7.8 51.3 1.1 77h27zm-.8-77.5c.1-.3.1-.4.2-.6.6-3.1 1.1-6.2 1.7-9.3.2-1 .4-2 .5-3 .1-1.2.1-2.4.1-3.5 0-.4-.1-.6-.4-.8-.3-.1-.5-.3-.8-.3-.6-.1-1.1-.1-1.7-.1H38.5c-.4 0-.7.1-1.1.2-.5.2-.8.6-.8 1.1 0 .8-.1 1.6-.1 2.4-.1 1.2 0 2.3-.3 3.5-.6 3.2-1.3 6.4-2 9.6 0 .2 0 .4-.1.6 9.1 0 18.1.1 27.1.2zm2.6-9.1h-.1c0 .1-.1.1-.1.2-.4 2-.7 4-1.1 6-.2 1.1-.5 2.2-.5 3.4l.3 26.1.3 31.4c.1 5.5.1 11 .2 16.6v2c.2-.2.3-.3.4-.3.9-1.1 1.7-2.1 2.6-3.2.3-.3.3-.7.3-1.1 0-7.1-.1-14.2-.1-21.4L65.7 22c0-1.1 0-2.2-.4-3.3-.5-1.3-.6-2.7-.9-4-.2-1.3-.4-2.5-.6-3.7z"/><path class="icon-feature" d="M47.5 35.6c-2.5-.1-5-.4-7.3-1.4-.9-.4-1.8-1-2.6-1.7-1.6-1.6-1.6-3.5-.1-5.1.9-1 2.1-1.6 3.3-2 4.5-1.5 9-1.5 13.4.1.9.3 1.6.9 2.4 1.4.2.1.4.3.6.5 1.6 1.6 1.6 3.6 0 5.2-1 1-2.1 1.6-3.4 2.1-1.9.5-4.1.8-6.3.9zm0-10.8c-1.1.1-2.1.1-3.2.3-1.6.2-3.2.7-4.7 1.5-.7.4-1.3.9-1.8 1.5-.9 1.1-.9 2.3 0 3.4.3.3.5.7.9.9.8.5 1.6 1 2.4 1.3 2.6 1 5.3 1.3 8.1 1.1 1.8-.1 3.5-.5 5.2-1.2.9-.4 1.8-.9 2.5-1.6 1.3-1.3 1.3-2.8 0-4.2-.7-.7-1.6-1.2-2.5-1.6-2.2-1-4.5-1.3-6.9-1.4zm-6.1-11.6v-1.7c0-.8.3-1.6.8-2.2.6-.7 1.3-1.2 2.1-1.6 2.5-1.2 5.2-1.6 7.9-.7.7.2 1.3.6 1.9 1 .9.7 1.2 1.6 1 2.8-.2 1.3-.3 2.6-.4 3.9v.4c.2.4 0 .6-.2.9-1.3 1.5-2.9 2.5-4.8 2.9-1.8.4-3.5.3-5.2-.4-1-.4-1.9-1.1-2.6-1.9-.3-.4-.5-.8-.5-1.4v-2zm10.9 3.5c-.4-.2-.4-.5-.4-.9 0-.6 0-1.1-.1-1.7 0-.1-.1-.1-.1-.2-.2.1-.3.1-.5.2v.3c0 .8.1 1.5.1 2.3 0 .2-.2.3-.3.5l-.4-.4c-.1-.4 0-.9-.1-1.3 0-.4-.1-.7-.1-1.2-.3.1-.4.1-.6.2 0 .3.1.6.1.9 0 .6.1 1.2.1 1.8 0 .2-.2.3-.3.5-.1-.1-.3-.3-.3-.4-.1-.5-.1-1-.1-1.5 0-.4-.1-.7-.1-1.1-.2.1-.3.2-.3.3 0 1.1-.1 2.1.1 3.2 1.1-.1 2.7-.7 3.3-1.3v-.2c.3-.1.7-.1.7-.5 0-.9 0-1.9-.1-2.8-.4 0-.4.2-.4.5 0 .7.1 1.4.1 2.1.1.2.1.5-.3.7zm-5.1-2.6c1.6 0 3.1-.3 4.5-1 .8-.4 1.5-.9 2-1.6.7-.9.8-2.3-.4-3.1-.5-.3-1.1-.6-1.6-.8-1-.4-2.1-.4-3.2-.3-1.6.1-3.1.5-4.5 1.3-.7.4-1.3.9-1.6 1.6-.5 1-.4 1.9.5 2.6.4.3.8.6 1.3.8.9.4 2 .5 3 .5zm1 4.2v-3.4h-1c.1 1.2.1 2.3.2 3.4h.8zm-2.4-3.5v3.4c.3 0 .6.1.9.1-.1-1.2-.1-2.3-.2-3.4-.2-.1-.4-.1-.7-.1zm-.7 3.1v-3.3c-.2 0-.5-.1-.7-.1 0 1.1.1 2.2.1 3.2.2.1.4.2.6.2zm-1.2-.6c0-1-.1-1.9-.1-2.8 0-.4-.3-.5-.6-.5v2.6c-.1.4.2.5.7.7zm-1.7-4.1c-.3 1.5-.2 2.3.3 2.7.1-1.1 0-2.3-.3-2.7zm11.8-.8c-.7.4-.3.9-.4 1.3-.1.5 0 .9 0 1.4h.2c.1-.8.1-1.7.2-2.7z"/></svg>