<svg xmlns="http://www.w3.org/2000/svg" viewBox="0 0 100 100"><style>.icon-feature{fill:#29703d}</style><path class="icon-feature" d="M43.6 29.4c-.3 0-.5 0-.7-.1-.1 0-.2-.2-.3-.3.1-.1.2-.2.3-.2.2 0 .4-.1.7-.1V28c0-.1.2-.2.2-.3l.3.3c.1.2.1.4.1.6h11.1v-1.1H43.8c-1.3 0-1.3 0-1.2-1.3 0-.7.1-1.5.1-2.2 0-.4.2-.6.5-.9.6-.4 1.2-.6 1.9-.6h8.1c.8 0 1.6.1 2.4.2 1 .1 1.5.8 1.5 1.7 0 .7-.1 1.4-.1 2.2 0 .7-.1.8-.8.8-.1 0-.1 0-.2.1v1c.1 0 .3 0 .4.1.1 0 .3.2.2.2 0 .1-.1.2-.2.3-.1.1-.2 0-.3.1v2c0 .2.2.4.3.5 1.8 1.5 2.8 3.5 3.1 5.8.1.3.1.7.1 1 0 3.8-.1 7.5-.1 11.3-.1 5.9-.1 11.8-.2 17.8 0 1.6 0 3.2-.1 4.8 0 .6-.1 1.1-.2 1.7-.1.5-.4.9-.9 1.2-.8.5-1.6.7-2.5.8-1.9.3-3.9.3-5.9.3h-3.8c-1.2 0-2.3-.2-3.4-.4-1.5-.3-2.4-1.2-2.6-2.7-.2-1.2-.3-2.4-.4-3.6-.1-3.9-.2-7.8-.2-11.6 0-2.5.1-4.9.2-7.4V46c0-2.1 0-4.1.1-6.2 0-1.1.2-2.2.4-3.3.4-1.7 1.3-3.2 2.6-4.3.7-.6 1-1.3.9-2.2.1-.3.1-.4.1-.6zm.6 0c0 .2-.1.4 0 .6.1 1.1-.3 1.8-1.1 2.6-1.5 1.4-2.5 3.1-2.6 5.2-.1 1.5-.2 3-.2 4.5-.1 4.7 0 9.5-.2 14.2-.1 3.2 0 6.5 0 9.7 0 1.6.1 3.3.2 4.9.1.9.2 1.7.3 2.6.2 1.1.8 1.7 1.9 1.8 1 .2 2 .3 3 .4 1.5.1 3 .1 4.5.1 2 0 4 0 5.9-.3.6-.1 1.2-.3 1.7-.5s.8-.6.9-1.1c.1-.6.2-1.1.2-1.7v-3.3c0-3.2.1-6.3.1-9.5.1-6.4.1-12.7.2-19.1 0-.7.1-1.4.1-2-.2-2.3-1.1-4.4-2.9-5.9-.5-.4-.7-.9-.7-1.6 0-.5 0-1-.1-1.6-3.8-.1-7.5-.1-11.2 0zM43.1 27c1.1.1 12.9.1 13.4-.1v-2.5c-4.4-.1-8.8-.2-13.2-.1-.1.9-.2 1.8-.2 2.7zm.5-3.3c4.2 0 8.4.1 12.5.1v-.1c-.2-.3-.5-.3-.8-.4-.7-.1-1.5-.1-2.2-.1h-8.7c-.2 0-.5.1-.8.5z"/><path class="icon-feature" d="M50.2 60.7c1.1 0 2.2.2 3.2.6.6.3 1.1.6 1.5 1.1.7.8.7 1.8-.1 2.6-.4.5-1 .8-1.6 1-2 .7-3.9.6-5.9-.2-.6-.3-1.2-.6-1.6-1.1-.6-.8-.6-1.7.1-2.5.3-.4.8-.7 1.2-.9 1-.4 2-.6 3.2-.6zm0 .6c-.8 0-1.7.1-2.5.4-.4.2-.9.4-1.3.8-.7.6-.7 1.4 0 2 .3.3.7.6 1 .8 1.9.8 3.9.9 5.8.2.4-.1.7-.4 1-.7.7-.6.7-1.4 0-2.1-.3-.3-.7-.5-1.1-.7-.8-.5-1.8-.7-2.9-.7zM48.8 51c0 2.9-.1 5.7-.1 8.6 0 .2.1.5-.3.6-.2 0-.3-.2-.3-.6l.3-16.7c0-.3 0-.5.1-.8 0-.1.2-.2.2-.2.1 0 .2.1.2.2v.5c0 2.6-.1 5.1-.1 7.7v.7zm4.9 1.4h-3.6c-.5 0-.7-.1-.6-.3.1-.3.4-.2.6-.2h7.3c.2 0 .5-.1.6.2.1.2-.1.3-.6.3h-3.7z"/></svg>