<svg xmlns="http://www.w3.org/2000/svg" viewBox="0 0 100 100"><style>.icon-feature{fill:#29703d}</style><path class="icon-feature" d="M22.4 59.7h1c2.4 0 4.8 0 7.2.1 1.1 0 1.4.3 1.4 1.5V64c0 .9-.1 1-.9 1H16.5c-.6-.1-.7-.2-.8-.9 0-.6.1-1.1 0-1.7-.3-3.6 1.3-6.3 3.8-8.6 1.7-1.6 3.4-3.2 5.1-4.7.8-.7 1.3-1.7 1.4-2.7.1-1.7 0-3.3 0-5 0-.7-.3-1-.9-1-.5-.1-1-.1-1.5-.1-1.3 0-1.8.5-1.8 1.9v2.3c0 .8-.1 1-.8 1.1-1.2.1-2.4.2-3.5.3-.4 0-.8-.1-.8-.6-.2-1.9-.6-3.7-.1-5.6.4-1.4 1.2-2.5 2.3-3.3.8-.6 1.6-.9 2.5-1 2 0 4-.1 6 0 2.3.1 3.8 1.3 4.4 3.6.1.5.3 1.1.3 1.7 0 1.9.1 3.8 0 5.6-.1 2.3-1 4.2-2.7 5.7-2 1.7-3.8 3.6-5.7 5.5-.9.4-1.3 1.2-1.3 2.2zm-1.7-15.3V43c0-.7 0-1.4.2-2 .3-1.2 1.1-1.8 2.3-1.8h1.6c1.5.1 2.1.7 2.2 2.2 0 1.3.1 2.6 0 3.9 0 1.6-.4 3.1-1.6 4.2-1.8 1.7-3.6 3.5-5.4 5.1-2.8 2.4-3.6 5.6-3.1 9.3h14.3v-3.2h-1.1c-2.5 0-5-.1-7.5-.1-1 0-1.1-.3-1-1.2.1-1.3.7-2.3 1.5-3.2 1.9-1.9 3.9-3.8 5.9-5.6.8-.8 1.4-1.6 1.7-2.7.3-1 .4-2.1.4-3.1 0-1.6 0-3.2-.1-4.8-.1-2.2-1.7-4-3.8-3.8-1.3.1-2.7 0-4 0-.7 0-1.5 0-2.2.1-2 .3-3.8 2.6-3.8 4.7 0 1.2.1 2.4.2 3.7 1-.1 2.1-.2 3.3-.3zm54.5-8.1c-.1.4-.1.7-.2 1L65.1 64c-.2.7-.6 1-1.3 1h-1.9c-1.1 0-1.2-.3-.9-1.3 1.8-4.7 3.7-9.5 5.5-14.2 1.5-3.8 3-7.6 4.4-11.4.2-.5.3-1 .5-1.4.1-.2.3-.5.5-.5 1-.1 2.1-.2 3.3.1zM64.1 64.1c3.3-9 6.6-17.9 10-26.9h-1.8c-3.5 9-6.9 17.9-10.4 26.9h2.2zm-4.9-29.5H61c1.2 0 2.1.6 2.5 1.6.3.8.5 1.6.5 2.5.1 2.5 0 5.1 0 7.7 0 .7-.1 1.4-.3 2.1-.4 1.2-1.3 1.9-2.6 1.9-1.2.1-2.4.1-3.6.2-2.1.1-3.5-1.1-3.6-3.3v-9.2c0-2 1.4-3.6 3.4-3.5h1.9zm4.1 9.1h-.1v-3.5c0-.8 0-1.6-.1-2.3-.1-1.3-.7-2.4-2.5-2.4h-3.2c-1.6-.1-2.5 1.1-2.5 2.4V43c0 1.5 0 3 .1 4.6 0 1.1.7 1.9 1.8 2.1.3.1.7.1 1 0 1.1-.1 2.2-.2 3.3-.2 1.3-.1 1.8-.7 1.9-1.9.1-1.4.2-2.6.3-3.9z"/><path class="icon-feature" d="M56.9 42.6c0-1.3.1-2.6.1-3.9.1-1.1.5-1.5 1.6-1.6 2.4-.3 2.8.7 2.7 2.5-.1 2 0 4.1 0 6.1v.9c-.1.8-.6 1.3-1.3 1.4h-1.5c-1.1-.1-1.5-.5-1.5-1.6 0-1.3.1-2.6.1-3.9 0 .1-.1.1-.2.1zm1 4.4c.5.4 1.1.2 1.7.1.8-.1.9-.2.9-1 0-.9-.1-1.8-.1-2.6v-4.8c0-.4-.1-.7-.5-.7-.6 0-1.3-.1-1.9.2 0 2.8-.1 5.6-.1 8.5v.3zm20 2.1h1.8c1.2 0 2.1.6 2.5 1.6.3.8.5 1.6.5 2.5.1 2.5 0 5.1 0 7.7 0 .7-.1 1.4-.3 2.1-.4 1.2-1.3 1.9-2.6 1.9-1.2.1-2.4.1-3.6.2-2.1.1-3.5-1.1-3.6-3.3v-9.2c0-2 1.4-3.6 3.4-3.5h1.9zm4.1 9.1h-.1v-3.5c0-.8 0-1.6-.1-2.3-.1-1.3-.7-2.4-2.5-2.4h-3.2c-1.6-.1-2.5 1.1-2.5 2.4v5.1c0 1.5 0 3 .1 4.6 0 1.1.7 1.9 1.8 2.1.3.1.7.1 1 0 1.1-.1 2.2-.2 3.3-.2 1.3-.1 1.8-.7 1.9-1.9.2-1.4.2-2.6.3-3.9z"/><path class="icon-feature" d="M75.6 57c0-1.3.1-2.6.1-3.9.1-1.1.5-1.5 1.6-1.6 2.4-.3 2.8.7 2.7 2.5-.1 2 0 4.1 0 6.1v.9c-.1.8-.6 1.3-1.3 1.4-.5.1-1 .1-1.5.1-1.1-.1-1.5-.5-1.5-1.6 0-1.3.1-2.6.1-3.9h-.2zm1.1 4.4c.5.4 1.1.2 1.7.1.8-.1.9-.2.9-1 0-.9-.1-1.8-.1-2.6v-4.8c0-.4-.1-.7-.5-.7-.6 0-1.3-.1-1.9.2 0 2.8-.1 5.6-.1 8.5-.1.1-.1.2 0 .3zM40.5 40.5v3.6c.2-.1.5-.2.7-.3 2.1-1.1 4.2-.9 6.1.4 2.1 1.4 3.2 3.5 3.3 6.1.1 2 0 3.9.1 5.9 0 .3 0 .7.1 1 .4 1.9-.2 3.5-1.4 4.9-1.3 1.4-2.9 2.1-4.7 2.4-1.8.3-3.5.2-5.2-.4-2.4-.9-4.1-2.5-4.8-5 0-.2-.1-.3-.1-.5 0-1.1-.1-2.2-.1-3.3 0-1 .3-1.2 1.2-1.2h3.5c.9 0 1.1.2 1.1 1.1 0 .8.1 1.6.1 2.3 0 .9.4 1.4 1.3 1.8 1.2.5 3.3-.3 3.2-2.2-.2-2.1-.2-4.1-.3-6.2-.1-1.2-.8-1.9-2-2.2-1-.2-2 .2-2.5 1.2-.3.6-.6.7-1.2.7h-2.7c-1.4 0-1.5-.1-1.5-1.5v-9.4c0-1.2 0-2.4-.1-3.7 0-.4.1-.6.5-.6h.4c4.3-.1 8.6-.1 13-.1 1 0 1.2.2 1.2 1.2.1 1 .1 1.9.1 2.9 0 .9-.4 1.3-1.3 1.3h-6.6c-.4-.2-.8-.2-1.4-.2zm-5.1 14.4v2.5c.1 2.3 1.1 4.1 3.1 5.2 3 1.6 5.9 1.5 8.8-.1 1-.6 1.8-1.3 2.2-2.4.3-.6.4-1.4.4-2.1 0-.5-.1-1.1-.1-1.6 0-1.8 0-3.5-.1-5.3 0-2-.5-3.9-2-5.4-2-2-4.7-2.2-6.9-.6-.2.1-.3.3-.5.4-.3.2-.7.1-.8-.3-.1-.3-.1-.5-.1-.8 0-1.3.1-2.5.1-3.8 0-.9 0-1 1-1h8.1v-3.5c-4.5 0-8.8.1-13.1.1v13.3h1.8c.5 0 1 0 1.4-.1.2 0 .4-.3.6-.5 1-1.4 2.7-1.7 4.3-.9 1.4.7 1.8 1.9 1.8 3.3.1 1.9.1 3.8.2 5.7.1 1.8-1.5 3.1-3.2 3.1-1.5 0-3.2-.9-3.2-3v-2.2h-3.8z"/></svg>