<svg xmlns="http://www.w3.org/2000/svg" viewBox="0 0 100 100"><style>.icon-feature{fill:#29703d}</style><path class="icon-feature" d="M55 65c-1-.1-1.9-.1-2.9-.2l-6-.3c-.7 0-1.4-.1-2-.1-.2 0-.4-.1-.4-.3V61c-.1-3.2-.1-6.4-.2-9.6-.1-4.5-.2-9-.4-13.5v-.2c-.1-.5.1-.8.5-1.1.5-.4 1.1-.8 1.5-1.2.2-.2.5-.3.8-.3 1.4.1 2.7.1 4.1.2 1.9.1 3.7.2 5.6.3.6 0 .8.2.8.8 0 2.4.1 4.8.1 7.3.1 5.9.1 11.9.2 17.8 0 .5-.1.9-.4 1.4-.4.6-.8 1.3-1.3 2.1zm-.4-5.8l-.3-21.4c-3.6-.1-7.1-.3-10.6-.4l.6 23.7c.2-.1.3-.1.4-.2 1.1-.5 2.2-.9 3.4-1.4 1.3-.6 2.6-.9 4-.8.7 0 1.6.2 2.5.5zm1.5-22.7c-.4.4-.8.6-1.1.9-.2.2-.3.3-.2.6v1.7l.3 16.6c0 2.4.1 4.8.1 7.2 0 .1 0 .2.1.4.3-.5.6-.9.9-1.4.3-.4.4-.7.3-1.2-.1-3.8-.1-7.6-.2-11.4-.1-4.3-.1-8.7-.1-13-.1-.1-.1-.2-.1-.4zM44.3 63.9c3.5.2 6.9.4 10.3.5v-2.6c-.2-.1-.3-.1-.4-.2-1.5-.4-3-.7-4.5-.6-1.4.1-2.7.3-4.1.5-.4.1-.9.2-1.3.3v2.1zm11.5-27.8s-.1-.1 0 0c-1.3-.2-2.6-.2-3.8-.3-1.8-.1-3.5-.2-5.3-.3-1.2-.1-.8-.2-1.7.5-.3.2-.6.5-1.1.8h.6c1.6.1 3.3.1 4.9.2 1.6.1 3.1.1 4.7.2.1 0 .3 0 .4-.1.4-.2.8-.6 1.3-1zm-10.1 25l2.4-.3c1.7-.2 3.5-.2 5.2.2.4.1.8.2 1.3.3v-1.6c-1.6-.7-3.3-.7-4.9-.2-1.3.4-2.6 1-4 1.6.1-.1.1 0 0 0z"/><path class="icon-feature" d="M46.2 40.4c-.4-.1-.9-.1-1.3-.3l-.6-.3c-.5-.4-.5-.9 0-1.2.2-.2.5-.3.8-.4.8-.2 1.6-.2 2.4 0 .3.1.6.2.8.4.3.3.3.7 0 1-.2.2-.4.3-.6.4-.4.2-.9.3-1.5.4zm.1-.5c.4-.1.9-.2 1.3-.3.2-.1.5-.2.5-.5s-.3-.4-.5-.5c-.9-.3-1.7-.3-2.6 0-.1 0-.2.1-.3.1-.4.2-.4.5 0 .7.1.1.2.1.4.1.4.3.7.3 1.2.4zm7.1-2.9c-.2 0-.5-.1-.7-.1-.1 0-.3-.2-.3-.3 0-.1.1-.3.2-.3.5-.2.9-.2 1.4-.1.3.1.3.4 0 .6-.2.2-.2.2-.6.2z"/></svg>