<svg xmlns="http://www.w3.org/2000/svg" viewBox="0 0 100 100"><style>.icon-feature{fill:#29703d}</style><path class="icon-feature" d="M13.5 6.4c.2-.1.4-.2.7-.2 4.2-.9 8.4-1.8 12.5-2.7.3-.1.6-.2.9-.2.6-.1 1.1-.3 1.7 0 .3.2.7.1 1.1.1 5.2.2 10.4.5 15.5.6l11.5.3c5.3 0 10.6.1 15.8.2 3.3 0 6.6.1 10 .1h.8c.1.3.1.7.5.9.1 0 .1.4.1.6.1 5 .1 9.9.1 14.9 0 3.8.1 7.5.1 11.3.1 5.9.1 11.8.1 17.7 0 3.7.1 7.5.1 11.2 0 5.9.1 11.7.1 17.6v3.4c0 .2 0 .4.1.5.4.3.2.6 0 .9-2.6 4.4-5.3 8.8-8 13.2-.2.4-.5.5-.9.4-3.4-.3-6.7-.6-10.1-.8-3.8-.3-7.6-.7-11.4-1-3.2-.3-6.5-.6-9.7-1-3.8-.4-7.6-.8-11.3-1.2-3.2-.4-6.5-.7-9.7-1.1-3.3-.4-6.7-.8-10-1.3-.8-.1-.9-.2-.9-1 0-4.9 0-9.9.1-14.8 0-6 0-12.1.1-18.1 0-6 0-12 .1-18 0-6 .1-12.1.1-18.1V8c.1-.7 0-1.1-.1-1.6zM76.4 9c-20.7-.1-41.3-.8-61.9-2 0 1.4-.1 2.6-.1 3.9 0 5.8-.1 11.5-.1 17.3v14.6c0 4.7 0 9.5-.1 14.2v15.7c0 5.4 0 10.9-.1 16.3 0 .3 0 .6.1.9 20.7 2.7 41.3 4.8 62.2 6.4V9zm7.5-3.1c-.2.1-.4.1-.5.2-1.9.8-3.8 1.7-5.7 2.5-.5.2-.6.5-.6 1v85c0 .2 0 .4.1.6.3-.2.4-.4.5-.6l6.6-10.8c.3-.5.7-.9.3-1.5v-.2c0-4.5-.1-8.9-.1-13.4 0-5.8-.1-11.5-.1-17.3 0-3.8-.1-7.7-.1-11.5 0-5.9-.1-11.8-.1-17.7 0-4.2-.1-8.4-.1-12.7-.1-1.1-.2-2.3-.2-3.6zm-67.2.4v.1h1.4l6.3.3 12 .6c2.7.1 5.5.2 8.2.3 5.6.2 11.2.4 16.8.5 3.9.1 7.8.1 11.7.1H76c.3 0 .6 0 .9-.1 2-.8 3.9-1.7 5.9-2.6.1-.1.3-.2.4-.3v-.1H76c-3.8 0-7.5-.1-11.3-.2-2.6 0-5.3-.1-7.9-.1-3.8-.1-7.7-.2-11.5-.4l-8.1-.3c-3-.1-6-.3-9.1-.4-.3 0-.6 0-.9.1-3.2.9-6.7 1.6-10.1 2.4-.1 0-.3.1-.4.1z"/><path class="icon-feature" d="M31.9 12c4.3.1 8.2.8 11.9 2.6 1.5.7 2.9 1.6 4.2 2.8.7.7 1.4 1.5 1.8 2.4 1 2.1.8 4.1-.6 5.9-.9 1.1-2 1.9-3.3 2.6-1.9 1-4 1.5-6.1 1.8-4.8.6-9.4 0-13.8-1.8-1.9-.8-3.7-1.8-5.2-3.2-1.1-1-2-2.2-2.4-3.6-.5-1.8-.1-3.4 1-4.9.9-1.2 2.1-2 3.4-2.6 2.1-1.1 4.4-1.6 6.8-1.8.8-.1 1.7-.1 2.3-.2zm-.3.7c-.6 0-1.7.1-2.7.2-2.1.3-4.2.8-6.1 1.8-1 .5-2 1.2-2.7 2.1-1.5 1.7-1.7 3.7-.6 5.7.6 1.1 1.4 1.9 2.3 2.7 1.5 1.2 3.1 2.1 4.8 2.7 4.4 1.6 8.9 2.2 13.6 1.5 1.8-.3 3.6-.8 5.3-1.6 1.2-.6 2.4-1.4 3.2-2.6 1.1-1.6 1.3-3.3.5-5-.4-.8-1-1.5-1.6-2.2-1.1-1.2-2.4-2-3.8-2.7-3.7-1.8-7.6-2.5-12.2-2.6z"/></svg>