<svg xmlns="http://www.w3.org/2000/svg" viewBox="0 0 100 100"><style>.icon-feature{fill:#29703d}</style><path class="icon-feature" d="M22.3 40.4V44c.2-.1.5-.2.7-.3 2.1-1.1 4.2-1 6.1.3 2.1 1.4 3.2 3.5 3.3 6 .1 2 0 4 .1 5.9 0 .3 0 .7.1 1 .4 1.9-.2 3.5-1.5 4.9-1.3 1.4-2.9 2.2-4.7 2.5-1.8.4-3.5.2-5.2-.3-2.4-.8-4.1-2.4-4.8-4.9 0-.2-.1-.3-.1-.5 0-1.1-.1-2.2-.1-3.3 0-1 .3-1.2 1.2-1.3 1.2-.1 2.3-.1 3.5-.1.9 0 1.1.2 1.1 1.1 0 .8.1 1.6.1 2.3 0 .9.4 1.4 1.3 1.8 1.2.5 3.3-.4 3.2-2.3-.2-2.1-.2-4.1-.3-6.2-.1-1.2-.8-1.9-2-2.1-1-.2-2 .3-2.5 1.2-.3.6-.6.7-1.2.7-.9 0-1.8 0-2.7.1-1.4 0-1.5-.1-1.5-1.5v-9.4c0-1.2 0-2.4-.1-3.7 0-.4.1-.6.5-.6h.4c4.3-.1 8.7-.3 13-.4 1 0 1.2.1 1.2 1.2.1 1 .1 1.9.1 2.9 0 .9-.4 1.3-1.3 1.3-2.2.1-4.4.1-6.6.1h-1.3zm-5.2 14.5v2.5c.1 2.3 1.1 4.1 3.1 5.1 3 1.5 5.9 1.4 8.8-.3 1-.6 1.8-1.4 2.2-2.5.3-.6.4-1.4.4-2.1 0-.5-.1-1.1-.1-1.6 0-1.8 0-3.5-.1-5.3 0-2-.5-3.9-2-5.3-2-2-4.7-2.2-6.9-.5-.2.1-.3.3-.5.4-.3.2-.7.1-.8-.3-.1-.3-.1-.5-.1-.8 0-1.3.1-2.5.1-3.8 0-1 0-1 1-1 2.4 0 4.8-.1 7.2-.1h1v-3.5c-4.5.1-8.8.2-13.2.3v13.3H19c.5 0 1 0 1.4-.1.2 0 .4-.3.6-.5 1-1.4 2.7-1.8 4.3-1 1.4.7 1.8 1.9 1.9 3.3.1 1.9.1 3.8.2 5.7.1 1.8-1.5 3.1-3.2 3.2-1.5 0-3.2-.9-3.2-3v-2.2c-1.2.1-2.5.1-3.9.1zm58.1-18.5c-.1.4-.1.7-.2 1-3.3 8.9-6.6 17.8-9.9 26.8-.3.7-.6 1-1.3 1h-1.9c-1.1 0-1.2-.3-.9-1.3 1.8-4.7 3.7-9.5 5.5-14.2 1.5-3.8 3-7.6 4.4-11.4.2-.5.3-1 .5-1.4.1-.2.3-.5.5-.5 1-.3 2.1-.3 3.3 0zM64 64.2c3.3-9 6.6-17.9 10-27h-1.8l-10.5 27H64zm-4.8-29.6H61c1.2 0 2.1.6 2.5 1.6.3.8.5 1.6.5 2.5.1 2.6 0 5.1 0 7.7 0 .7-.1 1.4-.3 2.1-.4 1.2-1.3 1.9-2.6 1.9-1.2.1-2.4.1-3.6.2-2.2.1-3.5-1.1-3.6-3.3V38c0-2 1.4-3.6 3.4-3.5.6.1 1.3.1 1.9.1zm4 9.2h-.1v-3.5c0-.8 0-1.6-.1-2.3-.1-1.3-.7-2.5-2.5-2.4h-3.2c-1.6-.1-2.5 1.1-2.5 2.4v5.1c0 1.5 0 3.1.1 4.6 0 1.1.8 1.9 1.8 2.1.3.1.7.1 1 0 1.1-.1 2.2-.2 3.3-.2 1.3-.1 1.8-.7 1.9-2 .2-1.3.3-2.6.3-3.8zm-12.7 5.4c.1 3 .2 7.3.3 10.4.1 2-1.6 4.5-3.4 5.2-.4.2-.9.2-1.4.2-1.9 0-3.9 0-5.8-.1-2.6 0-4.3-1.4-4.9-4.1-.2-1-.3-1.9-.3-2.9-.1-5.4-.2-12-.3-17.3 0-1.3.2-2.5.8-3.6.8-1.5 2-2.4 3.8-2.5 2-.1 4-.1 6-.2 3-.1 4.5 2 5 4.1.2.6.2 1.3.2 1.9v8.9zm-.9-.4h.2l-.3-9c0-1.1-.4-2.1-1-3.1-.6-.9-1.5-1.4-2.6-1.4-2.2 0-4.4 0-6.5.1-1.5.1-2.6.8-3.2 2.2-.3.8-.6 1.7-.6 2.6 0 5.9.1 13.1.3 19 0 1.2.3 2.3 1 3.3.6.8 1.4 1.4 2.4 1.4 2.3.1 4.6.1 6.8.1.3 0 .7 0 1-.2 1.6-1 2.7-2.5 2.7-4.5 0-3.1-.1-7.4-.2-10.5z"/><path class="icon-feature" d="M46.1 48.9c.1 2.6.2 6.4.3 8.9 0 1.1-.7 2.1-1.8 2.3-1 .2-2.1.2-3.1.2-1.5-.1-2.3-1.1-2.3-2.7 0-2.4 0-6.1-.1-8.5 0-2.4 0-4.9-.1-7.3 0-1.8.6-2.5 2.3-2.6 1.1-.1 2.1 0 3.2 0 1 0 1.4.5 1.5 1.5 0 .3.1.7.1 1 .1 2.4.2 4.8.2 7.2h-.2zm-1 0h.2c-.1-2.1-.1-4.2-.2-6.3V41c0-.7-.2-.9-.9-.9-.9 0-1.8-.1-2.7-.1-.3 0-.6.1-.9.2-.5.1-.7.5-.7 1.1 0 3.7 0 8.7.1 12.4 0 1.4 0 2.8.1 4.2 0 1.1.5 1.6 1.6 1.7.8 0 1.7 0 2.5-.2.8-.1 1.2-.7 1.2-1.6-.1-2.6-.2-6.4-.3-8.9zm11.8-6.3c0-1.3.1-2.6.1-3.9.1-1.1.5-1.5 1.6-1.6 2.4-.3 2.8.7 2.7 2.5-.1 2 0 4.1 0 6.1v.9c-.1.8-.6 1.3-1.3 1.4-.5.1-1 .1-1.5.1-1.1-.1-1.5-.5-1.5-1.6 0-1.3.1-2.6.1-3.9h-.2zm1 4.4c.5.4 1.1.2 1.7.1.8-.1.9-.2.9-1 0-.9-.1-1.8-.1-2.7v-4.8c0-.4-.1-.7-.5-.7-.6 0-1.3-.1-1.9.2 0 2.8-.1 5.6-.1 8.5-.1.2 0 .3 0 .4zm20 2.1h1.8c1.2 0 2.1.6 2.5 1.6.3.8.5 1.6.5 2.5.1 2.6 0 5.1 0 7.7 0 .7-.1 1.4-.3 2.1-.4 1.2-1.3 1.9-2.6 1.9-1.2.1-2.4.1-3.6.2-2.2.1-3.5-1.1-3.6-3.3v-9.3c0-2 1.4-3.6 3.4-3.5.7.1 1.3.1 1.9.1zm4.1 9.2h-.1v-3.5c0-.8 0-1.6-.1-2.3-.1-1.3-.7-2.5-2.5-2.4h-3.2c-1.6-.1-2.5 1.1-2.5 2.4v5.1c0 1.5 0 3.1.1 4.6 0 1.1.8 1.9 1.8 2.1.3.1.7.1 1 0 1.1-.1 2.2-.2 3.3-.2 1.3-.1 1.8-.7 1.9-2 .2-1.3.2-2.6.3-3.8z"/><path class="icon-feature" d="M75.6 57.1c0-1.3.1-2.6.1-3.9.1-1.1.5-1.5 1.6-1.6 2.4-.3 2.8.7 2.7 2.5-.1 2 0 4.1 0 6.1v.9c-.1.8-.6 1.3-1.3 1.4-.5.1-1 .1-1.5.1-1.1-.1-1.5-.5-1.5-1.6 0-1.3.1-2.6.1-3.9h-.2zm1.1 4.4c.5.4 1.1.2 1.7.1.8-.1.9-.2.9-1 0-.9-.1-1.8-.1-2.7v-4.8c0-.4-.1-.7-.5-.7-.6 0-1.3-.1-1.9.2 0 2.8-.1 5.6-.1 8.5-.1.2-.1.3 0 .4z"/></svg>