<svg xmlns="http://www.w3.org/2000/svg" viewBox="0 0 100 100"><style>.icon-feature{fill:#29703d}</style><path class="icon-feature" d="M45.2 23.2c-.3 0-.5-.1-.7.1-.2.2-.4.2-.5-.1-.1-.2-.1-.5-.1-.7 0-1.2.1-2.5.1-3.7 0-.5.3-.8.8-.8.5-.1 1-.1 1.5-.1h8.2c.4 0 .9 0 1.3.1.6.2.7.4.7 1-.1.9-.1 1.9-.1 2.8v.2c0 .9-.1 1-1 1.2.1 1.1.5 2.1 1 3.1.3.6.6 1.1 1 1.7 1.2 1.9 2.2 3.8 2.6 6 .4 2.4.3 4.8-.1 7.3-.4 2.2-.8 4.5-1.2 6.7-.2 1.4-.2 2.8-.3 4.2-.2 3.1-.3 6.2-.1 9.2.1 2.1.3 4.1.9 6.2.3 1.3.4 2.6.6 3.9.2 1.2.3 2.5.5 3.7.2 1.5 0 2.9-.4 4.4-.5 1.3-1.4 2-2.7 2.2-1.6.1-2.9.2-4.2.2-1.3 0-2.6.1-3.8.1-2.2.1-4.4 0-6.5-.4-.3-.1-.7-.1-1-.2-.6-.2-.9-.5-1.1-1.1-.5-1.4-.5-2.9-.6-4.3-.2-2.8.3-5.5.8-8.1.4-2 .8-4 1.1-6.1.2-1.4.2-2.8.3-4.2.1-2.1-.2-4.2-.4-6.3-.3-3.3-.7-6.7-1-10-.1-1.2-.3-2.4-.4-3.6-.2-2.3-.1-4.5.9-6.7l.3-.6c.6-1.5 1.3-2.9 2.3-4.1.5-.7.9-1.4 1.2-2.2-.1-.4 0-.7.1-1zm5.7 58.3h2.5c1.2-.1 2.3-.1 3.4-.3 1.2-.1 2-.8 2.4-2 .3-1.2.5-2.4.3-3.6-.2-1.2-.3-2.3-.4-3.5-.2-1.4-.3-2.9-.7-4.2-.7-2.8-.9-5.7-1-8.6-.1-3 .1-5.9.3-8.8.2-2.7.7-5.3 1.1-8 .4-2 .7-4 .6-6-.1-2.1-.5-4.2-1.6-6-.6-1.1-1.3-2.1-1.9-3.2-.1-.1-.3-.2-.4-.3-.8-.1-1.7-.2-2.6-.3-2.9-.1-5.7.1-8.6.3-.4 0-.6.2-.8.5-.8 1.2-1.3 2.5-1.9 3.8-.8 1.6-1 3.2-1 4.9 0 .9.1 1.7.2 2.6.2 1.6.3 3.2.5 4.8.2 1.7.4 3.5.6 5.2.1 1.3.2 2.7.3 4 .1.6.2 1.1.2 1.6 0 1.1.1 2.2 0 3.3 0 1.2 0 2.5-.2 3.7-.4 2.3-.8 4.6-1.3 6.9-.6 3.1-.9 6.1-.7 9.2.1.9.1 1.7.5 2.5.3.6.7.9 1.3 1 2.3.4 4.5.5 6.8.4.9.1 1.5.1 2.1.1zm4.8-60.2c0-.9.1-1.7.1-2.6-.3-.3-.8-.3-1.2-.3h-9.3c-.7.1-.8.1-.8.8v2.1h11.2zm-.9 2.3h-.6c-1-.1-2-.1-3-.2-1.4-.1-2.8-.2-4.2-.1-.3 0-.5.1-.8.2-.2.1-.4.2-.5.5-.3.7-.6 1.3-.9 2-.1.1-.1.2-.2.4 1.9-.1 3.7-.2 5.5-.3 1.8-.1 3.7-.1 5.5.2-.3-1-.6-1.8-.8-2.7zm.9-1.6H44.4c0 .3 0 .5.1.7 3.8 0 7.4-.1 11.1-.1.1-.3.1-.4.1-.6z"/><path class="icon-feature" d="M49.1 37.6c-1.4 0-2.7-.2-4-.7-.6-.2-1.2-.6-1.7-1-1.3-1-1.4-2.5-.3-3.7.6-.6 1.3-1.1 2.1-1.4 2.9-1.2 5.9-1.4 8.9-.5.6.2 1.3.5 1.9.9.3.2.6.5.9.8.7.8.7 1.8.2 2.7-.4.6-.9 1.1-1.6 1.5-1.3.8-2.7 1.2-4.1 1.4-.8-.1-1.5 0-2.3 0zm.2-.6c.4 0 .9-.1 1.5-.1 1.4-.2 2.7-.5 4-1.2.5-.3 1.1-.7 1.5-1.2.8-.9.7-1.8-.1-2.7-.5-.5-1.2-.8-1.9-1.1-1.8-.6-3.6-.7-5.5-.4-1.4.2-2.7.5-4 1.2-.5.3-1 .7-1.4 1.2-.7.8-.6 1.7.1 2.5.5.5 1.2.8 1.9 1.1 1.2.6 2.5.7 3.9.7z"/></svg>