<svg version="1.1" xmlns="http://www.w3.org/2000/svg" x="0" y="0" viewBox="0 0 100 100" xml:space="preserve"><style>.icon-feature{fill:#29703d}</style><path class="icon-feature" d="M45.1 32.7c.1-.1.1-.2.1-.3.1-.7.5-1 1.2-1.1.2 0 .3 0 .5-.1.1-.1.1-.2.2-.4-.6-.1-1.1-.1-1.4-.7 0-.1-.3-.1-.5-.1-.5-.1-.9-.2-1.4-.4-.4-.1-.6-.4-.6-.8 0-1.6.4-3.1.8-4.6.2-.5.6-1 1.1-1.2.6-.2 1.1-.5 1.7-.5 1.8-.1 3.6-.2 5.5-.2 1.2 0 2 .5 2.6 1.5.9 1.5 1.1 3.2 1 4.9 0 .5-.4.8-.8 1-.3.1-.6.2-.9.2-.3.1-.6.1-.8.5-.1.2-.4.3-.7.3-.2.1-.5-.1-.7.3.2.1.3.2.5.2.9-.1 1.6.2 1.7 1.3h1.5c1.5 0 3.1 0 4.6.1.7 0 1.3.3 1.7.9.4.6.9 1.2 1.3 1.9 1.3 1.9 1.9 4.1 2.1 6.4.1 1 .1 2 .2 3 .2 1.9-.4 3.6-.9 5.4-.4 1.3-.6 2.5-.6 3.9 0 1.3.3 2.6.6 3.9l.9 3.3c.3 1.4.2 2.8.1 4.2l-.3 6.3c-.1 1.3-.1 2.6-.3 3.8-.2 1.4-.8 1.9-2.2 1.9H37.1c-.4 0-.8 0-1.2-.1-.5-.1-.9-.4-1-1-.1-.4-.2-.8-.2-1.2-.1-3.5-.2-7-.4-10.5-.1-1.3-.2-2.5.1-3.7.2-.8.4-1.6.7-2.4 1.1-2.9.9-5.8.1-8.8-.6-2-1-4-1-6.1 0-1.2.1-2.3.5-3.5.7-2.3 1.8-4.4 3.1-6.4.6-.8 1.3-1.3 2.4-1.3h4.2c.3.2.5.2.7.2zM35.1 69l29.7.6c0-.3.1-.5.1-.6.1-1.3.1-2.6.2-3.8.1-1.8.1-3.5-.5-5.3-.2-.5-.4-1.1-.5-1.7-.2-1-.5-2.1-.6-3.1-.2-1.7.1-3.4.6-5 .6-1.9 1.1-3.7.9-5.7 0-.5-.1-1-.1-1.5-.2-3.2-1.2-6.1-3.3-8.6-.4-.5-.9-.8-1.6-.8-1.4 0-2.8-.1-4.2-.1H40.2c-.7 0-1.2.3-1.6.8-1.2 1.7-2.2 3.6-2.9 5.6-.8 2.1-.9 4.2-.5 6.4.3 1.7.8 3.4 1.1 5.1.5 2.5.5 5-.4 7.5-.3.8-.5 1.7-.7 2.5-.1.6-.2 1.1-.2 1.7 0 1.7.1 3.3.1 5-.1.2 0 .6 0 1zm29.7 1.2c-10-.2-19.8-.4-29.7-.6.1 2 .2 3.8.3 5.7h29.2c.1-1.7.1-3.3.2-5.1zm-9.6-41.5c.2-.7 0-1.3 0-1.9-.1-.9-.4-1.8-.8-2.5-.4-.6-.9-1.1-1.6-1-2 0-3.9.1-5.9.1-.3 0-.6.1-.9.2-.7.2-1.2.7-1.4 1.4-.2 1.1-.4 2.1-.7 3.2 0 .1 0 .3.1.5 3.7-.6 7.5-.8 11.2 0zM35.6 75.9c.1.7.2.9.7.9H63.4c.6 0 .8-.2.9-.8-9.6-.1-19.2 0-28.7-.1zm18.8-46.7c-3.2-.6-6.3-.4-9.4-.1.1.1.1.2.2.2.5.1 1 .1 1.3.7 0 .1.3.1.5.1 1.7.1 3.5.1 5.2.1.2 0 .4 0 .6-.1.5-.2 1-.5 1.6-.9zm-1 3.4c-.1-.6-.5-.5-.8-.5-1.5-.1-3-.1-4.6-.1-.5 0-1.1 0-1.6.1-.4 0-.6.2-.5.7 2.5-.1 5-.2 7.5-.2zm-5.9-1.4c.3.1.5.1.7.1.6 0 1.2.1 1.9.1h.9c.1 0 .2-.2.4-.3 0-.1 0-.1-.1-.2-1.1 0-2.3-.1-3.4-.1-.1 0-.2.2-.4.4z"/><path class="icon-feature" d="M39.4 47.9c-.6-.2-1.2-.3-1.8-.5-1-.5-1.1-1.6-.2-2.3 1.1-.9 3.2-1 4.4-.4 1 .6 1.1 1.6.2 2.3-.8.6-1.7.8-2.6.9zm0-.7c.7-.1 1.4-.2 2-.6.3-.2.5-.4.5-.8s-.3-.5-.6-.7c-.8-.3-1.6-.3-2.5-.1-.3.1-.6.2-.9.4-.7.5-.7 1 .1 1.4.5.2.9.3 1.4.4z"/></svg>
