<svg xmlns="http://www.w3.org/2000/svg" viewBox="0 0 114.79 140.48"><path d="M8.61 0h97.57a8.62 8.62 0 0 1 8.61 8.58V131.9a8.62 8.62 0 0 1-8.61 8.58H8.61A8.62 8.62 0 0 1 0 131.9V8.58A8.62 8.62 0 0 1 8.61 0" fill="#fff" fill-rule="evenodd"/><rect x="3.59" y="54.4" width="107.64" height="83" rx="7.98" fill="#01a158"/><path d="M35.09 60.48c15.81-.91 34.17 4.58 48.76 5.28 12.07.57 21.74-2.31 27.29-5.2V10.32a7.26 7.26 0 0 0-7.23-7.25H10.78a7.27 7.27 0 0 0-7.24 7.25V69.8c7-3.61 18-8.53 31.55-9.32" fill="#ed353e"/><path d="M3.54 67.46c7.61-4.36 23.67-12 40.44-10 23.19 2.63 38.76 8.31 57 4.3a96.63 96.63 0 0 0 10.18-2.8v1.65c-5.55 2.89-15.23 5.77-27.29 5.2-14.59-.7-32.95-6.19-48.76-5.28-13.59.79-24.53 5.71-31.55 9.32zm24.02-28.68v-4.25a2.75 2.75 0 0 1-2.17.62h-9.3a2.77 2.77 0 0 1-2.2-.62v4.25a2.47 2.47 0 0 1 .8-1.31 3.6 3.6 0 0 1 2.31-.58h2.5v12c0 1-.07 1.38-.37 1.67a2.31 2.31 0 0 1-1.18.67h5.51a2.52 2.52 0 0 1-1.16-.67c-.29-.34-.36-.66-.36-1.67v-12h2.65a2.77 2.77 0 0 1 3 1.89m11.73 7.99a3.37 3.37 0 0 1-1.11 1.84 3.43 3.43 0 0 1-2.34.75h-2.2c-1 0-1.3-.39-1.3-1.7v-4h2.92c1.38 0 1.48 0 1.91.37a2 2 0 0 1 .65.94v-4.6a1.92 1.92 0 0 1-.84 1 3.62 3.62 0 0 1-1.77.34h-2.87v-5h3.26a2.41 2.41 0 0 1 2.22.82 3 3 0 0 1 .68 1.21v-4.38a1.72 1.72 0 0 1-.51.55 1.63 1.63 0 0 1-1 .25h-8.54a2.41 2.41 0 0 1 1.16.67c.31.37.39.65.39 1.67v11.42c0 1-.1 1.35-.39 1.67a2.33 2.33 0 0 1-1.16.67h10.41c.1-1.81.15-2.29.43-4.49m10.45-7.16A2.46 2.46 0 0 1 48.11 42a6.47 6.47 0 0 1-1.84.24H45v-5.42h1.21c2.17 0 3.52 1.06 3.52 2.79m4.97 11.65a4.71 4.71 0 0 1-1.35-.75 6.91 6.91 0 0 1-1.43-1.67l-1.64-2.41a14.73 14.73 0 0 0-2.05-2.61A4.33 4.33 0 0 0 51 42.74a4.37 4.37 0 0 0 1.54-3.35c0-2.65-1.93-4.23-5.28-4.23H41a2.66 2.66 0 0 1 1.19.68c.29.37.36.66.36 1.68v11.4c0 1-.07 1.37-.36 1.66a2.61 2.61 0 0 1-1.19.68h5.58a2.4 2.4 0 0 1-1.16-.68c-.31-.33-.36-.65-.36-1.66V44h.56a19.15 19.15 0 0 1 2.1 2.87l1 1.64a17.52 17.52 0 0 0 1.4 2c.14.19.36.43.67.77z" fill="#fff"/><path d="M73.68 51.26c-1.4-.53-1.72-1.13-1.81-3.43L71.46 38v-.56a1.92 1.92 0 0 1 .31-1.3 2.66 2.66 0 0 1 1.57-1h-4.2L64 46.65l-4.92-11.5h-4.5a3.52 3.52 0 0 1 1.77.9 1.67 1.67 0 0 1 .41 1.37v.51l-.58 10.7a3 3 0 0 1-.48 1.86 2.54 2.54 0 0 1-1.09.77h4.5c-1-.48-1.16-.82-1.16-2.1v-.77l.48-9 5.27 12.29 5.41-12.53.46 9V49c0 1.45-.19 1.83-1.23 2.29zm12.12-4.49a3.28 3.28 0 0 1-3.45 2.59h-2.2c-1 0-1.31-.39-1.31-1.7v-4h2.93c1.37 0 1.47 0 1.9.37a2.08 2.08 0 0 1 .66.94v-4.6a1.88 1.88 0 0 1-.85 1 3.57 3.57 0 0 1-1.76.34h-2.88v-5h3.26a2.42 2.42 0 0 1 2.23.82 3.16 3.16 0 0 1 .67 1.25v-4.42a1.84 1.84 0 0 1-.51.55 1.62 1.62 0 0 1-1 .24H75a2.3 2.3 0 0 1 1.15.68c.32.36.39.65.39 1.67v11.42c0 1-.09 1.35-.39 1.67a2.33 2.33 0 0 1-1.15.67h10.4a44.74 44.74 0 0 1 .44-4.49m-1.35-13.84a17.49 17.49 0 0 1-1.06-2.29c-1.69 1.64-2.15 2-4 3.72a47 47 0 0 1 5.06-1.43zm17.15 18.33a3.7 3.7 0 0 1-2.1-1.45 9.61 9.61 0 0 1-.8-1l-.66-.91-3.84-5.5 4-5.24a6.73 6.73 0 0 1 1.16-1.28 4.38 4.38 0 0 1 1.4-.73h-5c.51.15.75.32.75.56s-.05.29-.53.92l-4.52 6.06V37.5c0-1 .07-1.36.36-1.67a2.69 2.69 0 0 1 1.14-.68h-5.47a2.51 2.51 0 0 1 1.16.68c.29.36.36.65.36 1.67v11.42c0 1-.07 1.37-.36 1.66a2.33 2.33 0 0 1-1.16.68H93a2.4 2.4 0 0 1-1.16-.68c-.31-.33-.36-.65-.36-1.66v-6.23L96 49a3 3 0 0 1 .7 1.47c0 .36-.2.58-.7.82zM38.88 29a2.46 2.46 0 0 1-1.16-.67c-.29-.34-.36-.65-.36-1.67V15.24c0-1 .07-1.35.36-1.67a2.57 2.57 0 0 1 1.16-.67h-5.53a2.41 2.41 0 0 1 1.16.67c.31.37.36.66.36 1.67v4.2H27v-4.2c0-1 .07-1.35.36-1.67a2.7 2.7 0 0 1 1.16-.67H23a2.46 2.46 0 0 1 1.16.67c.3.37.37.66.37 1.67v11.42c0 1-.07 1.38-.37 1.67A2.33 2.33 0 0 1 23 29h5.51a2.58 2.58 0 0 1-1.16-.67c-.29-.34-.36-.65-.36-1.67v-5.22h7.85v5.22c0 1-.08 1.38-.36 1.67a2.43 2.43 0 0 1-1.16.67zm9.87-8h-3l1.47-3.84zm7 8a2.46 2.46 0 0 1-1.64-1.54L47.4 12.17 41.41 27a2.88 2.88 0 0 1-1.91 2h4.35c-.51-.26-.7-.5-.7-.89l.12-.6 1.81-4.86h4.32l1.82 4.52a2.14 2.14 0 0 1 .19.8c0 .46-.29.77-1 1z" fill="#fff"/><path d="M69.59 12.9h-12a3.15 3.15 0 0 1-1.11-.14 3.35 3.35 0 0 1-.63-.49V17a3.21 3.21 0 0 1 .85-1.62 2.77 2.77 0 0 1 2.3-.72h6.4L55.15 29h12.27a4.58 4.58 0 0 1 1.27.17 2.11 2.11 0 0 1 .71.49v-5.12c-.63 1.83-1.45 2.53-3 2.53h-7zm9.24 8.1h-3l1.47-3.84zm7 8a2.42 2.42 0 0 1-1.64-1.54l-6.71-15.29L71.49 27a2.88 2.88 0 0 1-1.91 2h4.35c-.5-.26-.7-.5-.7-.89l.12-.6 1.81-4.86h4.32l1.82 4.52a2.14 2.14 0 0 1 .19.8c0 .46-.29.77-1 1zm5.99 0a2.62 2.62 0 0 1-1.18-.67c-.29-.34-.36-.65-.36-1.67V15.24c0-1 .07-1.35.36-1.67a2.87 2.87 0 0 1 1.18-.67h-5.46a2.46 2.46 0 0 1 1.16.67c.29.37.37.66.37 1.67v11.42c0 1-.08 1.38-.37 1.67a2.33 2.33 0 0 1-1.16.67zm7.65 39c-5.27 3-17.34 6.39-29.57 5.84-15.48-.69-31.46-6.49-46.29-5.62-6.31.37-10.11-.22-14.87 1.35v53.23c0 3.73 1.17 8.54 4.9 8.54h3.61a20.48 20.48 0 0 0 2.34-5.26c.72-3.13.29-15.49 1.29-19.18S25.71 95.81 27 93.82a58.22 58.22 0 0 0 4.26-10.95c.42-2 2.08-9.57 2.41-10.8.41-1.48 1.42-2.55 2.56-1.56a12.26 12.26 0 0 1 3.27 6.54c.28 2.56.28 6.53-1 8s-2.84 3-3.27 4.56-.51 3 1.19 3.72 8.75 2.67 11.89 3.61 6.11 4.27 6.11 4.27-2.67.37-7.64.65-6.86.48-8.57.63-2.36.25-3.55 1.41c-1.37 1.35-1.28 2.71-2.42 3.84s-2.84 2-3.84 3.28a15.11 15.11 0 0 0-2 3.5 17.15 17.15 0 0 0-.65 2.18 51.44 51.44 0 0 1 3.4-4.54 22.42 22.42 0 0 1 7.68-4.84c3.55-1.42 8.1-1.85 11.22-2.14s4.62-.11 6-.71a4 4 0 0 0 2.56-2.55c.56-1.42.28-1.56 1.13-2.85a16.81 16.81 0 0 1 1.52-2s.48-5.83.76-7.53.14-1.43-.43-3.14a14.46 14.46 0 0 1-.85-5.12c0-2.12.13-3.76 1-5.16a5.29 5.29 0 0 1 2.68-2l.91-.19s.15 4.92.43 6.77 1.54 3.92 1.54 4.87-.12 10.77-.12 11.9-.15 2.13.43 2.13.82-.5 1.56-1.85 3-5.12 3.69-6.53a24.73 24.73 0 0 0 1.57-2.81c.23-1 .42-7.28 1.13-9.13a8.48 8.48 0 0 1 2.7-3.84 9.89 9.89 0 0 1 3-1.1s0 2.24-.33 4.94-.31 5.21-.42 6.82-.29 3.42-.29 3.42a9.3 9.3 0 0 0-1 1.55 3.46 3.46 0 0 0-.57 2.14l6.21-5.39s.53-7.45 1.06-8.82a18 18 0 0 1 2.26-4.55 5.88 5.88 0 0 1 2.69-1.43l.24 6.51a35 35 0 0 1 2.32-4.52 7.1 7.1 0 0 1 2.84-2.27 9.33 9.33 0 0 1 2.84-.43s-2.38 6.31-3.24 8-1.99 4.37-3.35 6.69c-1.12 1.92-3.41 6-5.83 7.54s-7.11 6.25-9.24 7.53a10.14 10.14 0 0 0-3.55 3.12c-.43.72-.38 1.88-1.43 2.41-.81.4-2.35.15-3 .58-.81.56-1.28 2.56-2.41 3.13s-5 2.27-8.11 3.7-7 1.57-9.94 3.84-5.41 6.67-6.55 9.37a27.38 27.38 0 0 0-1 3.13H100c3.73 0 5.86-4 5.86-7.69V62.88c-2.7 1.72-2 2.69-6.41 5.16" fill="#fff"/></svg>