<svg xmlns="http://www.w3.org/2000/svg" viewBox="0 0 100 100"><style>.icon-feature{fill:#29703d}</style><path class="icon-feature" d="M13.2 50.7c.2-11 4.1-20.5 12.2-28.1 6.2-5.8 13.5-9.2 22-9.9 14.5-1.3 28.3 6.7 34.8 20.2 2.7 5.6 3.9 11.5 3.7 17.6-.6 15.7-10 28.5-22.7 34-5 2.2-10.3 3.3-15.7 3-14.4-1-24.7-8.1-30.9-21.1-2.4-4.9-3.5-10.7-3.4-15.7zm71.6-1.4c.1-4.5-.7-8.8-2.3-13-7.4-19.8-29.5-28.4-48-19-17.7 9-25.2 30.9-16.8 49C25.5 83.4 45.1 91 62.4 83.6c14.4-6.1 22.5-20.5 22.4-34.3z"/><path class="icon-feature" d="M66.8 24.6c.1-.7.6-.8 1.2-.8h1.8c1 0 1.3.5 1 1.4-.2.6-.6 1.1-.9 1.7 1 .4 1.4 1.1 1.7 2.1.1.4.5.7.8 1.1 5.2 6.7 7.6 14.4 6.8 22.8C78.1 64.4 72.4 73 62 78.3c-.1.1-.2.1-.3.2-.1 0-.1.1-.3.2v1.6c0 .5-.2.8-.6 1-.5.2-.7-.1-.9-.4-.4-.4-.7-.8-1.1-1.3-3.2 1.1-6.3 1.5-9.7 1.5 0 .6 0 1.1-.1 1.6-.1.8-.5 1.1-1.2.6-.7-.6-1.4-1.2-2-1.8-.5-.5-1-.7-1.7-.9-10.4-2.2-17.8-8.3-22-17.9-3.7-8.3-3.6-16.8-.2-25.3 2.1-5.2 5.5-9.5 10-12.8.6-.4 1-.9 1.3-1.6 1.3-2.8 4.1-4 7.1-3.1.3.1.7.1 1.1 0 9-2.3 17.3-.8 24.9 4.6.3-.1.4 0 .5.1zm-24.6-3.8c1 .9 2 1.5 3.2 1.5h3c.7 0 1.4-.1 2-.1 3.1.3 4 1.5 4.5 3.7.2.8.3 1.7.4 2.6.1 1.6.5 3.1 1.4 4.5.5.8 1 1.6 1.4 2.5 1.3 3.1.5 4.4-1.4 5.7-1 .6-1.6 1.6-1.9 2.7-.2.8-.5 1.7-.7 2.5-.8 2.5-2.3 4.5-4.4 6.1-1.3 1-2.8 1.2-4.4.5-.4-.2-.8-.3-1.1-.5-1-.6-2.1-.7-3.2-.5-1.7.4-3.3.8-4.9 1.1-1 .2-2 .5-3.1.7-1.4.2-2.5-.5-3-1.8-.2-.4-.3-.9-.3-1.3-.1-1.3-.2-2.6-.2-3.8.1-1.7-.4-3.3-1.4-4.7-.8-1.1-1.6-2.2-2.3-3.3-.7-1.1-1.1-2.3-.9-3.6v-.9c-.3.5-.4.7-.6.9-.4.9-.9 1.8-1.2 2.7-3.2 7.7-3.4 15.5-.3 23.2 3.5 9.1 10 15.2 19.4 18 .4.1.7.2 1.1.3.1-.1.1-.2.2-.3l-.6-.3c-5.7-5.2-11.4-10.4-17-15.5-.4-.3-.7-.6-1.1-1-.5-.5-.3-1 .4-1.1.2 0 .4 0 .6-.1l12-.6c.2 0 .5-.1 1-.1-.5-.4-.9-.7-1.2-1-.3-.3-.6-.6-.3-1 .2-.2.6-.3.9-.3 3.2-.1 6.4-.1 9.6-.2 3.5-.1 6.9-.1 10.4-.2.9 0 1.7 0 2.6.1.8.1 1 .4 1 1.1v18.6c.2 0 .3 0 .4-.1.3-.1.5-.3.8-.4 4.1-2.2 7.5-5.2 10.1-9 4.2-6.1 6-12.8 5.4-20.2-.4-5.5-2.2-10.4-5.2-15-.2-.3-.3-.7-.8-.8.1.7.1 1.4.1 2.1 0 4.1.1 8.2.1 12.3 0 1.2.1 2.5.1 3.7 0 1.1 0 2.3-.1 3.4-.1 1.4-.7 2.7-2.1 3.4.1.2.3.4.4.6.2.4.5.8.7 1.3.4 1.1 0 1.7-1.2 1.8-.6 0-1.2.1-1.8 0-1.1-.1-1.5-.6-1.1-1.7.2-.7.5-1.3.8-2-1.5-.5-1.9-1.6-2.1-2.9-.1-.8-.2-1.6-.2-2.4-.2-3.9-.3-7.8-.4-11.7-.1-2.4-.1-4.7 0-7.1.1-2.1.7-4.2 2.7-5.4-6.6-6.6-17.5-9.4-26.2-6.7zM30.3 47.7c.1.8.2 2.1.5 3.3.3 1.4 1 1.8 2.4 1.6.8-.1 1.6-.4 2.4-.6 1.5-.4 2.9-.8 4.4-1.1 1.8-.4 3.5-.3 5.1.7l.6.3c1.1.5 2.2.4 3.2-.3.7-.5 1.3-1.1 1.9-1.7 1.5-1.6 2.3-3.6 2.8-5.7.4-1.8 1.3-3.3 2.9-4.2 1.1-.7 1.4-1.7 1.1-2.9-.1-.5-.3-1.1-.6-1.6-.4-.8-.8-1.5-1.3-2.2-.8-1.2-1.1-2.4-1.3-3.8-.1-1.1-.2-2.3-.5-3.3-.4-1.8-1.4-2.6-3.2-2.8-.9-.1-1.7 0-2.6 0-2.7.3-5.1-.1-7.1-2-.2-.2-.4-.3-.7-.4l-.6-.3c-2.2-.5-4.4.5-5.4 2.6-.6 1.2-1.1 2.5-1.6 3.7-.9 2.1-2.3 3.9-4.2 5.1-.4.3-.9.6-1.3.8-.6.3-.9.8-1.1 1.5-.4 1.3-.3 2.6.5 3.8.7 1.1 1.5 2.2 2.2 3.3 1.1 1.7 1.9 3.6 1.5 6.2zM38.8 59c2.7 3 5.5 5.6 8.5 8 3.8 2.9 7.3 6.1 10.3 9.8.6.8 1.4 1.5 2 2.3.2.2.4.4.8.6.4-7.2 0-14.1.2-21.3l-21.8.6zm-12.9 3c1.2 1.1 2.2 1.9 3.2 2.8 6.1 5.5 12.1 11 18.2 16.6.2.2.4.3.7.5v-.6c-.1-4-.2-7.9-.2-11.9 0-.6-.3-.9-.7-1.3-2.1-1.8-4.2-3.4-6.1-5.4-1.3-1.3-2.6-1.7-4.3-1.5h-.6c-2.9.2-5.9.3-8.8.5-.3.1-.7.2-1.4.3zm45.5-18.4s.1 0 0 0c0-3.5-.1-7.1-.2-10.6-.1-1.4-.4-2.8-.7-4.2-.2-.9-1.3-1.3-2.1-.8-.5.3-1 .8-1.3 1.4-.4.7-.6 1.5-.7 2.2-.2 1.5-.2 2.9-.2 4.4.1 4.8.3 9.7.5 14.5.1 1.3.2 2.6.5 3.9.1.7.7 1.2 1.5 1.2s1.7.1 2.1-.9c.4-.9.6-1.8.6-2.7v-8.4zM57.9 78.8c-2.8-3.3-5.4-6.5-8.9-9.1.2 3.6 0 7 .2 10.4 3 0 5.7-.4 8.7-1.3zM26.3 32c2.6-1.2 4.6-2.9 5.6-6-2.3 1.8-4.1 3.7-5.6 6zM68 59.5c.9-.1 1.6-.1 2.3-.2-.1-1-.7-1.7-1.4-2.3-.2.8-.5 1.5-.9 2.5zm.2-34.7l.8 1.6c.4-.6.6-1 1-1.6h-1.8z"/><path class="icon-feature" d="M50.8 37.4c0 4.4-3.5 8-7.8 8-4.4 0-8-3.7-8-8.1 0-4.4 3.6-8 7.8-8 4.5 0 8 3.6 8 8.1zm-14.7-.2c0 3.9 3 7.1 6.8 7.1s6.9-3.1 7-7c0-3.8-3.1-7.1-6.9-7.1-3.8.1-6.9 3.2-6.9 7z"/><path class="icon-feature" d="M37.2 37.1c0-2 .7-3.7 2.4-4.9.4-.3.9-.4 1.4-.6.1 0 .5.2.5.3 0 .2-.1.4-.2.6-.1.1-.2.1-.3.1-1.9.8-2.7 2.2-2.7 4.2 0 .9.2 1.8.3 2.7 0 .2.1.4.1.7 0 .2-.1.4-.3.4-.1 0-.4-.1-.5-.2-.2-.3-.3-.7-.4-1-.1-.8-.2-1.5-.3-2.3zm6.4-4.7h-.5c-.2-.1-.3-.3-.4-.4 0-.1.2-.3.3-.4.3-.1.6-.1.9 0 .2.1.3.3.5.4-.2.1-.3.3-.5.4h-.3z"/></svg>